{
.appVersion = "3134";
.formatVersion = 3;
classes = (
{
code = "A Aacute Abreve Acircumflex Adieresis Agrave Amacron Aogonek Aring Atilde AE B C Cacute Ccaron Ccedilla Cdotaccent D Eth Dcaron Dcroat E Eacute Ecaron Ecircumflex Edieresis Edotaccent Egrave Emacron Eogonek F G Gbreve Gdotaccent H Hbar I Iacute Icircumflex Idieresis Idotaccent Igrave Imacron Iogonek J K L Lacute Lcaron Ldot Lslash M N Nacute Ncaron Ntilde Eng O Oacute Ocircumflex Odieresis Ograve Ohungarumlaut Omacron Oslash Otilde OE P Thorn Q R Racute Rcaron S Sacute Scaron Scedilla T Tbar Tcaron U Uacute Ucircumflex Udieresis Ugrave Uhungarumlaut Umacron Uogonek Uring V W Wacute Wcircumflex Wdieresis Wgrave X Y Yacute Ycircumflex Ydieresis Ygrave Z Zacute Zcaron Zdotaccent A_E A_O C_H C_Q D_E E_A Eacute_E E_S E_U E_T_E F_F_E F_V I_E I_L L_E L_L_E L_U M_P N_A N_E N_N_E O_F O_T_E O_Idieresis P_M R_E R_I_C_E R_S S_E S_L S_S_E S_T_E_S T_E T_T_E U_E U_L_L_E X_C_E X_L X_S_E X_S_S ";
name = Uppercase;
}
);
customParameters = (
{
name = panose;
value = (
0,
0,
10,
0,
0,
0,
0,
0,
0,
0
);
},
{
name = unicodeRanges;
value = (
0,
1,
2
);
},
{
name = codePageRanges;
value = (
"1252",
"1250",
"1254",
"1257",
"bit 29"
);
},
{
name = blueScale;
value = 0.037;
},
{
name = glyphOrder;
value = (
.notdef,
A,
Aacute,
Abreve,
Acircumflex,
Adieresis,
Agrave,
Amacron,
Aogonek,
Aring,
Atilde,
AE,
B,
C,
Cacute,
Ccaron,
Ccedilla,
Cdotaccent,
D,
Eth,
Dcaron,
Dcroat,
E,
Eacute,
Ecaron,
Ecircumflex,
Edieresis,
Edotaccent,
Egrave,
Emacron,
Eogonek,
F,
G,
Gbreve,
Gcommaaccent,
Gdotaccent,
H,
Hbar,
I,
IJ,
Iacute,
Icircumflex,
Idieresis,
Idotaccent,
Igrave,
Imacron,
Iogonek,
J,
K,
Kcommaaccent,
L,
Lacute,
Lcaron,
Lcommaaccent,
Ldot,
Lslash,
M,
N,
Nacute,
Ncaron,
Ncommaaccent,
Eng,
Ntilde,
O,
Oacute,
Ocircumflex,
Odieresis,
Ograve,
Ohungarumlaut,
Omacron,
Oslash,
Otilde,
OE,
P,
Thorn,
Q,
R,
Racute,
Rcaron,
Rcommaaccent,
S,
Sacute,
Scaron,
Scedilla,
Scommaaccent,
T,
Tbar,
Tcaron,
Tcedilla,
uni021A,
U,
Uacute,
Ucircumflex,
Udieresis,

glyphs = (
{
glyphname = .notdef;
lastChange = "2022-11-29 13:10:53 +0000";
layers = (
{
hints = (
{
horizontal = 1;
place = (-56, -6);
place = (-56, -6);
type = Stem;
},
{
horizontal = 1;
place = (594, -6);
place = (594, -6);
type = Stem;
},
{
place = (-56, -6);
place = (-56, -6);
type = Stem;
},
{
place = (394, -6);
place = (394, -6);
type = Stem;
}
);
layerId = m01;
shapes = (
{
closed = 1;
nodes = (
(-34,104,ls),
(-48,39,o),
(-16,0,o),
(50,0,cs),
(358,0,ls),
(415,0,o),
(450,27,o),
(462,84,cs),
(570,596,ls),
(584,661,o),
(552,700,o),
(486,700,cs),
(178,700,ls),
(121,700,o),
(86,673,o),
(74,616,cs)
);
},
{
closed = 1;
nodes = (
(278,395,l),
(162,650,l),
(502,650,l)
);
},
{
closed = 1;
nodes = (
(298,350,l),
(522,605,l),
(414,95,l)
);
},
{
closed = 1;
nodes = (
(34,50,l),
(259,305,l),
(374,50,l)
);
},
{
closed = 1;
nodes = (
(122,605,l),
(238,350,l),
(14,95,l)
);
}
);
width = 500;
}
);
note = ".notdef";
},
{
glyphname = A;
kernLeft = A;
kernRight = A;
lastChange = "2022-11-29 13:10:53 +0000";
layers = (
{
hints = (
{
horizontal = 1;
place = (-56, 21);
target = up;
type = BottomGhost;
},
{
horizontal = 1;
place = (123, 84);
place = (123, 84);
type = Stem;
},
{
horizontal = 1;
place = (634, -20);
target = down;
type = TopGhost;
},
{
place = (-52, 662);
place = (-52, 662);
type = Stem;
},
{
horizontal = 1;
place = (475, 103);
place = (475, 103);
type = Stem;
}
);
layerId = m01;
shapes = (
{
closed = 1;
nodes = (
(450,179,l),
(462,76,ls),
(467,29,o),
(507,-9,o),
(556,-9,cs),
(616,-9,o),
(659,45,o),
(651,101,cs),
(576,603,ls),
(567,661,o),
(533,690,o),
(475,690,cs),
(418,690,ls),
(366,690,o),
(332,671,o),
(306,625,cs),
(13,114,ls),
(6,102,o),
(3,88,o),
(3,73,cs),
(3,28,o),
(39,-9,o),
(85,-9,cs),
(116,-9,o),
(143,9,o),
(157,34,cs),
(235,179,l)
);
},
{
closed = 1;
nodes = (
(418,531,l),
(436,319,l),
(308,319,l)
);
}
);
width = 707;
}
);
note = A;
unicode = 65;
},
{
glyphname = Aacute;
kernLeft = A;
kernRight = A;
lastChange = "2022-11-29 13:10:53 +0000";
layers = (
{
hints = (
{
horizontal = 1;
place = (-56, 21);
target = up;
type = BottomGhost;
},
{
horizontal = 1;
place = (123, 84);
place = (123, 84);
type = Stem;
},
{
horizontal = 1;
place = (634, -20);
target = down;
type = TopGhost;
},
{
horizontal = 1;
place = (679, 69);
place = (679, 69);
type = Stem;
},
{
place = (-52, 662);
place = (-52, 662);
type = Stem;
},
{
horizontal = 1;
place = (475, 103);
place = (475, 103);
type = Stem;
}
);
layerId = m01;
shapes = (
{
closed = 1;
nodes = (
(482,727,cs),
(570,801,o),
(563,868,o),
(563,868,cs),
(526,861,o),
(492,842,o),
(470,813,cs),
(444,778,o),
(481,726,o),
(481,726,c),
(481,726,o),
(481,726,o)
);
},
{
closed = 1;
nodes = (
(450,179,l),
(462,76,ls),
(467,29,o),
(507,-9,o),
(556,-9,cs),
(616,-9,o),
(659,45,o),
(651,101,cs),
(576,603,ls),
(567,661,o),
(533,690,o),
(475,690,cs),
(418,690,ls),
(366,690,o),
(332,671,o),
(306,625,cs),
(13,114,ls),
(6,102,o),
(3,88,o),
(3,73,cs),
(3,28,o),
(39,-9,o),
(85,-9,cs),
(116,-9,o),
(143,9,o),
(157,34,cs),
(235,179,l)
);
},
{
closed = 1;
nodes = (
(418,531,l),
(436,319,l),
(308,319,l)
);
}
);
width = 707;
}
);
note = Aacute;
unicode = 193;
},
{
glyphname = Abreve;
kernLeft = A;
kernRight = A;
lastChange = "2022-11-29 13:10:53 +0000";
layers = (
{
hints = (
{
horizontal = 1;
place = (-56, 21);
target = up;
type = BottomGhost;
},
{
horizontal = 1;
place = (123, 84);
place = (123, 84);
type = Stem;
},
{
horizontal = 1;
place = (634, -20);
target = down;
type = TopGhost;
},
{
horizontal = 1;
place = (672, 76);
place = (672, 76);
type = Stem;
},
{
place = (172, 34);
place = (172, 34);
type = Stem;
},
{
place = (352, 34);
place = (352, 34);
type = Stem;
},
{
horizontal = 1;
place = (475, 103);
place = (475, 103);
type = Stem;
}
);
layerId = m01;
shapes = (
{
closed = 1;
nodes = (
(516,728,o),
(571,748,o),
(603,807,cs),
(606,813,o),
(608,820,o),
(608,827,cs),
(608,851,o),
(589,870,o),
(565,870,cs),
(548,870,o),
(532,859,o),
(526,844,cs),
(517,822,o),
(501,813,o),
(479,813,cs),
(460,813,o),
(450,820,o),
(445,835,cs),
(439,855,o),
(421,870,o),
(398,870,cs),
(370,870,o),
(349,847,o),
(350,819,cs),
(353,750,o),
(402,728,o),
(461,728,cs)
);
},
{
closed = 1;
nodes = (
(450,179,l),
(462,76,ls),
(467,29,o),
(507,-9,o),
(556,-9,cs),
(616,-9,o),
(659,45,o),
(651,101,cs),
(576,603,ls),
(567,661,o),
(533,690,o),
(475,690,cs),
(418,690,ls),
(366,690,o),
(332,671,o),
(306,625,cs),
(13,114,ls),
(6,102,o),
(3,88,o),
(3,73,cs),
(3,28,o),
(39,-9,o),
(85,-9,cs),
(116,-9,o),
(143,9,o),
(157,34,cs),
(235,179,l)
);
},
{
closed = 1;
nodes = (
(418,531,l),
(436,319,l),
(308,319,l)
);
}
);
width = 707;
}
);
note = Abreve;
unicode = 258;
},
{
glyphname = Acircumflex;
kernLeft = A;
kernRight = A;
lastChange = "2022-11-29 13:10:53 +0000";
layers = (
{
hints = (
{
horizontal = 1;
place = (-56, 21);
target = up;
type = BottomGhost;
},
{
horizontal = 1;
place = (123, 84);
place = (123, 84);
type = Stem;
},
{
horizontal = 1;
place = (634, -20);
target = down;
type = TopGhost;
},
{
horizontal = 1;
place = (679, 69);
place = (679, 69);
type = Stem;
},
{
place = (-52, 662);
place = (-52, 662);
type = Stem;
},
{
horizontal = 1;
place = (475, 103);
place = (475, 103);
type = Stem;
}
);
layerId = m01;
shapes = (
{
closed = 1;
nodes = (
(437,745,cs),
(478,811,l),
(487,773,ls),
(493,748,o),
(506,735,o),
(526,735,cs),
(560,735,o),
(589,763,o),
(589,798,cs),
(589,832,o),
(560,860,o),
(526,860,cs),
(451,860,ls),
(405,860,o),
(365,826,o),
(360,780,cs),
(360,776,o),
(359,772,o),
(359,768,cs),
(359,745,o),
(378,726,o),
(401,726,cs),
(416,726,o),
(430,733,o)
);
},
{
closed = 1;
nodes = (
(450,179,l),
(462,76,ls),
(467,29,o),
(507,-9,o),
(556,-9,cs),
(616,-9,o),
(659,45,o),
(651,101,cs),
(576,603,ls),
(567,661,o),
(533,690,o),
(475,690,cs),
(418,690,ls),
(366,690,o),
(332,671,o),
(306,625,cs),
(13,114,ls),
(6,102,o),
(3,88,o),
(3,73,cs),
(3,28,o),
(39,-9,o),
(85,-9,cs),
(116,-9,o),
(143,9,o),
(157,34,cs),
(235,179,l)
);
},
{
closed = 1;
nodes = (
(418,531,l),
(436,319,l),
(308,319,l)
);
}
);
width = 707;
}
);
note = Acircumflex;
unicode = 194;
},
{
glyphname = Adieresis;
kernLeft = A;
kernRight = A;
lastChange = "2022-11-29 13:10:53 +0000";
layers = (
{
hints = (
{
horizontal = 1;
place = (-56, 21);
target = up;
type = BottomGhost;
},
{
horizontal = 1;
place = (123, 84);
place = (123, 84);
type = Stem;
},
{
horizontal = 1;
place = (634, -20);
target = down;
type = TopGhost;
},
{
horizontal = 1;
place = (666, 90);
place = (666, 90);
type = Stem;
},
{
place = (132, 94);
place = (132, 94);
type = Stem;
},
{
place = (332, 94);
place = (332, 94);
type = Stem;
},
{
horizontal = 1;
place = (475, 103);
place = (475, 103);
type = Stem;
}
);
layerId = m01;
shapes = (
{
closed = 1;
nodes = (
(450,179,l),
(462,76,ls),
(467,29,o),
(507,-9,o),
(556,-9,cs),
(616,-9,o),
(659,45,o),
(651,101,cs),
(576,603,ls),
(567,661,o),
(533,690,o),
(475,690,cs),
(418,690,ls),
(366,690,o),
(332,671,o),
(306,625,cs),
(13,114,ls),
(6,102,o),
(3,88,o),
(3,73,cs),
(3,28,o),
(39,-9,o),
(85,-9,cs),
(116,-9,o),
(143,9,o),
(157,34,cs),
(235,179,l)
);
},
{
closed = 1;
nodes = (
(418,531,l),
(436,319,l),
(308,319,l)
);
},
{
closed = 1;
nodes = (
(368,724,cs),
(414,724,o),
(442,745,o),
(451,790,cs),
(460,835,o),
(426,880,o),
(378,880,cs),
(366,880,o),
(354,876,o),
(344,871,cs),
(316,857,o),
(295,830,o),
(295,797,cs),
(295,757,o),
(328,724,o)
);
},
{
closed = 1;
nodes = (
(569,724,cs),
(615,724,o),
(643,745,o),
(652,790,cs),
(661,835,o),
(627,880,o),
(579,880,cs),
(567,880,o),
(556,877,o),
(546,872,cs),
(517,857,o),
(496,830,o),
(496,798,cs),
(496,757,o),
(529,724,o)
);
}
);
width = 707;
}
);
note = Adieresis;
unicode = 196;
},
{
glyphname = Agrave;
kernLeft = A;
kernRight = A;
lastChange = "2022-11-29 13:10:53 +0000";
layers = (
{
hints = (
{
horizontal = 1;
place = (-56, 21);
target = up;
type = BottomGhost;
},
{
horizontal = 1;
place = (123, 84);
place = (123, 84);
type = Stem;
},
{
horizontal = 1;
place = (634, -20);
target = down;
type = TopGhost;
},
{
horizontal = 1;
place = (679, 69);
place = (679, 69);
type = Stem;
},
{
place = (-52, 662);
place = (-52, 662);
type = Stem;
},
{
horizontal = 1;
place = (475, 103);
place = (475, 103);
type = Stem;
}
);
layerId = m01;
shapes = (
{
closed = 1;
nodes = (
(440,735,c),
(470,739,o),
(494,766,o),
(494,798,cs),
(494,829,o),
(470,856,o),
(440,860,c),
(406,860,o),
(378,832,o),
(378,797,cs),
(378,763,o),
(406,735,o)
);
},
{
closed = 1;
nodes = (
(450,179,l),
(462,76,ls),
(467,29,o),
(507,-9,o),
(556,-9,cs),
(616,-9,o),
(659,45,o),
(651,101,cs),
(576,603,ls),
(567,661,o),
(533,690,o),
(475,690,cs),
(418,690,ls),
(366,690,o),
(332,671,o),
(306,625,cs),
(13,114,ls),
(6,102,o),
(3,88,o),
(3,73,cs),
(3,28,o),
(39,-9,o),
(85,-9,cs),
(116,-9,o),
(143,9,o),
(157,34,cs),
(235,179,l)
);
},
{
closed = 1;
nodes = (
(418,531,l),
(436,319,l),
(308,319,l)
);
}
);
width = 707;
}
);
note = Agrave;
unicode = 192;
},
{
glyphname = Amacron;
kernLeft = A;
kernRight = A;
lastChange = "2022-11-29 13:10:53 +0000";
layers = (
{
hints = (
{
horizontal = 1;
place = (-56, 21);
target = up;
type = BottomGhost;
},
{
horizontal = 1;
place = (123, 84);
place = (123, 84);
type = Stem;
},
{
horizontal = 1;
place = (634, -20);
target = down;
type = TopGhost;
},
{
horizontal = 1;
place = (704, 40);
place = (704, 40);
type = Stem;
},
{
place = (157, 244);
place = (157, 244);
type = Stem;
},
{
horizontal = 1;
place = (475, 103);
place = (475, 103);
type = Stem;
}
);
layerId = m01;
shapes = (
{
closed = 1;
nodes = (
(589,760,ls),
(615,760,o),
(637,781,o),
(637,808,cs),
(637,835,o),
(615,856,o),
(589,856,cs),
(368,856,ls),
(342,856,o),
(320,835,o),
(320,808,cs),
(320,781,o),
(342,760,o),
(368,760,cs)
);
},
{
closed = 1;
nodes = (
(450,179,l),
(462,76,ls),
(467,29,o),
(507,-9,o),
(556,-9,cs),
(616,-9,o),
(659,45,o),
(651,101,cs),
(576,603,ls),
(567,661,o),
(533,690,o),
(475,690,cs),
(418,690,ls),
(366,690,o),
(332,671,o),
(306,625,cs),
(13,114,ls),
(6,102,o),
(3,88,o),
(3,73,cs),
(3,28,o),
(39,-9,o),
(85,-9,cs),
(116,-9,o),
(143,9,o),
(157,34,cs),
(235,179,l)
);
},
{
closed = 1;
nodes = (
(418,531,l),
(436,319,l),
(308,319,l)
);
}
);
width = 707;
}
);
note = Amacron;
unicode = 256;
},
{
glyphname = Aogonek;
kernLeft = A;
kernRight = A;
lastChange = "2022-11-29 13:10:53 +0000";
layers = (
{
hints = (
{
horizontal = 1;
place = (-279, 46);
place = (-279, 46);
type = Stem;
},
{
horizontal = 1;
place = (-56, 21);
target = up;
type = BottomGhost;
},
{
horizontal = 1;
place = (123, 84);
place = (123, 84);
type = Stem;
},
{
horizontal = 1;
place = (634, -20);
target = down;
type = TopGhost;
},
{
place = (384, 193);
place = (384, 193);
type = Stem;
},
{
horizontal = 1;
place = (475, 103);
place = (475, 103);
type = Stem;
},
{
place = (-52, 662);
place = (-52, 662);
type = Stem;
}
);
layerId = m01;
shapes = (
{
closed = 1;
nodes = (
(541,-34,o),
(565,-3,o),
(589,-8,cs),
(627,-16,o),
(664,17,o),
(658,57,cs),
(576,603,ls),
(567,661,o),
(533,690,o),
(475,690,cs),
(418,690,ls),
(366,690,o),
(332,671,o),
(306,625,cs),
(13,114,ls),
(6,102,o),
(3,88,o),
(3,73,cs),
(3,28,o),
(39,-9,o),
(85,-9,cs),
(116,-9,o),
(143,9,o),
(157,34,cs),
(235,179,l),
(450,179,l),
(470,4,l),
(419,-21,o),
(367,-78,o),
(355,-137,cs),
(341,-201,o),
(384,-223,o),
(450,-223,cs),
(508,-223,o),
(552,-206,o),
(592,-183,cs),
(602,-177,o),
(608,-166,o),
(608,-154,cs),
(608,-134,o),
(589,-117,o),
(570,-120,c),
(568,-121,o),
(565,-121,o),
(563,-121,cs),
(543,-121,o),
(525,-108,o),
(533,-70,cs)
);
},
{
closed = 1;
nodes = (
(418,531,l),
(436,319,l),
(308,319,l)
);
}
);
width = 707;
}
);
note = Aogonek;
unicode = 260;
},
{
glyphname = Aring;
kernLeft = A;
kernRight = A;
lastChange = "2022-11-29 13:10:53 +0000";
layers = (
{
hints = (
{
horizontal = 1;
place = (-56, 21);
target = up;
type = BottomGhost;
},
{
horizontal = 1;
place = (123, 84);
place = (123, 84);
type = Stem;
},
{
horizontal = 1;
place = (634, -20);
target = down;
type = TopGhost;
},
{
horizontal = 1;
place = (666, 10);
place = (666, 10);
type = Stem;
},
{
horizontal = 1;
place = (810, 10);
place = (810, 10);
type = Stem;
},
{
place = (188, 27);
place = (188, 27);
type = Stem;
},
{
place = (343, 27);
place = (343, 27);
type = Stem;
},
{
horizontal = 1;
place = (475, 103);
place = (475, 103);
type = Stem;
}
);
layerId = m01;
shapes = (
{
closed = 1;
nodes = (
(530,722,o),
(588,765,o),
(601,827,cs),
(615,889,o),
(575,932,o),
(505,932,cs),
(435,932,o),
(377,889,o),
(363,827,cs),
(350,765,o),
(390,722,o),
(460,722,cs)
);
},
{
closed = 1;
nodes = (
(512,866,o),
(523,850,o),
(518,827,cs),
(514,804,o),
(495,788,o),
(474,788,cs),
(453,788,o),
(442,804,o),
(446,827,cs),
(451,850,o),
(470,866,o),
(491,866,cs)
);
},
{
closed = 1;
nodes = (
(450,179,l),
(462,76,ls),
(467,29,o),
(507,-9,o),
(556,-9,cs),
(616,-9,o),
(659,45,o),
(651,101,cs),
(576,603,ls),
(567,661,o),
(533,690,o),
(475,690,cs),
(418,690,ls),
(366,690,o),
(332,671,o),
(306,625,cs),
(13,114,ls),
(6,102,o),
(3,88,o),
(3,73,cs),
(3,28,o),
(39,-9,o),
(85,-9,cs),
(116,-9,o),
(143,9,o),
(157,34,cs),
(235,179,l)
);
},
{
closed = 1;
nodes = (
(418,531,l),
(436,319,l),
(308,319,l)
);
}
);
width = 707;
}
);
note = Aring;
unicode = 197;
},
{
glyphname = Atilde;
kernLeft = A;
kernRight = A;
lastChange = "2022-11-29 13:10:53 +0000";
layers = (
{
hints = (
{
horizontal = 1;
place = (-56, 21);
target = up;
type = BottomGhost;
},
{
horizontal = 1;
place = (123, 84);
place = (123, 84);
type = Stem;
},
{
horizontal = 1;
place = (634, -20);
target = down;
type = TopGhost;
},
{
horizontal = 1;
place = (686, 78);
place = (686, 78);
type = Stem;
},
{
place = (143, 40);
place = (143, 40);
type = Stem;
},
{
place = (375, 40);
place = (375, 40);
type = Stem;
},
{
horizontal = 1;
place = (683, 78);
place = (683, 78);
type = Stem;
},
{
horizontal = 1;
place = (475, 103);
place = (475, 103);
type = Stem;
}
);
layerId = m01;
shapes = (
{
closed = 1;
nodes = (
(426,773,o),
(438,768,o),
(460,758,cs),
(493,742,o),
(509,739,o),
(538,739,cs),
(586,739,o),
(618,763,o),
(639,821,cs),
(641,826,o),
(642,831,o),
(642,837,cs),
(642,862,o),
(622,882,o),
(597,882,cs),
(577,882,o),
(561,870,o),
(554,854,cs),
(550,845,o),
(545,842,o),
(539,842,cs),
(531,842,o),
(518,846,o),
(497,857,cs),
(464,873,o),
(448,876,o),
(419,876,cs),
(372,876,o),
(339,852,o),
(317,795,cs),
(315,790,o),
(314,785,o),
(314,779,cs),
(314,753,o),
(335,733,o),
(360,733,cs),
(379,733,o),
(396,745,o),
(403,761,cs),
(407,770,o),
(411,773,o),
(418,773,cs)
);
},
{
closed = 1;
nodes = (
(450,179,l),
(462,76,ls),
(467,29,o),
(507,-9,o),
(556,-9,cs),
(616,-9,o),
(659,45,o),
(651,101,cs),
(576,603,ls),
(567,661,o),
(533,690,o),
(475,690,cs),
(418,690,ls),
(366,690,o),
(332,671,o),
(306,625,cs),
(13,114,ls),
(6,102,o),
(3,88,o),
(3,73,cs),
(3,28,o),
(39,-9,o),
(85,-9,cs),
(116,-9,o),
(143,9,o),
(157,34,cs),
(235,179,l)
);
},
{
closed = 1;
nodes = (
(418,531,l),
(436,319,l),
(308,319,l)
);
}
);
width = 707;
}
);
note = Atilde;
unicode = 195;
},
{
glyphname = AE;
lastChange = "2022-11-29 13:10:53 +0000";
layers = (
{
hints = (
{
horizontal = 1;
place = (-56, 84);
place = (-56, 84);
type = Stem;
},
{
horizontal = 1;
place = (220, 84);
place = (220, 84);
type = Stem;
},
{
horizontal = 1;
place = (494, 84);
place = (494, 84);
type = Stem;
},
{
place = (-98, 952);
place = (-98, 952);
type = Stem;
},
{
horizontal = 1;
place = (153, 84);
place = (153, 84);
type = Stem;
}
);
layerId = m01;
shapes = (
{
closed = 1;
nodes = (
(862,140,cs),
(607,140,l),
(620,276,l),
(891,276,ls),
(929,276,o),
(961,307,o),
(961,346,cs),
(961,385,o),
(929,416,o),
(891,416,cs),
(634,416,l),
(648,560,l),
(650,555,ls),
(651,552,o),
(678,550,o),
(732,550,cs),
(969,550,ls),
(1007,550,o),
(1039,581,o),
(1039,620,cs),
(1039,659,o),
(1007,690,o),
(969,690,cs),
(479,690,ls),
(429,690,o),
(394,673,o),
(364,632,cs),
(-15,113,ls),
(-24,100,o),
(-30,85,o),
(-30,68,cs),
(-30,25,o),
(4,-9,o),
(46,-9,cs),
(73,-9,o),
(96,4,o),
(110,24,cs),
(236,209,l),
(434,209,l),
(423,99,ls),
(417,35,o),
(451,0,o),
(514,0,cs),
(862,0,ls),
(900,0,o),
(932,31,o),
(932,70,cs),
(932,109,o),
(900,140,o)
);
},
{
closed = 1;
nodes = (
(448,349,l),
(333,349,l),
(466,543,l)
);
}
);
width = 996;
}
);
note = AE;
unicode = 198;
},
{
glyphname = B;
lastChange = "2022-11-29 13:10:53 +0000";
layers = (
{
hints = (
{
horizontal = 1;
place = (-56, 84);
place = (-56, 84);
type = Stem;
},
{
horizontal = 1;
place = (232, 74);
place = (232, 74);
type = Stem;
},
{
horizontal = 1;
place = (494, 84);
place = (494, 84);
type = Stem;
},
{
place = (24, 124);
place = (24, 124);
type = Stem;
},
{
place = (411, 132);
place = (411, 132);
type = Stem;
},
{
place = (385, 132);
place = (385, 132);
type = Stem;
}
);
layerId = m01;
shapes = (
{
closed = 1;
nodes = (
(624,399,o),
(668,447,o),
(681,510,cs),
(700,600,o),
(652,672,o),
(540,686,cs),
(506,690,o),
(490,690,o),
(453,690,cs),
(256,690,ls),
(199,690,o),
(164,663,o),
(152,606,cs),
(46,104,ls),
(32,39,o),
(64,0,o),
(130,0,cs),
(299,0,ls),
(343,0,o),
(366,0,o),
(402,4,cs),
(497,15,o),
(615,79,o),
(643,208,cs),
(661,292,o),
(633,350,o),
(551,375,c)
);
},
{
closed = 1;
nodes = (
(321,550,l),
(402,550,ls),
(418,550,o),
(433,549,o),
(446,547,cs),
(479,542,o),
(496,523,o),
(488,484,cs),
(479,443,o),
(452,426,o),
(418,421,cs),
(405,419,o),
(390,418,o),
(374,418,cs),
(293,418,l)
);
},
{
closed = 1;
nodes = (
(362,140,o),
(346,140,o),
(330,140,cs),
(233,140,l),
(265,288,l),
(357,288,ls),
(373,288,o),
(389,288,o),
(402,287,cs),
(438,284,o),
(466,260,o),
(456,214,cs),
(447,169,o),
(408,143,o),
(376,141,cs)
);
}
);
width = 681;
}
);
note = B;
unicode = 66;
},
{
glyphname = C;
kernLeft = C;
kernRight = C;
lastChange = "2022-11-29 13:10:53 +0000";
layers = (
{
hints = (
{
horizontal = 1;
place = (-70, 76);
place = (-70, 76);
type = Stem;
},
{
horizontal = 1;
place = (516, 76);
place = (516, 76);
type = Stem;
},
{
place = (-2, 132);
place = (-2, 132);
type = Stem;
}
);
layerId = m01;
shapes = (
{
closed = 1;
nodes = (
(301,704,o),
(121,580,o),
(70,340,cs),
(20,106,o),
(144,-14,o),
(329,-14,cs),
(477,-14,o),
(604,48,o),
(670,169,cs),
(695,215,o),
(692,262,o),
(646,286,cs),
(628,295,o),
(608,300,o),
(586,300,cs),
(567,300,o),
(556,290,o),
(546,276,cs),
(526,247,o),
(515,222,o),
(490,185,cs),
(458,142,o),
(415,118,o),
(363,118,cs),
(283,118,o),
(223,177,o),
(260,351,cs),
(292,500,o),
(372,572,o),
(458,572,cs),
(505,572,o),
(538,557,o),
(555,527,cs),
(578,483,o),
(577,442,o),
(621,425,cs),
(634,421,o),
(647,418,o),
(662,418,cs),
(680,418,o),
(696,423,o),
(710,431,cs),
(742,449,o),
(755,482,o),
(748,529,cs),
(734,632,o),
(651,704,o),
(488,704,cs)
);
}
);
width = 734;
}
);
note = C;
unicode = 67;
},
{
glyphname = Cacute;
kernLeft = C;
kernRight = C;
lastChange = "2022-11-29 13:10:53 +0000";
layers = (
{
hints = (
{
horizontal = 1;
place = (-70, 76);
place = (-70, 76);
type = Stem;
},
{
horizontal = 1;
place = (516, 76);
place = (516, 76);
type = Stem;
},
{
horizontal = 1;
place = (679, 69);
place = (679, 69);
type = Stem;
},
{
place = (-2, 132);
place = (-2, 132);
type = Stem;
}
);
layerId = m01;
shapes = (
{
closed = 1;
nodes = (
(503,727,cs),
(591,801,o),
(584,868,o),
(584,868,cs),
(547,861,o),
(513,842,o),
(491,813,cs),
(465,778,o),
(502,726,o),
(502,726,c),
(502,726,o),
(502,726,o)
);
},
{
closed = 1;
nodes = (
(301,704,o),
(121,580,o),
(70,340,cs),
(20,106,o),
(144,-14,o),
(329,-14,cs),
(477,-14,o),
(604,48,o),
(670,169,cs),
(695,215,o),
(692,262,o),
(646,286,cs),
(628,295,o),
(608,300,o),
(586,300,cs),
(567,300,o),
(556,290,o),
(546,276,cs),
(526,247,o),
(515,222,o),
(490,185,cs),
(458,142,o),
(415,118,o),
(363,118,cs),
(283,118,o),
(223,177,o),
(260,351,cs),
(292,500,o),
(372,572,o),
(458,572,cs),
(505,572,o),
(538,557,o),
(555,527,cs),
(578,483,o),
(577,442,o),
(621,425,cs),
(634,421,o),
(647,418,o),
(662,418,cs),
(680,418,o),
(696,423,o),
(710,431,cs),
(742,449,o),
(755,482,o),
(748,529,cs),
(734,632,o),
(651,704,o),
(488,704,cs)
);
}
);
width = 734;
}
);
note = Cacute;
unicode = 262;
},
{
glyphname = Ccaron;
kernLeft = C;
kernRight = C;
lastChange = "2022-11-29 13:10:53 +0000";
layers = (
{
hints = (
{
horizontal = 1;
place = (-70, 76);
place = (-70, 76);
type = Stem;
},
{
horizontal = 1;
place = (516, 76);
place = (516, 76);
type = Stem;
},
{
horizontal = 1;
place = (679, 69);
place = (679, 69);
type = Stem;
},
{
place = (-2, 132);
place = (-2, 132);
type = Stem;
}
);
layerId = m01;
shapes = (
{
closed = 1;
nodes = (
(448,735,cs),
(523,735,ls),
(569,735,o),
(609,769,o),
(614,815,cs),
(614,819,o),
(615,823,o),
(615,827,cs),
(615,850,o),
(596,869,o),
(573,869,cs),
(558,869,o),
(544,862,o),
(537,850,cs),
(496,784,l),
(487,822,ls),
(481,847,o),
(468,860,o),
(448,860,cs),
(414,860,o),
(385,832,o),
(385,797,cs),
(385,763,o),
(414,735,o)
);
},
{
closed = 1;
nodes = (
(555,286,cs),
(523,253,o),
(515,222,o),
(490,185,cs),
(458,142,o),
(415,118,o),
(363,118,cs),
(283,118,o),
(223,177,o),
(260,351,cs),
(292,500,o),
(372,572,o),
(458,572,cs),
(505,572,o),
(538,557,o),
(555,527,cs),
(578,483,o),
(577,442,o),
(621,425,cs),
(634,421,o),
(647,418,o),
(662,418,cs),
(680,418,o),
(696,423,o),
(710,431,cs),
(742,449,o),
(755,482,o),
(748,529,cs),
(734,632,o),
(651,704,o),
(488,704,cs),
(301,704,o),
(121,580,o),
(70,340,cs),
(20,106,o),
(144,-14,o),
(329,-14,cs),
(477,-14,o),
(604,48,o),
(670,169,cs),
(695,215,o),
(692,262,o),
(646,286,cs),
(628,295,o),
(608,300,o),
(586,300,cs),
(573,300,o),
(563,295,o)
);
}
);
width = 734;
}
);
note = Ccaron;
unicode = 268;
},
{
glyphname = Ccedilla;
kernLeft = C;
kernRight = C;
lastChange = "2022-11-29 13:10:53 +0000";
layers = (
{
hints = (
{
horizontal = 1;
place = (-266, 13);
place = (-266, 13);
type = Stem;
},
{
horizontal = 1;
place = (-65, 21);
target = up;
type = BottomGhost;
},
{
horizontal = 1;
place = (516, 76);
place = (516, 76);
type = Stem;
},
{
place = (-2, 132);
place = (-2, 132);
type = Stem;
},
{
place = (328, 52);
place = (328, 52);
type = Stem;
}
);
layerId = m01;
shapes = (
{
closed = 1;
nodes = (
(555,286,cs),
(523,253,o),
(515,222,o),
(490,185,cs),
(458,142,o),
(415,118,o),
(363,118,cs),
(283,118,o),
(223,177,o),
(260,351,cs),
(292,500,o),
(372,572,o),
(458,572,cs),
(505,572,o),
(538,557,o),
(555,527,cs),
(578,483,o),
(577,442,o),
(621,425,cs),
(634,421,o),
(647,418,o),
(662,418,cs),
(680,418,o),
(696,423,o),
(710,431,cs),
(742,449,o),
(755,482,o),
(748,529,cs),
(734,632,o),
(651,704,o),
(488,704,cs),
(301,704,o),
(121,580,o),
(70,340,cs),
(26,133,o),
(117,15,o),
(267,-9,c),
(240,-49,ls),
(223,-73,o),
(303,-114,o),
(303,-114,cs),
(300,-132,o),
(281,-141,o),
(238,-141,cs),
(231,-141,o),
(221,-141,o),
(210,-139,cs),
(191,-137,o),
(179,-146,o),
(174,-169,cs),
(169,-192,o),
(222,-210,o),
(222,-210,cs),
(314,-210,o),
(396,-188,o),
(410,-119,cs),
(420,-74,o),
(393,-49,o),
(332,-42,c),
(352,-13,l),
(489,-7,o),
(607,54,o),
(670,169,cs),
(695,215,o),
(692,262,o),
(646,286,cs),
(628,295,o),
(608,300,o),
(586,300,cs),
(573,300,o),
(563,295,o)
);
}
);
width = 734;
}
);
note = Ccedilla;
unicode = 199;
},
{
glyphname = Cdotaccent;
kernLeft = C;
kernRight = C;
lastChange = "2022-11-29 13:10:53 +0000";
layers = (
{
hints = (
{
horizontal = 1;
place = (-70, 76);
place = (-70, 76);
type = Stem;
},
{
horizontal = 1;
place = (516, 76);
place = (516, 76);
type = Stem;
},
{
horizontal = 1;
place = (669, 120);
place = (669, 120);
type = Stem;
},
{
place = (-2, 132);
place = (-2, 132);
type = Stem;
},
{
place = (235, 130);
place = (235, 130);
type = Stem;
}
);
layerId = m01;
shapes = (
{
closed = 1;
nodes = (
(463,901,o),
(419,867,o),
(407,813,cs),
(396,759,o),
(426,725,o),
(482,725,cs),
(538,725,o),
(582,759,o),
(593,813,cs),
(605,867,o),
(575,901,o),
(519,901,cs)
);
},
{
closed = 1;
nodes = (
(301,704,o),
(121,580,o),
(70,340,cs),
(20,106,o),
(144,-14,o),
(329,-14,cs),
(477,-14,o),
(604,48,o),
(670,169,cs),
(695,215,o),
(692,262,o),
(646,286,cs),
(628,295,o),
(608,300,o),
(586,300,cs),
(567,300,o),
(556,290,o),
(546,276,cs),
(526,247,o),
(515,222,o),
(490,185,cs),
(458,142,o),
(415,118,o),
(363,118,cs),
(283,118,o),
(223,177,o),
(260,351,cs),
(292,500,o),
(372,572,o),
(458,572,cs),
(505,572,o),
(538,557,o),
(555,527,cs),
(578,483,o),
(577,442,o),
(621,425,cs),
(634,421,o),
(647,418,o),
(662,418,cs),
(680,418,o),
(696,423,o),
(710,431,cs),
(742,449,o),
(755,482,o),
(748,529,cs),
(734,632,o),
(651,704,o),
(488,704,cs)
);
}
);
width = 734;
}
);
note = Cdotaccent;
unicode = 266;
},
{
glyphname = D;
kernRight = D;
lastChange = "2022-11-29 13:10:53 +0000";
layers = (
{
hints = (
{
horizontal = 1;
place = (-56, 84);
place = (-56, 84);
type = Stem;
},
{
horizontal = 1;
place = (494, 84);
place = (494, 84);
type = Stem;
},
{
place = (24, 124);
place = (24, 124);
type = Stem;
},
{
place = (477, 132);
place = (477, 132);
type = Stem;
}
);
layerId = m01;
shapes = (
{
closed = 1;
nodes = (
(484,690,o),
(468,690,o),
(431,690,cs),
(256,690,ls),
(199,690,o),
(164,663,o),
(152,606,cs),
(46,104,ls),
(32,39,o),
(64,0,o),
(130,0,cs),
(285,0,ls),
(322,0,o),
(338,0,o),
(374,4,cs),
(537,22,o),
(694,138,o),
(740,354,cs),
(786,570,o),
(675,668,o),
(518,686,cs)
);
},
{
closed = 1;
nodes = (
(331,140,o),
(315,140,o),
(289,140,cs),
(233,140,l),
(321,550,l),
(377,550,ls),
(403,550,o),
(419,550,o),
(441,548,cs),
(529,540,o),
(577,474,o),
(551,351,cs),
(525,228,o),
(447,150,o),
(355,142,cs)
);
}
);
width = 749;
}
);
note = D;
unicode = 68;
},
{
glyphname = Eth;
kernRight = D;
lastChange = "2022-11-29 13:10:53 +0000";
layers = (
{
hints = (
{
horizontal = 1;
place = (-56, 84);
place = (-56, 84);
type = Stem;
},
{
horizontal = 1;
place = (237, 40);
place = (237, 40);
type = Stem;
},
{
horizontal = 1;
place = (494, 84);
place = (494, 84);
type = Stem;
},
{
place = (34, 124);
place = (34, 124);
type = Stem;
},
{
place = (487, 132);
place = (487, 132);
type = Stem;
}
);
layerId = m01;
shapes = (
{
closed = 1;
nodes = (
(494,690,o),
(478,690,o),
(441,690,cs),
(266,690,ls),
(209,690,o),
(174,663,o),
(162,606,cs),
(116,389,l),
(87,389,ls),
(61,389,o),
(39,368,o),
(39,341,cs),
(39,314,o),
(61,293,o),
(87,293,cs),
(96,293,l),
(56,104,ls),
(42,39,o),
(74,0,o),
(140,0,cs),
(295,0,ls),
(332,0,o),
(348,0,o),
(384,4,cs),
(547,22,o),
(704,138,o),
(750,354,cs),
(796,570,o),
(685,668,o),
(528,686,cs)
);
},
{
closed = 1;
nodes = (
(341,140,o),
(325,140,o),
(299,140,cs),
(243,140,l),
(276,293,l),
(348,293,ls),
(374,293,o),
(396,314,o),
(396,341,cs),
(396,368,o),
(374,389,o),
(348,389,cs),
(296,389,l),
(331,550,l),
(387,550,ls),
(413,550,o),
(429,550,o),
(451,548,cs),
(539,540,o),
(587,474,o),
(561,351,cs),
(535,228,o),
(457,150,o),
(365,142,cs)
);
}
);
width = 759;
}
);
note = Eth;
unicode = 208;
},
{
glyphname = Dcaron;
kernRight = D;
lastChange = "2022-11-29 13:10:53 +0000";
layers = (
{
hints = (
{
horizontal = 1;
place = (-56, 84);
place = (-56, 84);
type = Stem;
},
{
horizontal = 1;
place = (494, 84);
place = (494, 84);
type = Stem;
},
{
horizontal = 1;
place = (679, 69);
place = (679, 69);
type = Stem;
},
{
place = (24, 124);
place = (24, 124);
type = Stem;
},
{
place = (477, 132);
place = (477, 132);
type = Stem;
}
);
layerId = m01;
shapes = (
{
closed = 1;
nodes = (
(449,735,cs),
(524,735,ls),
(570,735,o),
(610,769,o),
(615,815,cs),
(615,819,o),
(616,823,o),
(616,827,cs),
(616,850,o),
(597,869,o),
(574,869,cs),
(559,869,o),
(545,862,o),
(538,850,cs),
(497,784,l),
(488,822,ls),
(482,847,o),
(469,860,o),
(449,860,cs),
(415,860,o),
(386,832,o),
(386,797,cs),
(386,763,o),
(415,735,o)
);
},
{
closed = 1;
nodes = (
(484,690,o),
(468,690,o),
(431,690,cs),
(256,690,ls),
(199,690,o),
(164,663,o),
(152,606,cs),
(46,104,ls),
(32,39,o),
(64,0,o),
(130,0,cs),
(285,0,ls),
(322,0,o),
(338,0,o),
(374,4,cs),
(537,22,o),
(694,138,o),
(740,354,cs),
(786,570,o),
(675,668,o),
(518,686,cs)
);
},
{
closed = 1;
nodes = (
(331,140,o),
(315,140,o),
(289,140,cs),
(233,140,l),
(321,550,l),
(377,550,ls),
(403,550,o),
(419,550,o),
(441,548,cs),
(529,540,o),
(577,474,o),
(551,351,cs),
(525,228,o),
(447,150,o),
(355,142,cs)
);
}
);
width = 749;
}
);
note = Dcaron;
unicode = 270;
},
{
glyphname = Dcroat;
kernRight = D;
lastChange = "2022-11-29 13:10:53 +0000";
layers = (
{
hints = (
{
horizontal = 1;
place = (-56, 84);
place = (-56, 84);
type = Stem;
},
{
horizontal = 1;
place = (237, 40);
place = (237, 40);
type = Stem;
},
{
horizontal = 1;
place = (494, 84);
place = (494, 84);
type = Stem;
},
{
place = (34, 124);
place = (34, 124);
type = Stem;
},
{
place = (487, 132);
place = (487, 132);
type = Stem;
}
);
layerId = m01;
shapes = (
{
closed = 1;
nodes = (
(494,690,o),
(478,690,o),
(441,690,cs),
(266,690,ls),
(209,690,o),
(174,663,o),
(162,606,cs),
(116,389,l),
(87,389,ls),
(61,389,o),
(39,368,o),
(39,341,cs),
(39,314,o),
(61,293,o),
(87,293,cs),
(96,293,l),
(56,104,ls),
(42,39,o),
(74,0,o),
(140,0,cs),
(295,0,ls),
(332,0,o),
(348,0,o),
(384,4,cs),
(547,22,o),
(704,138,o),
(750,354,cs),
(796,570,o),
(685,668,o),
(528,686,cs)
);
},
{
closed = 1;
nodes = (
(341,140,o),
(325,140,o),
(299,140,cs),
(243,140,l),
(276,293,l),
(348,293,ls),
(374,293,o),
(396,314,o),
(396,341,cs),
(396,368,o),
(374,389,o),
(348,389,cs),
(296,389,l),
(331,550,l),
(387,550,ls),
(413,550,o),
(429,550,o),
(451,548,cs),
(539,540,o),
(587,474,o),
(561,351,cs),
(535,228,o),
(457,150,o),
(365,142,cs)
);
}
);
width = 759;
}
);
note = Dcroat;
unicode = 272;
},
{
glyphname = E;
lastChange = "2022-11-29 13:10:53 +0000";
layers = (
{
hints = (
{
horizontal = 1;
place = (-56, 84);
place = (-56, 84);
type = Stem;
},
{
horizontal = 1;
place = (220, 84);
place = (220, 84);
type = Stem;
},
{
horizontal = 1;
place = (494, 84);
place = (494, 84);
type = Stem;
},
{
place = (24, 124);
place = (24, 124);
type = Stem;
}
);
layerId = m01;
shapes = (
{
closed = 1;
nodes = (
(505,140,cs),
(340,140,ls),
(274,140,o),
(239,165,o),
(248,208,cs),
(258,253,o),
(291,276,o),
(348,276,cs),
(534,276,ls),
(572,276,o),
(604,307,o),
(604,346,cs),
(604,385,o),
(572,416,o),
(534,416,cs),
(399,416,ls),
(333,416,o),
(298,442,o),
(307,483,cs),
(317,528,o),
(350,550,o),
(407,550,cs),
(612,550,ls),
(650,550,o),
(682,581,o),
(682,620,cs),
(682,659,o),
(650,690,o),
(612,690,cs),
(256,690,ls),
(199,690,o),
(164,663,o),
(152,606,cs),
(46,104,ls),
(32,39,o),
(64,0,o),
(130,0,cs),
(505,0,ls),
(543,0,o),
(575,31,o),
(575,70,cs),
(575,109,o),
(543,140,o)
);
}
);
width = 639;
}
);
note = E;
unicode = 69;
},
{
glyphname = Eacute;
lastChange = "2022-11-29 13:10:53 +0000";
layers = (
{
hints = (
{
horizontal = 1;
place = (-56, 84);
place = (-56, 84);
type = Stem;
},
{
horizontal = 1;
place = (220, 84);
place = (220, 84);
type = Stem;
},
{
horizontal = 1;
place = (494, 84);
place = (494, 84);
type = Stem;
},
{
horizontal = 1;
place = (679, 69);
place = (679, 69);
type = Stem;
},
{
place = (24, 124);
place = (24, 124);
type = Stem;
}
);
layerId = m01;
shapes = (
{
closed = 1;
nodes = (
(459,727,cs),
(547,801,o),
(540,868,o),
(540,868,cs),
(503,861,o),
(469,842,o),
(447,813,cs),
(421,778,o),
(458,726,o),
(458,726,c),
(458,726,o),
(458,726,o)
);
},
{
closed = 1;
nodes = (
(505,140,cs),
(233,140,l),
(262,276,l),
(534,276,ls),
(572,276,o),
(604,307,o),
(604,346,cs),
(604,385,o),
(572,416,o),
(534,416,cs),
(292,416,l),
(321,550,l),
(612,550,ls),
(650,550,o),
(682,581,o),
(682,620,cs),
(682,659,o),
(650,690,o),
(612,690,cs),
(256,690,ls),
(199,690,o),
(164,663,o),
(152,606,cs),
(46,104,ls),
(32,39,o),
(64,0,o),
(130,0,cs),
(505,0,ls),
(543,0,o),
(575,31,o),
(575,70,cs),
(575,109,o),
(543,140,o)
);
}
);
width = 639;
}
);
note = Eacute;
unicode = 201;
},
{
glyphname = Ecaron;
lastChange = "2022-11-29 13:10:53 +0000";
layers = (
{
hints = (
{
horizontal = 1;
place = (-56, 84);
place = (-56, 84);
type = Stem;
},
{
horizontal = 1;
place = (220, 84);
place = (220, 84);
type = Stem;
},
{
horizontal = 1;
place = (494, 84);
place = (494, 84);
type = Stem;
},
{
horizontal = 1;
place = (679, 69);
place = (679, 69);
type = Stem;
},
{
place = (24, 124);
place = (24, 124);
type = Stem;
}
);
layerId = m01;
shapes = (
{
closed = 1;
nodes = (
(404,735,cs),
(479,735,ls),
(525,735,o),
(565,769,o),
(570,815,cs),
(570,819,o),
(571,823,o),
(571,827,cs),
(571,850,o),
(552,869,o),
(529,869,cs),
(514,869,o),
(500,862,o),
(493,850,cs),
(452,784,l),
(443,822,ls),
(437,847,o),
(424,860,o),
(404,860,cs),
(370,860,o),
(341,832,o),
(341,797,cs),
(341,763,o),
(370,735,o)
);
},
{
closed = 1;
nodes = (
(505,140,cs),
(233,140,l),
(262,276,l),
(534,276,ls),
(572,276,o),
(604,307,o),
(604,346,cs),
(604,385,o),
(572,416,o),
(534,416,cs),
(292,416,l),
(321,550,l),
(612,550,ls),
(650,550,o),
(682,581,o),
(682,620,cs),
(682,659,o),
(650,690,o),
(612,690,cs),
(256,690,ls),
(199,690,o),
(164,663,o),
(152,606,cs),
(46,104,ls),
(32,39,o),
(64,0,o),
(130,0,cs),
(505,0,ls),
(543,0,o),
(575,31,o),
(575,70,cs),
(575,109,o),
(543,140,o)
);
}
);
width = 639;
}
);
note = Ecaron;
unicode = 282;
},
{
glyphname = Ecircumflex;
lastChange = "2022-11-29 13:10:53 +0000";
layers = (
{
hints = (
{
horizontal = 1;
place = (-56, 84);
place = (-56, 84);
type = Stem;
},
{
horizontal = 1;
place = (220, 84);
place = (220, 84);
type = Stem;
},
{
horizontal = 1;
place = (494, 84);
place = (494, 84);
type = Stem;
},
{
horizontal = 1;
place = (679, 69);
place = (679, 69);
type = Stem;
},
{
place = (24, 124);
place = (24, 124);
type = Stem;
}
);
layerId = m01;
shapes = (
{
closed = 1;
nodes = (
(414,745,cs),
(455,811,l),
(464,773,ls),
(470,748,o),
(483,735,o),
(503,735,cs),
(537,735,o),
(566,763,o),
(566,798,cs),
(566,832,o),
(537,860,o),
(503,860,cs),
(428,860,ls),
(382,860,o),
(342,826,o),
(337,780,cs),
(337,776,o),
(336,772,o),
(336,768,cs),
(336,745,o),
(355,726,o),
(378,726,cs),
(393,726,o),
(407,733,o)
);
},
{
closed = 1;
nodes = (
(505,140,cs),
(233,140,l),
(262,276,l),
(534,276,ls),
(572,276,o),
(604,307,o),
(604,346,cs),
(604,385,o),
(572,416,o),
(534,416,cs),
(292,416,l),
(321,550,l),
(612,550,ls),
(650,550,o),
(682,581,o),
(682,620,cs),
(682,659,o),
(650,690,o),
(612,690,cs),
(256,690,ls),
(199,690,o),
(164,663,o),
(152,606,cs),
(46,104,ls),
(32,39,o),
(64,0,o),
(130,0,cs),
(505,0,ls),
(543,0,o),
(575,31,o),
(575,70,cs),
(575,109,o),
(543,140,o)
);
}
);
width = 639;
}
);
note = Ecircumflex;
unicode = 202;
},
{
glyphname = Edieresis;
lastChange = "2022-11-29 13:10:53 +0000";
layers = (
{
hints = (
{
horizontal = 1;
place = (-56, 84);
place = (-56, 84);
type = Stem;
},
{
horizontal = 1;
place = (220, 84);
place = (220, 84);
type = Stem;
},
{
horizontal = 1;
place = (494, 84);
place = (494, 84);
type = Stem;
},
{
horizontal = 1;
place = (666, 90);
place = (666, 90);
type = Stem;
},
{
place = (109, 94);
place = (109, 94);
type = Stem;
},
{
place = (309, 94);
place = (309, 94);
type = Stem;
},
{
place = (24, 124);
place = (24, 124);
type = Stem;
}
);
layerId = m01;
shapes = (
{
closed = 1;
nodes = (
(505,140,cs),
(233,140,l),
(262,276,l),
(534,276,ls),
(572,276,o),
(604,307,o),
(604,346,cs),
(604,385,o),
(572,416,o),
(534,416,cs),
(292,416,l),
(321,550,l),
(612,550,ls),
(650,550,o),
(682,581,o),
(682,620,cs),
(682,659,o),
(650,690,o),
(612,690,cs),
(256,690,ls),
(199,690,o),
(164,663,o),
(152,606,cs),
(46,104,ls),
(32,39,o),
(64,0,o),
(130,0,cs),
(505,0,ls),
(543,0,o),
(575,31,o),
(575,70,cs),
(575,109,o),
(543,140,o)
);
},
{
closed = 1;
nodes = (
(342,722,cs),
(388,722,o),
(416,743,o),
(425,788,cs),
(434,833,o),
(400,878,o),
(352,878,cs),
(340,878,o),
(329,875,o),
(319,870,cs),
(290,855,o),
(269,828,o),
(269,796,cs),
(269,755,o),
(302,722,o)
);
},
{
closed = 1;
nodes = (
(543,722,cs),
(589,722,o),
(617,743,o),
(626,788,cs),
(635,833,o),
(601,878,o),
(553,878,cs),
(541,878,o),
(529,874,o),
(519,869,cs),
(491,855,o),
(470,828,o),
(470,795,cs),
(470,755,o),
(503,722,o)
);
}
);
width = 639;
}
);
note = Edieresis;
unicode = 203;
},
{
glyphname = Edotaccent;
lastChange = "2022-11-29 13:10:53 +0000";
layers = (
{
hints = (
{
horizontal = 1;
place = (-56, 84);
place = (-56, 84);
type = Stem;
},
{
horizontal = 1;
place = (220, 84);
place = (220, 84);
type = Stem;
},
{
horizontal = 1;
place = (494, 84);
place = (494, 84);
type = Stem;
},
{
horizontal = 1;
place = (669, 120);
place = (669, 120);
type = Stem;
},
{
place = (191, 130);
place = (191, 130);
type = Stem;
},
{
place = (24, 124);
place = (24, 124);
type = Stem;
}
);
layerId = m01;
shapes = (
{
closed = 1;
nodes = (
(494,725,o),
(538,759,o),
(549,813,cs),
(561,867,o),
(531,901,o),
(475,901,cs),
(419,901,o),
(375,867,o),
(363,813,cs),
(352,759,o),
(382,725,o),
(438,725,cs)
);
},
{
closed = 1;
nodes = (
(505,140,cs),
(233,140,l),
(262,276,l),
(534,276,ls),
(572,276,o),
(604,307,o),
(604,346,cs),
(604,385,o),
(572,416,o),
(534,416,cs),
(292,416,l),
(321,550,l),
(612,550,ls),
(650,550,o),
(682,581,o),
(682,620,cs),
(682,659,o),
(650,690,o),
(612,690,cs),
(256,690,ls),
(199,690,o),
(164,663,o),
(152,606,cs),
(46,104,ls),
(32,39,o),
(64,0,o),
(130,0,cs),
(505,0,ls),
(543,0,o),
(575,31,o),
(575,70,cs),
(575,109,o),
(543,140,o)
);
}
);
width = 639;
}
);
note = Edotaccent;
unicode = 278;
},
{
glyphname = Egrave;
lastChange = "2022-11-29 13:10:53 +0000";
layers = (
{
hints = (
{
horizontal = 1;
place = (-56, 84);
place = (-56, 84);
type = Stem;
},
{
horizontal = 1;
place = (220, 84);
place = (220, 84);
type = Stem;
},
{
horizontal = 1;
place = (494, 84);
place = (494, 84);
type = Stem;
},
{
horizontal = 1;
place = (679, 69);
place = (679, 69);
type = Stem;
},
{
place = (24, 124);
place = (24, 124);
type = Stem;
}
);
layerId = m01;
shapes = (
{
closed = 1;
nodes = (
(417,735,c),
(447,739,o),
(471,766,o),
(471,798,cs),
(471,829,o),
(447,856,o),
(417,860,c),
(383,860,o),
(355,832,o),
(355,797,cs),
(355,763,o),
(383,735,o)
);
},
{
closed = 1;
nodes = (
(505,140,cs),
(233,140,l),
(262,276,l),
(534,276,ls),
(572,276,o),
(604,307,o),
(604,346,cs),
(604,385,o),
(572,416,o),
(534,416,cs),
(292,416,l),
(321,550,l),
(612,550,ls),
(650,550,o),
(682,581,o),
(682,620,cs),
(682,659,o),
(650,690,o),
(612,690,cs),
(256,690,ls),
(199,690,o),
(164,663,o),
(152,606,cs),
(46,104,ls),
(32,39,o),
(64,0,o),
(130,0,cs),
(505,0,ls),
(543,0,o),
(575,31,o),
(575,70,cs),
(575,109,o),
(543,140,o)
);
}
);
width = 639;
}
);
note = Egrave;
unicode = 200;
},
{
glyphname = Emacron;
lastChange = "2022-11-29 13:10:53 +0000";
layers = (
{
hints = (
{
horizontal = 1;
place = (-56, 84);
place = (-56, 84);
type = Stem;
},
{
horizontal = 1;
place = (220, 84);
place = (220, 84);
type = Stem;
},
{
horizontal = 1;
place = (494, 84);
place = (494, 84);
type = Stem;
},
{
horizontal = 1;
place = (704, 40);
place = (704, 40);
type = Stem;
},
{
place = (134, 244);
place = (134, 244);
type = Stem;
},
{
place = (24, 124);
place = (24, 124);
type = Stem;
}
);
layerId = m01;
shapes = (
{
closed = 1;
nodes = (
(566,760,ls),
(592,760,o),
(614,781,o),
(614,808,cs),
(614,835,o),
(592,856,o),
(566,856,cs),
(345,856,ls),
(319,856,o),
(297,835,o),
(297,808,cs),
(297,781,o),
(319,760,o),
(345,760,cs)
);
},
{
closed = 1;
nodes = (
(505,140,cs),
(233,140,l),
(262,276,l),
(534,276,ls),
(572,276,o),
(604,307,o),
(604,346,cs),
(604,385,o),
(572,416,o),
(534,416,cs),
(292,416,l),
(321,550,l),
(612,550,ls),
(650,550,o),
(682,581,o),
(682,620,cs),
(682,659,o),
(650,690,o),
(612,690,cs),
(256,690,ls),
(199,690,o),
(164,663,o),
(152,606,cs),
(46,104,ls),
(32,39,o),
(64,0,o),
(130,0,cs),
(505,0,ls),
(543,0,o),
(575,31,o),
(575,70,cs),
(575,109,o),
(543,140,o)
);
}
);
width = 639;
}
);
note = Emacron;
unicode = 274;
},
{
glyphname = Eogonek;
lastChange = "2022-11-29 13:10:53 +0000";
layers = (
{
hints = (
{
horizontal = 1;
place = (-279, 46);
place = (-279, 46);
type = Stem;
},
{
horizontal = 1;
place = (-56, 84);
place = (-56, 84);
type = Stem;
},
{
horizontal = 1;
place = (220, 84);
place = (220, 84);
type = Stem;
},
{
horizontal = 1;
place = (494, 84);
place = (494, 84);
type = Stem;
},
{
place = (24, 124);
place = (24, 124);
type = Stem;
},
{
place = (294, 193);
place = (294, 193);
type = Stem;
}
);
layerId = m01;
shapes = (
{
closed = 1;
nodes = (
(505,0,ls),
(543,0,o),
(575,31,o),
(575,70,cs),
(575,109,o),
(543,140,o),
(505,140,cs),
(233,140,l),
(262,276,l),
(534,276,ls),
(572,276,o),
(604,307,o),
(604,346,cs),
(604,385,o),
(572,416,o),
(534,416,cs),
(292,416,l),
(321,550,l),
(612,550,ls),
(650,550,o),
(682,581,o),
(682,620,cs),
(682,659,o),
(650,690,o),
(612,690,cs),
(256,690,ls),
(199,690,o),
(164,663,o),
(152,606,cs),
(46,104,ls),
(32,39,o),
(64,0,o),
(130,0,cs),
(372,0,l),
(324,-27,o),
(276,-81,o),
(265,-137,cs),
(251,-201,o),
(294,-223,o),
(360,-223,cs),
(418,-223,o),
(462,-206,o),
(502,-183,cs),
(512,-177,o),
(518,-166,o),
(518,-154,cs),
(518,-134,o),
(499,-117,o),
(480,-120,c),
(478,-121,o),
(475,-121,o),
(473,-121,cs),
(453,-121,o),
(435,-108,o),
(443,-70,cs),
(451,-32,o),
(478,0,o),
(503,0,cs)
);
}
);
width = 639;
}
);
note = Eogonek;
unicode = 280;
},
{
glyphname = F;
kernRight = F;
lastChange = "2022-11-29 13:10:53 +0000";
layers = (
{
hints = (
{
horizontal = 1;
place = (-56, 21);
target = up;
type = BottomGhost;
},
{
horizontal = 1;
place = (220, 84);
place = (220, 84);
type = Stem;
},
{
horizontal = 1;
place = (494, 84);
place = (494, 84);
type = Stem;
},
{
place = (24, 124);
place = (24, 124);
type = Stem;
}
);
layerId = m01;
shapes = (
{
closed = 1;
nodes = (
(321,550,l),
(612,550,ls),
(650,550,o),
(682,581,o),
(682,620,cs),
(682,659,o),
(650,690,o),
(612,690,cs),
(256,690,ls),
(199,690,o),
(164,663,o),
(152,606,cs),
(45,97,ls),
(44,92,o),
(43,85,o),
(43,79,cs),
(43,30,o),
(82,-9,o),
(131,-9,cs),
(173,-9,o),
(209,21,o),
(217,61,cs),
(262,276,l),
(524,276,ls),
(562,276,o),
(594,307,o),
(594,346,cs),
(594,385,o),
(562,416,o),
(524,416,cs),
(292,416,l)
);
}
);
width = 615;
}
);
note = F;
unicode = 70;
},
{
glyphname = G;
kernLeft = C;
kernRight = G;
lastChange = "2022-11-29 13:10:53 +0000";
layers = (
{
hints = (
{
horizontal = 1;
place = (-70, 76);
place = (-70, 76);
type = Stem;
},
{
horizontal = 1;
place = (172, 84);
place = (172, 84);
type = Stem;
},
{
horizontal = 1;
place = (516, 76);
place = (516, 76);
type = Stem;
},
{
place = (-2, 132);
place = (-2, 132);
type = Stem;
},
{
place = (353, 248);
place = (353, 248);
type = Stem;
},
{
horizontal = 1;
place = (-56, 21);
target = up;
type = BottomGhost;
}
);
layerId = m01;
shapes = (
{
closed = 1;
nodes = (
(478,368,ls),
(440,368,o),
(408,337,o),
(408,298,cs),
(408,259,o),
(440,228,o),
(478,228,cs),
(535,228,l),
(494,152,o),
(441,118,o),
(371,118,cs),
(286,118,o),
(223,177,o),
(260,351,cs),
(292,500,o),
(380,572,o),
(468,572,cs),
(515,572,o),
(548,557,o),
(565,527,cs),
(588,483,o),
(587,442,o),
(631,425,cs),
(644,421,o),
(657,418,o),
(672,418,cs),
(690,418,o),
(706,423,o),
(720,431,cs),
(752,449,o),
(765,482,o),
(758,529,cs),
(744,632,o),
(661,704,o),
(498,704,cs),
(309,704,o),
(121,580,o),
(70,340,cs),
(21,108,o),
(124,-14,o),
(308,-14,cs),
(354,-14,o),
(390,-10,o),
(422,2,cs),
(464,17,o),
(485,44,o),
(508,83,cs),
(522,106,l),
(520,69,ls),
(518,29,o),
(549,-9,o),
(595,-9,cs),
(631,-9,o),
(661,17,o),
(668,50,cs),
(713,264,ls),
(727,329,o),
(695,368,o),
(629,368,cs)
);
}
);
width = 759;
}
);
note = G;
unicode = 71;
},
{
glyphname = Gbreve;
kernLeft = C;
kernRight = G;
lastChange = "2022-11-29 13:10:53 +0000";
layers = (
{
hints = (
{
horizontal = 1;
place = (-70, 76);
place = (-70, 76);
type = Stem;
},
{
horizontal = 1;
place = (172, 84);
place = (172, 84);
type = Stem;
},
{
horizontal = 1;
place = (516, 76);
place = (516, 76);
type = Stem;
},
{
horizontal = 1;
place = (672, 76);
place = (672, 76);
type = Stem;
},
{
place = (-2, 132);
place = (-2, 132);
type = Stem;
},
{
place = (197, 34);
place = (197, 34);
type = Stem;
},
{
place = (377, 34);
place = (377, 34);
type = Stem;
},
{
place = (353, 248);
place = (353, 248);
type = Stem;
},
{
horizontal = 1;
place = (-56, 21);
target = up;
type = BottomGhost;
}
);
layerId = m01;
shapes = (
{
closed = 1;
nodes = (
(541,728,o),
(596,748,o),
(628,807,cs),
(631,813,o),
(633,820,o),
(633,827,cs),
(633,851,o),
(614,870,o),
(590,870,cs),
(573,870,o),
(557,859,o),
(551,844,cs),
(542,822,o),
(526,813,o),
(504,813,cs),
(485,813,o),
(475,820,o),
(470,835,cs),
(464,855,o),
(446,870,o),
(423,870,cs),
(395,870,o),
(374,847,o),
(375,819,cs),
(378,750,o),
(427,728,o),
(486,728,cs)
);
},
{
closed = 1;
nodes = (
(478,368,ls),
(440,368,o),
(408,337,o),
(408,298,cs),
(408,259,o),
(440,228,o),
(478,228,cs),
(535,228,l),
(494,152,o),
(441,118,o),
(371,118,cs),
(286,118,o),
(223,177,o),
(260,351,cs),
(292,500,o),
(380,572,o),
(468,572,cs),
(515,572,o),
(548,557,o),
(565,527,cs),
(588,483,o),
(587,442,o),
(631,425,cs),
(644,421,o),
(657,418,o),
(672,418,cs),
(690,418,o),
(706,423,o),
(720,431,cs),
(752,449,o),
(765,482,o),
(758,529,cs),
(744,632,o),
(661,704,o),
(498,704,cs),
(309,704,o),
(121,580,o),
(70,340,cs),
(21,108,o),
(124,-14,o),
(308,-14,cs),
(354,-14,o),
(390,-10,o),
(422,2,cs),
(464,17,o),
(485,44,o),
(508,83,cs),
(522,106,l),
(520,69,ls),
(518,29,o),
(549,-9,o),
(595,-9,cs),
(631,-9,o),
(661,17,o),
(668,50,cs),
(713,264,ls),
(727,329,o),
(695,368,o),
(629,368,cs)
);
}
);
width = 759;
}
);
note = Gbreve;
unicode = 286;
},
{
glyphname = Gcommaaccent;
kernLeft = C;
kernRight = G;
lastChange = "2022-11-29 13:10:53 +0000";
layers = (
{
hints = (
{
horizontal = 1;
place = (-70, 76);
place = (-70, 76);
type = Stem;
},
{
horizontal = 1;
place = (172, 84);
place = (172, 84);
type = Stem;
},
{
horizontal = 1;
place = (516, 76);
place = (516, 76);
type = Stem;
},
{
place = (-2, 132);
place = (-2, 132);
type = Stem;
},
{
place = (353, 248);
place = (353, 248);
type = Stem;
},
{
horizontal = 1;
place = (-272, 123);
place = (-272, 123);
type = Stem;
},
{
horizontal = 1;
place = (-56, 21);
target = up;
type = BottomGhost;
}
);
layerId = m01;
shapes = (
{
closed = 1;
nodes = (
(478,368,ls),
(440,368,o),
(408,337,o),
(408,298,cs),
(408,259,o),
(440,228,o),
(478,228,cs),
(535,228,l),
(494,152,o),
(441,118,o),
(371,118,cs),
(286,118,o),
(223,177,o),
(260,351,cs),
(292,500,o),
(380,572,o),
(468,572,cs),
(515,572,o),
(548,557,o),
(565,527,cs),
(588,483,o),
(587,442,o),
(631,425,cs),
(644,421,o),
(657,418,o),
(672,418,cs),
(690,418,o),
(706,423,o),
(720,431,cs),
(752,449,o),
(765,482,o),
(758,529,cs),
(744,632,o),
(661,704,o),
(498,704,cs),
(309,704,o),
(121,580,o),
(70,340,cs),
(21,108,o),
(124,-14,o),
(308,-14,cs),
(354,-14,o),
(390,-10,o),
(422,2,cs),
(464,17,o),
(485,44,o),
(508,83,cs),
(522,106,l),
(520,69,ls),
(518,29,o),
(549,-9,o),
(595,-9,cs),
(631,-9,o),
(661,17,o),
(668,50,cs),
(713,264,ls),
(727,329,o),
(695,368,o),
(629,368,cs)
);
},
{
closed = 1;
nodes = (
(281,-55,cs),
(209,-162,ls),
(205,-168,o),
(202,-176,o),
(202,-184,cs),
(202,-207,o),
(220,-225,o),
(242,-225,cs),
(255,-225,o),
(267,-219,o),
(274,-210,cs),
(345,-123,ls),
(384,-74,o),
(333,-6,o),
(333,-6,cs),
(304,-6,o),
(296,-33,o)
);
}
);
width = 759;
}
);
note = Gcommaaccent;
unicode = 290;
},
{
glyphname = Gdotaccent;
kernLeft = C;
kernRight = G;
lastChange = "2022-11-29 13:10:53 +0000";
layers = (
{
hints = (
{
horizontal = 1;
place = (-70, 76);
place = (-70, 76);
type = Stem;
},
{
horizontal = 1;
place = (172, 84);
place = (172, 84);
type = Stem;
},
{
horizontal = 1;
place = (516, 76);
place = (516, 76);
type = Stem;
},
{
horizontal = 1;
place = (669, 120);
place = (669, 120);
type = Stem;
},
{
place = (-2, 132);
place = (-2, 132);
type = Stem;
},
{
place = (239, 130);
place = (239, 130);
type = Stem;
},
{
place = (353, 248);
place = (353, 248);
type = Stem;
},
{
horizontal = 1;
place = (-56, 21);
target = up;
type = BottomGhost;
}
);
layerId = m01;
shapes = (
{
closed = 1;
nodes = (
(542,725,o),
(586,759,o),
(597,813,cs),
(609,867,o),
(579,901,o),
(523,901,cs),
(467,901,o),
(423,867,o),
(411,813,cs),
(400,759,o),
(430,725,o),
(486,725,cs)
);
},
{
closed = 1;
nodes = (
(478,368,ls),
(440,368,o),
(408,337,o),
(408,298,cs),
(408,259,o),
(440,228,o),
(478,228,cs),
(535,228,l),
(494,152,o),
(441,118,o),
(371,118,cs),
(286,118,o),
(223,177,o),
(260,351,cs),
(292,500,o),
(380,572,o),
(468,572,cs),
(515,572,o),
(548,557,o),
(565,527,cs),
(588,483,o),
(587,442,o),
(631,425,cs),
(644,421,o),
(657,418,o),
(672,418,cs),
(690,418,o),
(706,423,o),
(720,431,cs),
(752,449,o),
(765,482,o),
(758,529,cs),
(744,632,o),
(661,704,o),
(498,704,cs),
(309,704,o),
(121,580,o),
(70,340,cs),
(21,108,o),
(124,-14,o),
(308,-14,cs),
(354,-14,o),
(390,-10,o),
(422,2,cs),
(464,17,o),
(485,44,o),
(508,83,cs),
(522,106,l),
(520,69,ls),
(518,29,o),
(549,-9,o),
(595,-9,cs),
(631,-9,o),
(661,17,o),
(668,50,cs),
(713,264,ls),
(727,329,o),
(695,368,o),
(629,368,cs)
);
}
);
width = 759;
}
);
note = Gdotaccent;
unicode = 288;
},
{
glyphname = H;
lastChange = "2022-11-29 13:10:53 +0000";
layers = (
{
hints = (
{
horizontal = 1;
place = (-56, 21);
target = up;
type = BottomGhost;
},
{
horizontal = 1;
place = (212, 84);
place = (212, 84);
type = Stem;
},
{
horizontal = 1;
place = (634, -20);
target = down;
type = TopGhost;
},
{
place = (24, 124);
place = (24, 124);
type = Stem;
},
{
place = (480, 124);
place = (480, 124);
type = Stem;
}
);
layerId = m01;
shapes = (
{
closed = 1;
nodes = (
(785,593,ls),
(786,598,o),
(787,605,o),
(787,611,cs),
(787,660,o),
(748,699,o),
(699,699,cs),
(657,699,o),
(621,669,o),
(613,629,cs),
(566,408,l),
(290,408,l),
(329,593,ls),
(330,599,o),
(331,605,o),
(331,611,cs),
(331,660,o),
(292,699,o),
(243,699,cs),
(201,699,o),
(165,668,o),
(157,629,cs),
(45,97,ls),
(44,92,o),
(43,85,o),
(43,79,cs),
(43,30,o),
(82,-9,o),
(131,-9,cs),
(173,-9,o),
(209,21,o),
(217,61,cs),
(261,268,l),
(537,268,l),
(501,97,ls),
(500,91,o),
(499,85,o),
(499,79,cs),
(499,30,o),
(538,-9,o),
(587,-9,cs),
(629,-9,o),
(665,22,o),
(673,61,cs)
);
}
);
width = 770;
}
);
note = H;
unicode = 72;
},
{
glyphname = Hbar;
lastChange = "2022-11-29 13:10:53 +0000";
layers = (
{
hints = (
{
horizontal = 1;
place = (-56, 21);
target = up;
type = BottomGhost;
},
{
horizontal = 1;
place = (212, 84);
place = (212, 84);
type = Stem;
},
{
horizontal = 1;
place = (426, 152);
place = (426, 152);
type = Stem;
},
{
place = (24, 124);
place = (24, 124);
type = Stem;
},
{
place = (480, 124);
place = (480, 124);
type = Stem;
},
{
horizontal = 1;
place = (426, 40);
place = (426, 40);
type = Stem;
}
);
layerId = m01;
shapes = (
{
closed = 1;
nodes = (
(773,482,ls),
(799,482,o),
(821,503,o),
(821,530,cs),
(821,553,o),
(804,573,o),
(783,578,c),
(786,593,ls),
(787,598,o),
(788,605,o),
(788,611,cs),
(788,660,o),
(748,699,o),
(700,699,cs),
(657,699,o),
(621,670,o),
(613,629,cs),
(603,578,l),
(327,578,l),
(330,593,ls),
(331,598,o),
(332,605,o),
(332,611,cs),
(332,660,o),
(292,699,o),
(244,699,cs),
(201,699,o),
(165,670,o),
(157,629,cs),
(147,578,l),
(136,578,ls),
(110,578,o),
(88,557,o),
(88,530,cs),
(88,507,o),
(105,487,o),
(126,482,c),
(45,97,ls),
(44,92,o),
(43,85,o),
(43,79,cs),
(43,30,o),
(82,-9,o),
(131,-9,cs),
(173,-9,o),
(209,21,o),
(217,61,cs),
(261,268,l),
(537,268,l),
(501,97,ls),
(500,91,o),
(499,85,o),
(499,79,cs),
(499,30,o),
(538,-9,o),
(587,-9,cs),
(629,-9,o),
(665,22,o),
(673,61,cs),
(762,482,l)
);
},
{
closed = 1;
nodes = (
(582,482,l),
(566,408,l),
(290,408,l),
(306,482,l)
);
}
);
width = 770;
}
);
note = Hbar;
unicode = 294;
},
{
glyphname = I;
lastChange = "2022-11-29 13:10:53 +0000";
layers = (
{
hints = (
{
horizontal = 1;
place = (-56, 21);
target = up;
type = BottomGhost;
},
{
horizontal = 1;
place = (634, -20);
target = down;
type = TopGhost;
},
{
place = (24, 124);
place = (24, 124);
type = Stem;
}
);
layerId = m01;
shapes = (
{
closed = 1;
nodes = (
(217,61,cs),
(329,593,ls),
(330,598,o),
(331,605,o),
(331,611,cs),
(331,660,o),
(292,699,o),
(243,699,cs),
(201,699,o),
(165,669,o),
(157,629,cs),
(45,97,ls),
(44,92,o),
(43,85,o),
(43,79,cs),
(43,30,o),
(82,-9,o),
(131,-9,cs),
(173,-9,o),
(209,22,o)
);
}
);
width = 314;
}
);
note = I;
unicode = 73;
},
{
glyphname = IJ;
kernRight = IJ;
lastChange = "2022-11-29 13:10:53 +0000";
layers = (
{
hints = (
{
horizontal = 1;
place = (-56, 21);
target = up;
type = BottomGhost;
},
{
horizontal = 1;
place = (634, -20);
target = down;
type = TopGhost;
},
{
place = (24, 124);
place = (24, 124);
type = Stem;
},
{
place = (307, 124);
place = (307, 124);
type = Stem;
},
{
place = (664, 124);
place = (664, 124);
type = Stem;
},
{
horizontal = 1;
place = (-70, 76);
place = (-70, 76);
type = Stem;
},
{
horizontal = 1;
place = (-56, 208);
place = (-56, 208);
type = Stem;
}
);
layerId = m01;
shapes = (
{
closed = 1;
nodes = (
(217,61,cs),
(329,593,ls),
(330,598,o),
(331,605,o),
(331,611,cs),
(331,660,o),
(292,699,o),
(243,699,cs),
(201,699,o),
(165,669,o),
(157,629,cs),
(45,97,ls),
(44,92,o),
(43,85,o),
(43,79,cs),
(43,30,o),
(82,-9,o),
(131,-9,cs),
(173,-9,o),
(209,22,o)
);
},
{
closed = 1;
nodes = (
(969,593,ls),
(970,599,o),
(971,605,o),
(971,611,cs),
(971,660,o),
(932,699,o),
(883,699,cs),
(841,699,o),
(805,669,o),
(797,629,cs),
(721,271,ls),
(717,250,o),
(712,228,o),
(705,205,cs),
(689,150,o),
(656,118,o),
(606,118,cs),
(571,118,o),
(545,130,o),
(537,167,cs),
(526,215,o),
(534,256,o),
(493,280,cs),
(477,290,o),
(458,295,o),
(437,295,cs),
(417,295,o),
(402,287,o),
(389,276,cs),
(360,249,o),
(351,218,o),
(350,173,cs),
(349,58,o),
(413,-14,o),
(573,-14,cs),
(752,-14,o),
(849,73,o),
(882,194,cs),
(896,245,o),
(900,267,o),
(907,299,cs)
);
}
);
width = 952;
}
);
note = IJ;
unicode = 306;
},
{
glyphname = Iacute;
lastChange = "2022-11-29 13:10:53 +0000";
layers = (
{
hints = (
{
horizontal = 1;
place = (-56, 21);
target = up;
type = BottomGhost;
},
{
horizontal = 1;
place = (634, -20);
target = down;
type = TopGhost;
},
{
horizontal = 1;
place = (679, 69);
place = (679, 69);
type = Stem;
},
{
place = (24, 124);
place = (24, 124);
type = Stem;
}
);
layerId = m01;
shapes = (
{
closed = 1;
nodes = (
(289,727,cs),
(377,801,o),
(370,868,o),
(370,868,cs),
(333,861,o),
(299,842,o),
(277,813,cs),
(251,778,o),
(288,726,o),
(288,726,c),
(288,726,o),
(288,726,o)
);
},
{
closed = 1;
nodes = (
(217,61,cs),
(329,593,ls),
(330,598,o),
(331,605,o),
(331,611,cs),
(331,660,o),
(292,699,o),
(243,699,cs),
(201,699,o),
(165,669,o),
(157,629,cs),
(45,97,ls),
(44,92,o),
(43,85,o),
(43,79,cs),
(43,30,o),
(82,-9,o),
(131,-9,cs),
(173,-9,o),
(209,22,o)
);
}
);
width = 314;
}
);
note = Iacute;
unicode = 205;
},
{
glyphname = Icircumflex;
lastChange = "2022-11-29 13:10:53 +0000";
layers = (
{
hints = (
{
horizontal = 1;
place = (-56, 21);
target = up;
type = BottomGhost;
},
{
horizontal = 1;
place = (634, -20);
target = down;
type = TopGhost;
},
{
horizontal = 1;
place = (679, 69);
place = (679, 69);
type = Stem;
},
{
place = (24, 124);
place = (24, 124);
type = Stem;
}
);
layerId = m01;
shapes = (
{
closed = 1;
nodes = (
(244,745,cs),
(285,811,l),
(294,773,ls),
(300,748,o),
(313,735,o),
(333,735,cs),
(367,735,o),
(396,763,o),
(396,798,cs),
(396,832,o),
(367,860,o),
(333,860,cs),
(258,860,ls),
(212,860,o),
(172,826,o),
(167,780,cs),
(167,776,o),
(166,772,o),
(166,768,cs),
(166,745,o),
(185,726,o),
(208,726,cs),
(223,726,o),
(237,733,o)
);
},
{
closed = 1;
nodes = (
(157,629,cs),
(45,97,ls),
(44,92,o),
(43,85,o),
(43,79,cs),
(43,30,o),
(82,-9,o),
(131,-9,cs),
(173,-9,o),
(209,21,o),
(217,61,cs),
(329,593,ls),
(330,598,o),
(331,605,o),
(331,611,cs),
(331,660,o),
(292,699,o),
(243,699,cs),
(201,699,o),
(165,668,o)
);
}
);
width = 314;
}
);
note = Icircumflex;
unicode = 206;
},
{
glyphname = Idieresis;
lastChange = "2022-11-29 13:10:53 +0000";
layers = (
{
hints = (
{
horizontal = 1;
place = (-56, 21);
target = up;
type = BottomGhost;
},
{
horizontal = 1;
place = (634, -20);
target = down;
type = TopGhost;
},
{
horizontal = 1;
place = (666, 90);
place = (666, 90);
type = Stem;
},
{
place = (24, 124);
place = (24, 124);
type = Stem;
},
{
place = (-61, 94);
place = (-61, 94);
type = Stem;
},
{
place = (139, 94);
place = (139, 94);
type = Stem;
}
);
layerId = m01;
shapes = (
{
closed = 1;
nodes = (
(217,61,cs),
(329,593,ls),
(330,598,o),
(331,605,o),
(331,611,cs),
(331,660,o),
(292,699,o),
(243,699,cs),
(201,699,o),
(165,669,o),
(157,629,cs),
(45,97,ls),
(44,92,o),
(43,85,o),
(43,79,cs),
(43,30,o),
(82,-9,o),
(131,-9,cs),
(173,-9,o),
(209,22,o)
);
},
{
closed = 1;
nodes = (
(177,721,cs),
(223,721,o),
(250,742,o),
(259,787,cs),
(269,833,o),
(235,877,o),
(187,877,cs),
(175,877,o),
(164,874,o),
(154,869,cs),
(125,855,o),
(104,827,o),
(104,795,cs),
(104,754,o),
(137,721,o)
);
},
{
closed = 1;
nodes = (
(378,721,cs),
(424,721,o),
(451,742,o),
(460,787,cs),
(470,833,o),
(436,877,o),
(388,877,cs),
(376,877,o),
(365,874,o),
(355,869,cs),
(326,854,o),
(305,827,o),
(305,794,cs),
(305,754,o),
(338,721,o)
);
}
);
width = 314;
}
);
note = Idieresis;
unicode = 207;
},
{
glyphname = Idotaccent;
lastChange = "2022-11-29 13:10:53 +0000";
layers = (
{
hints = (
{
horizontal = 1;
place = (-56, 21);
target = up;
type = BottomGhost;
},
{
horizontal = 1;
place = (634, -20);
target = down;
type = TopGhost;
},
{
horizontal = 1;
place = (669, 120);
place = (669, 120);
type = Stem;
},
{
place = (24, 124);
place = (24, 124);
type = Stem;
}
);
layerId = m01;
shapes = (
{
closed = 1;
nodes = (
(249,901,o),
(205,867,o),
(193,813,cs),
(182,759,o),
(212,725,o),
(268,725,cs),
(324,725,o),
(368,759,o),
(379,813,cs),
(391,867,o),
(361,901,o),
(305,901,cs)
);
},
{
closed = 1;
nodes = (
(217,61,cs),
(329,593,ls),
(330,598,o),
(331,605,o),
(331,611,cs),
(331,660,o),
(292,699,o),
(243,699,cs),
(201,699,o),
(165,669,o),
(157,629,cs),
(45,97,ls),
(44,92,o),
(43,85,o),
(43,79,cs),
(43,30,o),
(82,-9,o),
(131,-9,cs),
(173,-9,o),
(209,22,o)
);
}
);
width = 314;
}
);
note = Idotaccent;
unicode = 304;
},
{
glyphname = Igrave;
lastChange = "2022-11-29 13:10:53 +0000";
layers = (
{
hints = (
{
horizontal = 1;
place = (-56, 21);
target = up;
type = BottomGhost;
},
{
horizontal = 1;
place = (634, -20);
target = down;
type = TopGhost;
},
{
horizontal = 1;
place = (679, 69);
place = (679, 69);
type = Stem;
},
{
place = (24, 124);
place = (24, 124);
type = Stem;
}
);
layerId = m01;
shapes = (
{
closed = 1;
nodes = (
(307,779,o),
(274,860,o),
(228,869,o),
(202,833,cs),
(195,822,o),
(190,809,o),
(190,794,cs),
(190,763,o),
(212,737,o),
(240,730,cs),
(247,728,o),
(255,726,o),
(262,726,cs),
(287,726,o),
(307,746,o),
(307,771,cs),
(307,771,o),
(307,771,o)
);
},
{
closed = 1;
nodes = (
(217,61,cs),
(329,593,ls),
(330,598,o),
(331,605,o),
(331,611,cs),
(331,660,o),
(292,699,o),
(243,699,cs),
(201,699,o),
(165,669,o),
(157,629,cs),
(45,97,ls),
(44,92,o),
(43,85,o),
(43,79,cs),
(43,30,o),
(82,-9,o),
(131,-9,cs),
(173,-9,o),
(209,22,o)
);
}
);
width = 314;
}
);
note = Igrave;
unicode = 204;
},
{
glyphname = Imacron;
lastChange = "2022-11-29 13:10:53 +0000";
layers = (
{
hints = (
{
horizontal = 1;
place = (-56, 21);
target = up;
type = BottomGhost;
},
{
horizontal = 1;
place = (634, -20);
target = down;
type = TopGhost;
},
{
horizontal = 1;
place = (704, 40);
place = (704, 40);
type = Stem;
},
{
place = (24, 124);
place = (24, 124);
type = Stem;
}
);
layerId = m01;
shapes = (
{
closed = 1;
nodes = (
(396,760,ls),
(422,760,o),
(444,781,o),
(444,808,cs),
(444,835,o),
(422,856,o),
(396,856,cs),
(175,856,ls),
(149,856,o),
(127,835,o),
(127,808,cs),
(127,781,o),
(149,760,o),
(175,760,cs)
);
},
{
closed = 1;
nodes = (
(217,61,cs),
(329,593,ls),
(330,598,o),
(331,605,o),
(331,611,cs),
(331,660,o),
(292,699,o),
(243,699,cs),
(201,699,o),
(165,669,o),
(157,629,cs),
(45,97,ls),
(44,92,o),
(43,85,o),
(43,79,cs),
(43,30,o),
(82,-9,o),
(131,-9,cs),
(173,-9,o),
(209,22,o)
);
}
);
width = 314;
}
);
note = Imacron;
unicode = 298;
},
{
glyphname = Iogonek;
lastChange = "2022-11-29 13:10:53 +0000";
layers = (
{
hints = (
{
horizontal = 1;
place = (-279, 46);
place = (-279, 46);
type = Stem;
},
{
horizontal = 1;
place = (-56, 21);
target = up;
type = BottomGhost;
},
{
horizontal = 1;
place = (634, -20);
target = down;
type = TopGhost;
},
{
place = (24, 124);
place = (24, 124);
type = Stem;
}
);
layerId = m01;
shapes = (
{
closed = 1;
nodes = (
(185,0,o),
(210,27,o),
(222,84,cs),
(329,593,ls),
(330,598,o),
(331,605,o),
(331,611,cs),
(331,660,o),
(292,699,o),
(243,699,cs),
(201,699,o),
(165,668,o),
(157,629,cs),
(25,5,l),
(-26,-20,o),
(-79,-77,o),
(-91,-137,cs),
(-105,-201,o),
(-62,-223,o),
(4,-223,cs),
(62,-223,o),
(106,-206,o),
(146,-183,cs),
(156,-177,o),
(162,-166,o),
(162,-154,cs),
(162,-134,o),
(143,-117,o),
(124,-120,c),
(122,-121,o),
(119,-121,o),
(117,-121,cs),
(97,-121,o),
(79,-108,o),
(87,-70,cs),
(95,-32,o),
(122,0,o),
(147,0,cs)
);
}
);
width = 314;
}
);
note = Iogonek;
unicode = 302;
},
{
glyphname = J;
kernLeft = J;
kernRight = IJ;
lastChange = "2022-11-29 13:10:53 +0000";
layers = (
{
hints = (
{
horizontal = 1;
place = (-70, 76);
place = (-70, 76);
type = Stem;
},
{
horizontal = 1;
place = (634, -20);
target = down;
type = TopGhost;
},
{
place = (-7, 124);
place = (-7, 124);
type = Stem;
},
{
place = (350, 124);
place = (350, 124);
type = Stem;
}
);
layerId = m01;
shapes = (
{
closed = 1;
nodes = (
(655,593,ls),
(656,599,o),
(657,605,o),
(657,611,cs),
(657,660,o),
(618,699,o),
(569,699,cs),
(527,699,o),
(491,669,o),
(483,629,cs),
(407,271,ls),
(403,250,o),
(398,228,o),
(391,205,cs),
(375,150,o),
(342,118,o),
(292,118,cs),
(257,118,o),
(231,130,o),
(223,167,cs),
(212,215,o),
(220,256,o),
(179,280,cs),
(163,290,o),
(144,295,o),
(123,295,cs),
(103,295,o),
(88,287,o),
(75,276,cs),
(46,249,o),
(37,218,o),
(36,173,cs),
(35,58,o),
(99,-14,o),
(259,-14,cs),
(438,-14,o),
(535,73,o),
(568,194,cs),
(582,245,o),
(586,267,o),
(593,299,cs)
);
}
);
width = 638;
}
);
note = J;
unicode = 74;
},
{
glyphname = K;
kernRight = K;
lastChange = "2022-11-29 13:10:53 +0000";
layers = (
{
hints = (
{
horizontal = 1;
place = (-56, 21);
target = up;
type = BottomGhost;
},
{
horizontal = 1;
place = (634, -20);
target = down;
type = TopGhost;
},
{
place = (24, 124);
place = (24, 124);
type = Stem;
}
);
layerId = m01;
shapes = (
{
closed = 1;
nodes = (
(461,365,l),
(696,573,ls),
(761,631,o),
(754,690,o),
(681,690,cs),
(633,690,o),
(598,677,o),
(563,644,cs),
(286,385,l),
(330,593,ls),
(331,598,o),
(331,605,o),
(331,611,cs),
(331,660,o),
(292,699,o),
(243,699,cs),
(201,699,o),
(165,669,o),
(157,629,cs),
(45,97,ls),
(44,92,o),
(43,85,o),
(43,79,cs),
(43,30,o),
(82,-9,o),
(131,-9,cs),
(173,-9,o),
(209,21,o),
(217,61,cs),
(249,212,l),
(309,266,l),
(426,43,ls),
(442,13,o),
(474,-9,o),
(511,-9,cs),
(564,-9,o),
(607,34,o),
(607,87,cs),
(607,105,o),
(602,121,o),
(594,136,cs)
);
}
);
width = 743;
}
);
note = K;
unicode = 75;
},
{
glyphname = Kcommaaccent;
kernRight = K;
lastChange = "2022-11-29 13:10:53 +0000";
layers = (
{
hints = (
{
horizontal = 1;
place = (-272, 123);
place = (-272, 123);
type = Stem;
},
{
horizontal = 1;
place = (-56, 21);
target = up;
type = BottomGhost;
},
{
horizontal = 1;
place = (634, -20);
target = down;
type = TopGhost;
},
{
place = (24, 124);
place = (24, 124);
type = Stem;
}
);
layerId = m01;
shapes = (
{
closed = 1;
nodes = (
(461,365,l),
(696,573,ls),
(761,631,o),
(754,690,o),
(681,690,cs),
(633,690,o),
(598,677,o),
(563,644,cs),
(286,385,l),
(330,593,ls),
(331,598,o),
(331,605,o),
(331,611,cs),
(331,660,o),
(292,699,o),
(243,699,cs),
(201,699,o),
(165,669,o),
(157,629,cs),
(45,97,ls),
(44,92,o),
(43,85,o),
(43,79,cs),
(43,30,o),
(82,-9,o),
(131,-9,cs),
(173,-9,o),
(209,21,o),
(217,61,cs),
(249,212,l),
(309,266,l),
(426,43,ls),
(442,13,o),
(474,-9,o),
(511,-9,cs),
(564,-9,o),
(607,34,o),
(607,87,cs),
(607,105,o),
(602,121,o),
(594,136,cs)
);
},
{
closed = 1;
nodes = (
(248,-55,cs),
(176,-162,ls),
(172,-168,o),
(169,-176,o),
(169,-184,cs),
(169,-207,o),
(187,-225,o),
(209,-225,cs),
(222,-225,o),
(234,-219,o),
(241,-210,cs),
(312,-123,ls),
(351,-74,o),
(300,-6,o),
(300,-6,cs),
(271,-6,o),
(263,-33,o)
);
}
);
width = 743;
}
);
note = Kcommaaccent;
unicode = 310;
},
{
glyphname = L;
kernRight = L;
lastChange = "2022-11-29 13:10:53 +0000";
layers = (
{
hints = (
{
horizontal = 1;
place = (-56, 96);
place = (-56, 96);
type = Stem;
},
{
horizontal = 1;
place = (634, -20);
target = down;
type = TopGhost;
},
{
place = (24, 124);
place = (24, 124);
type = Stem;
}
);
layerId = m01;
shapes = (
{
closed = 1;
nodes = (
(501,152,cs),
(236,152,l),
(329,593,ls),
(330,598,o),
(331,605,o),
(331,611,cs),
(331,660,o),
(292,699,o),
(243,699,cs),
(201,699,o),
(165,668,o),
(157,629,cs),
(46,104,ls),
(32,39,o),
(64,0,o),
(130,0,cs),
(501,0,ls),
(543,0,o),
(577,34,o),
(577,76,cs),
(577,118,o),
(543,152,o)
);
}
);
width = 628;
}
);
note = L;
unicode = 76;
},
{
glyphname = Lacute;
kernRight = L;
lastChange = "2022-11-29 13:10:53 +0000";
layers = (
{
hints = (
{
horizontal = 1;
place = (-56, 96);
place = (-56, 96);
type = Stem;
},
{
horizontal = 1;
place = (634, -20);
target = down;
type = TopGhost;
},
{
horizontal = 1;
place = (679, 69);
place = (679, 69);
type = Stem;
},
{
place = (24, 124);
place = (24, 124);
type = Stem;
}
);
layerId = m01;
shapes = (
{
closed = 1;
nodes = (
(289,727,cs),
(377,801,o),
(370,868,o),
(370,868,cs),
(333,861,o),
(299,842,o),
(277,813,cs),
(251,778,o),
(288,726,o),
(288,726,c),
(288,726,o),
(288,726,o)
);
},
{
closed = 1;
nodes = (
(501,152,cs),
(236,152,l),
(329,593,ls),
(330,598,o),
(331,605,o),
(331,611,cs),
(331,660,o),
(292,699,o),
(243,699,cs),
(201,699,o),
(165,668,o),
(157,629,cs),
(46,104,ls),
(32,39,o),
(64,0,o),
(130,0,cs),
(501,0,ls),
(543,0,o),
(577,34,o),
(577,76,cs),
(577,118,o),
(543,152,o)
);
}
);
width = 628;
}
);
note = Lacute;
unicode = 313;
},
{
glyphname = Lcaron;
kernRight = L;
lastChange = "2022-11-29 13:10:53 +0000";
layers = (
{
hints = (
{
horizontal = 1;
place = (-56, 96);
place = (-56, 96);
type = Stem;
},
{
horizontal = 1;
place = (634, -20);
target = down;
type = TopGhost;
},
{
place = (24, 124);
place = (24, 124);
type = Stem;
}
);
layerId = m01;
shapes = (
{
closed = 1;
nodes = (
(501,152,cs),
(236,152,l),
(329,593,ls),
(330,598,o),
(331,605,o),
(331,611,cs),
(331,660,o),
(292,699,o),
(243,699,cs),
(201,699,o),
(165,668,o),
(157,629,cs),
(46,104,ls),
(32,39,o),
(64,0,o),
(130,0,cs),
(501,0,ls),
(543,0,o),
(577,34,o),
(577,76,cs),
(577,118,o),
(543,152,o)
);
}
);
width = 628;
}
);
note = Lcaron;
unicode = 317;
},
{
glyphname = Lcommaaccent;
kernRight = L;
lastChange = "2022-11-29 13:10:53 +0000";
layers = (
{
hints = (
{
horizontal = 1;
place = (-272, 123);
place = (-272, 123);
type = Stem;
},
{
horizontal = 1;
place = (-56, 96);
place = (-56, 96);
type = Stem;
},
{
horizontal = 1;
place = (634, -20);
target = down;
type = TopGhost;
},
{
place = (24, 124);
place = (24, 124);
type = Stem;
}
);
layerId = m01;
shapes = (
{
closed = 1;
nodes = (
(501,152,cs),
(236,152,l),
(329,593,ls),
(330,598,o),
(331,605,o),
(331,611,cs),
(331,660,o),
(292,699,o),
(243,699,cs),
(201,699,o),
(165,668,o),
(157,629,cs),
(46,104,ls),
(32,39,o),
(64,0,o),
(130,0,cs),
(501,0,ls),
(543,0,o),
(577,34,o),
(577,76,cs),
(577,118,o),
(543,152,o)
);
},
{
closed = 1;
nodes = (
(222,-55,cs),
(150,-162,ls),
(146,-168,o),
(143,-176,o),
(143,-184,cs),
(143,-207,o),
(161,-225,o),
(183,-225,cs),
(196,-225,o),
(208,-219,o),
(215,-210,cs),
(286,-123,ls),
(325,-74,o),
(274,-6,o),
(274,-6,cs),
(245,-6,o),
(237,-33,o)
);
}
);
width = 628;
}
);
note = Lcommaaccent;
unicode = 315;
},
{
glyphname = Ldot;
kernRight = L;
lastChange = "2022-11-29 13:10:53 +0000";
layers = (
{
hints = (
{
horizontal = 1;
place = (-56, 96);
place = (-56, 96);
type = Stem;
},
{
horizontal = 1;
place = (244, 144);
place = (244, 144);
type = Stem;
},
{
horizontal = 1;
place = (634, -20);
target = down;
type = TopGhost;
},
{
place = (24, 124);
place = (24, 124);
type = Stem;
},
{
place = (294, 144);
place = (294, 144);
type = Stem;
}
);
layerId = m01;
shapes = (
{
closed = 1;
nodes = (
(501,152,cs),
(236,152,l),
(329,593,ls),
(330,598,o),
(331,605,o),
(331,611,cs),
(331,660,o),
(292,699,o),
(243,699,cs),
(201,699,o),
(165,668,o),
(157,629,cs),
(46,104,ls),
(32,39,o),
(64,0,o),
(130,0,cs),
(501,0,ls),
(543,0,o),
(577,34,o),
(577,76,cs),
(577,118,o),
(543,152,o)
);
},
{
closed = 1;
nodes = (
(514,300,o),
(567,343,o),
(579,400,cs),
(591,457,o),
(557,500,o),
(500,500,cs),
(443,500,o),
(391,457,o),
(379,400,cs),
(367,343,o),
(400,300,o),
(457,300,cs)
);
}
);
width = 628;
}
);
note = Ldot;
unicode = 319;
},
{
glyphname = Lslash;
kernRight = L;
lastChange = "2022-11-29 13:10:53 +0000";
layers = (
{
hints = (
{
horizontal = 1;
place = (-56, 96);
place = (-56, 96);
type = Stem;
},
{
horizontal = 1;
place = (482, -20);
target = down;
type = TopGhost;
},
{
horizontal = 1;
place = (634, -20);
target = down;
type = TopGhost;
},
{
place = (64, 124);
place = (64, 124);
type = Stem;
}
);
layerId = m01;
shapes = (
{
closed = 1;
nodes = (
(541,152,cs),
(276,152,l),
(324,380,l),
(409,420,ls),
(425,428,o),
(436,443,o),
(436,462,cs),
(436,487,o),
(415,508,o),
(390,508,cs),
(383,508,o),
(376,506,o),
(370,503,cs),
(348,493,l),
(369,593,ls),
(370,599,o),
(371,605,o),
(371,611,cs),
(371,660,o),
(332,699,o),
(283,699,cs),
(241,699,o),
(205,668,o),
(197,629,cs),
(148,398,l),
(54,353,ls),
(38,345,o),
(28,330,o),
(28,312,cs),
(28,286,o),
(49,266,o),
(74,266,cs),
(81,266,o),
(88,267,o),
(94,270,cs),
(124,285,l),
(86,104,ls),
(72,39,o),
(104,0,o),
(170,0,cs),
(541,0,ls),
(583,0,o),
(617,34,o),
(617,76,cs),
(617,118,o),
(583,152,o)
);
}
);
width = 668;
}
);
note = Lslash;
unicode = 321;
},
{
glyphname = M;
lastChange = "2022-11-29 13:10:53 +0000";
layers = (
{
hints = (
{
horizontal = 1;
place = (-56, 21);
target = up;
type = BottomGhost;
},
{
horizontal = 1;
place = (634, -20);
target = down;
type = TopGhost;
},
{
place = (24, 124);
place = (24, 124);
type = Stem;
},
{
place = (633, 124);
place = (633, 124);
type = Stem;
},
{
horizontal = 1;
place = (-56, 119);
place = (-56, 119);
type = Stem;
},
{
horizontal = 1;
place = (453, 125);
place = (453, 125);
type = Stem;
}
);
layerId = m01;
shapes = (
{
closed = 1;
nodes = (
(937,586,ls),
(951,651,o),
(919,690,o),
(853,690,cs),
(764,690,ls),
(710,690,o),
(675,668,o),
(653,618,cs),
(459,175,l),
(452,596,ls),
(451,658,o),
(418,690,o),
(357,690,cs),
(256,690,ls),
(199,690,o),
(164,663,o),
(152,606,cs),
(45,97,ls),
(44,92,o),
(43,85,o),
(43,79,cs),
(43,30,o),
(82,-9,o),
(131,-9,cs),
(173,-9,o),
(209,21,o),
(217,61,cs),
(265,290,ls),
(278,350,o),
(297,439,o),
(310,509,c),
(306,439,o),
(307,350,o),
(310,290,cs),
(321,99,ls),
(324,39,o),
(374,-9,o),
(434,-9,cs),
(480,-9,o),
(520,18,o),
(538,56,cs),
(648,290,ls),
(677,351,o),
(716,439,o),
(743,509,c),
(726,439,o),
(707,350,o),
(694,290,cs),
(653,97,ls),
(652,92,o),
(652,85,o),
(652,79,cs),
(652,30,o),
(691,-9,o),
(740,-9,cs),
(782,-9,o),
(818,21,o),
(826,61,cs)
);
}
);
width = 923;
}
);
note = M;
unicode = 77;
},
{
glyphname = N;
lastChange = "2022-11-29 13:10:53 +0000";
layers = (
{
hints = (
{
horizontal = 1;
place = (-56, 21);
target = up;
type = BottomGhost;
},
{
horizontal = 1;
place = (634, -20);
target = down;
type = TopGhost;
},
{
place = (24, 124);
place = (24, 124);
type = Stem;
},
{
place = (504, 124);
place = (504, 124);
type = Stem;
}
);
layerId = m01;
shapes = (
{
closed = 1;
nodes = (
(598,0,ls),
(655,0,o),
(690,27,o),
(702,84,cs),
(809,593,ls),
(810,598,o),
(811,605,o),
(811,611,cs),
(811,660,o),
(772,699,o),
(723,699,cs),
(681,699,o),
(645,669,o),
(637,629,cs),
(588,395,ls),
(579,355,o),
(565,284,o),
(555,214,c),
(424,602,ls),
(405,658,o),
(351,699,o),
(288,699,cs),
(219,699,o),
(162,650,o),
(148,585,cs),
(45,97,ls),
(44,92,o),
(43,85,o),
(43,79,cs),
(43,30,o),
(82,-9,o),
(131,-9,cs),
(173,-9,o),
(209,21,o),
(217,61,cs),
(264,285,ls),
(273,325,o),
(286,386,o),
(295,456,c),
(423,77,ls),
(441,24,o),
(475,0,o),
(530,0,cs)
);
}
);
width = 794;
}
);
note = N;
unicode = 78;
},
{
glyphname = Nacute;
lastChange = "2022-11-29 13:10:53 +0000";
layers = (
{
hints = (
{
horizontal = 1;
place = (-56, 21);
target = up;
type = BottomGhost;
},
{
horizontal = 1;
place = (634, -20);
target = down;
type = TopGhost;
},
{
horizontal = 1;
place = (679, 69);
place = (679, 69);
type = Stem;
},
{
place = (24, 124);
place = (24, 124);
type = Stem;
},
{
place = (504, 124);
place = (504, 124);
type = Stem;
}
);
layerId = m01;
shapes = (
{
closed = 1;
nodes = (
(524,727,cs),
(612,801,o),
(605,868,o),
(605,868,cs),
(568,861,o),
(534,842,o),
(512,813,cs),
(486,778,o),
(523,726,o),
(523,726,c),
(523,726,o),
(523,726,o)
);
},
{
closed = 1;
nodes = (
(598,0,ls),
(655,0,o),
(690,27,o),
(702,84,cs),
(809,593,ls),
(810,598,o),
(811,605,o),
(811,611,cs),
(811,660,o),
(772,699,o),
(723,699,cs),
(681,699,o),
(645,669,o),
(637,629,cs),
(588,395,ls),
(579,355,o),
(565,284,o),
(555,214,c),
(424,602,ls),
(405,658,o),
(351,699,o),
(288,699,cs),
(219,699,o),
(162,650,o),
(148,585,cs),
(45,97,ls),
(44,92,o),
(43,85,o),
(43,79,cs),
(43,30,o),
(82,-9,o),
(131,-9,cs),
(173,-9,o),
(209,21,o),
(217,61,cs),
(264,285,ls),
(273,325,o),
(286,386,o),
(295,456,c),
(423,77,ls),
(441,24,o),
(475,0,o),
(530,0,cs)
);
}
);
width = 794;
}
);
note = Nacute;
unicode = 323;
},
{
glyphname = Ncaron;
lastChange = "2022-11-29 13:10:53 +0000";
layers = (
{
hints = (
{
horizontal = 1;
place = (-56, 21);
target = up;
type = BottomGhost;
},
{
horizontal = 1;
place = (634, -20);
target = down;
type = TopGhost;
},
{
horizontal = 1;
place = (679, 69);
place = (679, 69);
type = Stem;
},
{
place = (24, 124);
place = (24, 124);
type = Stem;
},
{
place = (504, 124);
place = (504, 124);
type = Stem;
}
);
layerId = m01;
shapes = (
{
closed = 1;
nodes = (
(469,735,cs),
(544,735,ls),
(590,735,o),
(630,769,o),
(635,815,cs),
(635,819,o),
(636,823,o),
(636,827,cs),
(636,850,o),
(617,869,o),
(594,869,cs),
(579,869,o),
(565,862,o),
(558,850,cs),
(517,784,l),
(508,822,ls),
(502,847,o),
(489,860,o),
(469,860,cs),
(435,860,o),
(406,832,o),
(406,797,cs),
(406,763,o),
(435,735,o)
);
},
{
closed = 1;
nodes = (
(809,593,ls),
(810,598,o),
(811,605,o),
(811,611,cs),
(811,660,o),
(772,699,o),
(723,699,cs),
(681,699,o),
(645,669,o),
(637,629,cs),
(588,395,ls),
(579,355,o),
(565,284,o),
(555,214,c),
(424,602,ls),
(405,658,o),
(351,699,o),
(288,699,cs),
(219,699,o),
(162,650,o),
(148,585,cs),
(45,97,ls),
(44,92,o),
(43,85,o),
(43,79,cs),
(43,30,o),
(82,-9,o),
(131,-9,cs),
(173,-9,o),
(209,21,o),
(217,61,cs),
(264,285,ls),
(273,325,o),
(286,386,o),
(295,456,c),
(423,77,ls),
(441,24,o),
(475,0,o),
(530,0,cs),
(598,0,ls),
(655,0,o),
(690,27,o),
(702,84,cs)
);
}
);
width = 794;
}
);
note = Ncaron;
unicode = 327;
},
{
glyphname = Ncommaaccent;
lastChange = "2022-11-29 13:10:53 +0000";
layers = (
{
hints = (
{
horizontal = 1;
place = (-272, 123);
place = (-272, 123);
type = Stem;
},
{
horizontal = 1;
place = (-56, 21);
target = up;
type = BottomGhost;
},
{
horizontal = 1;
place = (634, -20);
target = down;
type = TopGhost;
},
{
place = (24, 124);
place = (24, 124);
type = Stem;
},
{
place = (504, 124);
place = (504, 124);
type = Stem;
}
);
layerId = m01;
shapes = (
{
closed = 1;
nodes = (
(598,0,ls),
(655,0,o),
(690,27,o),
(702,84,cs),
(809,593,ls),
(810,598,o),
(811,605,o),
(811,611,cs),
(811,660,o),
(772,699,o),
(723,699,cs),
(681,699,o),
(645,669,o),
(637,629,cs),
(588,395,ls),
(579,355,o),
(565,284,o),
(555,214,c),
(424,602,ls),
(405,658,o),
(351,699,o),
(288,699,cs),
(219,699,o),
(162,650,o),
(148,585,cs),
(45,97,ls),
(44,92,o),
(43,85,o),
(43,79,cs),
(43,30,o),
(82,-9,o),
(131,-9,cs),
(173,-9,o),
(209,21,o),
(217,61,cs),
(264,285,ls),
(273,325,o),
(286,386,o),
(295,456,c),
(423,77,ls),
(441,24,o),
(475,0,o),
(530,0,cs)
);
},
{
closed = 1;
nodes = (
(352,-123,ls),
(391,-74,o),
(340,-6,o),
(340,-6,cs),
(311,-6,o),
(303,-32,o),
(288,-55,cs),
(216,-162,ls),
(212,-168,o),
(209,-176,o),
(209,-185,cs),
(209,-207,o),
(227,-225,o),
(249,-225,cs),
(262,-225,o),
(274,-219,o),
(281,-210,cs)
);
}
);
width = 794;
}
);
note = Ncommaaccent;
unicode = 325;
},
{
glyphname = Eng;
lastChange = "2022-11-29 13:10:53 +0000";
layers = (
{
hints = (
{
horizontal = 1;
place = (-279, 76);
place = (-279, 76);
type = Stem;
},
{
horizontal = 1;
place = (-56, 21);
target = up;
type = BottomGhost;
},
{
horizontal = 1;
place = (634, -20);
target = down;
type = TopGhost;
},
{
place = (24, 124);
place = (24, 124);
type = Stem;
},
{
place = (504, 124);
place = (504, 124);
type = Stem;
}
);
layerId = m01;
shapes = (
{
closed = 1;
nodes = (
(809,593,ls),
(810,598,o),
(811,605,o),
(811,611,cs),
(811,660,o),
(772,699,o),
(723,699,cs),
(681,699,o),
(645,668,o),
(637,629,cs),
(596,435,ls),
(588,395,o),
(574,324,o),
(564,254,c),
(427,606,ls),
(406,661,o),
(353,699,o),
(291,699,cs),
(220,699,o),
(161,650,o),
(147,583,cs),
(45,97,ls),
(44,92,o),
(43,85,o),
(43,79,cs),
(43,30,o),
(82,-9,o),
(131,-9,cs),
(173,-9,o),
(209,21,o),
(217,61,cs),
(264,285,ls),
(273,325,o),
(286,386,o),
(295,456,c),
(499,-20,l),
(497,-33,ls),
(492,-58,o),
(479,-75,o),
(442,-84,cs),
(412,-91,o),
(388,-118,o),
(388,-150,cs),
(388,-193,o),
(426,-221,o),
(462,-218,cs),
(583,-208,o),
(639,-170,o),
(662,-98,cs),
(666,-84,o),
(668,-75,o),
(672,-57,cs)
);
}
);
width = 794;
}
);
note = Eng;
unicode = 330;
},
{
glyphname = Ntilde;
lastChange = "2022-11-29 13:10:53 +0000";
layers = (
{
hints = (
{
horizontal = 1;
place = (-56, 21);
target = up;
type = BottomGhost;
},
{
horizontal = 1;
place = (634, -20);
target = down;
type = TopGhost;
},
{
horizontal = 1;
place = (686, 78);
place = (686, 78);
type = Stem;
},
{
place = (185, 40);
place = (185, 40);
type = Stem;
},
{
place = (504, 124);
place = (504, 124);
type = Stem;
},
{
horizontal = 1;
place = (683, 78);
place = (683, 78);
type = Stem;
},
{
place = (24, 124);
place = (24, 124);
type = Stem;
},
{
place = (417, 40);
place = (417, 40);
type = Stem;
}
);
layerId = m01;
shapes = (
{
closed = 1;
nodes = (
(414,876,o),
(381,852,o),
(359,795,cs),
(357,790,o),
(356,785,o),
(356,779,cs),
(356,753,o),
(377,733,o),
(402,733,cs),
(421,733,o),
(438,745,o),
(445,761,cs),
(449,770,o),
(453,773,o),
(460,773,cs),
(468,773,o),
(480,768,o),
(502,758,cs),
(535,742,o),
(551,739,o),
(580,739,cs),
(628,739,o),
(660,763,o),
(681,821,cs),
(683,826,o),
(684,831,o),
(684,837,cs),
(684,862,o),
(664,882,o),
(639,882,cs),
(619,882,o),
(603,870,o),
(596,854,cs),
(592,845,o),
(587,842,o),
(581,842,cs),
(573,842,o),
(560,846,o),
(539,857,cs),
(506,873,o),
(490,876,o),
(461,876,cs)
);
},
{
closed = 1;
nodes = (
(598,0,ls),
(655,0,o),
(690,27,o),
(702,84,cs),
(809,593,ls),
(810,598,o),
(811,605,o),
(811,611,cs),
(811,660,o),
(772,699,o),
(723,699,cs),
(681,699,o),
(645,669,o),
(637,629,cs),
(588,395,ls),
(579,355,o),
(565,284,o),
(555,214,c),
(424,602,ls),
(405,658,o),
(351,699,o),
(288,699,cs),
(219,699,o),
(162,650,o),
(148,585,cs),
(45,97,ls),
(44,92,o),
(43,85,o),
(43,79,cs),
(43,30,o),
(82,-9,o),
(131,-9,cs),
(173,-9,o),
(209,21,o),
(217,61,cs),
(264,285,ls),
(273,325,o),
(286,386,o),
(295,456,c),
(423,77,ls),
(441,24,o),
(475,0,o),
(530,0,cs)
);
}
);
width = 794;
}
);
note = Ntilde;
unicode = 209;
},
{
glyphname = O;
kernLeft = C;
kernRight = D;
lastChange = "2022-11-29 13:08:13 +0000";
layers = (
{
hints = (
{
horizontal = 1;
place = (-70, 76);
place = (-70, 76);
type = Stem;
},
{
horizontal = 1;
place = (516, 76);
place = (516, 76);
type = Stem;
},
{
place = (-2, 128);
place = (-2, 128);
type = Stem;
},
{
place = (520, 128);
place = (520, 128);
type = Stem;
}
);
layerId = m01;
shapes = (
{
closed = 1;
nodes = (
(285,704,o),
(118,567,o),
(71,345,cs),
(24,124,o),
(133,-14,o),
(348,-14,cs),
(563,-14,o),
(730,124,o),
(777,345,cs),
(824,567,o),
(715,704,o),
(500,704,cs)
);
},
{
closed = 1;
nodes = (
(272,118,o),
(224,199,o),
(255,345,cs),
(286,492,o),
(368,572,o),
(472,572,cs),
(576,572,o),
(624,492,o),
(593,345,cs),
(562,199,o),
(480,118,o),
(376,118,cs)
);
}
);
width = 788;
}
);
note = O;
unicode = 79;
},
{
glyphname = Oacute;
kernLeft = C;
kernRight = D;
lastChange = "2022-11-29 13:10:53 +0000";
layers = (
{
hints = (
{
horizontal = 1;
place = (-70, 76);
place = (-70, 76);
type = Stem;
},
{
horizontal = 1;
place = (516, 76);
place = (516, 76);
type = Stem;
},
{
horizontal = 1;
place = (679, 69);
place = (679, 69);
type = Stem;
},
{
place = (-2, 128);
place = (-2, 128);
type = Stem;
},
{
place = (520, 128);
place = (520, 128);
type = Stem;
}
);
layerId = m01;
shapes = (
{
closed = 1;
nodes = (
(526,727,cs),
(614,801,o),
(607,868,o),
(607,868,cs),
(570,861,o),
(536,842,o),
(514,813,cs),
(488,778,o),
(525,726,o),
(525,726,c),
(525,726,o),
(525,726,o)
);
},
{
closed = 1;
nodes = (
(285,704,o),
(118,567,o),
(71,345,cs),
(24,124,o),
(133,-14,o),
(348,-14,cs),
(563,-14,o),
(730,124,o),
(777,345,cs),
(824,567,o),
(715,704,o),
(500,704,cs)
);
},
{
closed = 1;
nodes = (
(272,118,o),
(224,199,o),
(255,345,cs),
(286,492,o),
(368,572,o),
(472,572,cs),
(576,572,o),
(624,492,o),
(593,345,cs),
(562,199,o),
(480,118,o),
(376,118,cs)
);
}
);
width = 788;
}
);
note = Oacute;
unicode = 211;
},
{
glyphname = Ocircumflex;
kernLeft = C;
kernRight = D;
lastChange = "2022-11-29 13:10:53 +0000";
layers = (
{
hints = (
{
horizontal = 1;
place = (-70, 76);
place = (-70, 76);
type = Stem;
},
{
horizontal = 1;
place = (516, 76);
place = (516, 76);
type = Stem;
},
{
horizontal = 1;
place = (679, 69);
place = (679, 69);
type = Stem;
},
{
place = (-2, 128);
place = (-2, 128);
type = Stem;
},
{
place = (520, 128);
place = (520, 128);
type = Stem;
}
);
layerId = m01;
shapes = (
{
closed = 1;
nodes = (
(481,745,cs),
(522,811,l),
(531,773,ls),
(537,748,o),
(550,735,o),
(570,735,cs),
(604,735,o),
(633,763,o),
(633,798,cs),
(633,832,o),
(604,860,o),
(570,860,cs),
(495,860,ls),
(449,860,o),
(409,826,o),
(404,780,cs),
(404,776,o),
(403,772,o),
(403,768,cs),
(403,745,o),
(422,726,o),
(445,726,cs),
(460,726,o),
(474,733,o)
);
},
{
closed = 1;
nodes = (
(285,704,o),
(118,567,o),
(71,345,cs),
(24,124,o),
(133,-14,o),
(348,-14,cs),
(563,-14,o),
(730,124,o),
(777,345,cs),
(824,567,o),
(715,704,o),
(500,704,cs)
);
},
{
closed = 1;
nodes = (
(272,118,o),
(224,199,o),
(255,345,cs),
(286,492,o),
(368,572,o),
(472,572,cs),
(576,572,o),
(624,492,o),
(593,345,cs),
(562,199,o),
(480,118,o),
(376,118,cs)
);
}
);
width = 788;
}
);
note = Ocircumflex;
unicode = 212;
},
{
glyphname = Odieresis;
kernLeft = C;
kernRight = D;
lastChange = "2022-11-29 13:10:53 +0000";
layers = (
{
hints = (
{
horizontal = 1;
place = (-70, 76);
place = (-70, 76);
type = Stem;
},
{
horizontal = 1;
place = (516, 76);
place = (516, 76);
type = Stem;
},
{
horizontal = 1;
place = (666, 90);
place = (666, 90);
type = Stem;
},
{
place = (176, 94);
place = (176, 94);
type = Stem;
},
{
place = (376, 94);
place = (376, 94);
type = Stem;
},
{
place = (-2, 128);
place = (-2, 128);
type = Stem;
},
{
place = (520, 128);
place = (520, 128);
type = Stem;
}
);
layerId = m01;
shapes = (
{
closed = 1;
nodes = (
(285,704,o),
(118,567,o),
(71,345,cs),
(24,124,o),
(133,-14,o),
(348,-14,cs),
(563,-14,o),
(730,124,o),
(777,345,cs),
(824,567,o),
(715,704,o),
(500,704,cs)
);
},
{
closed = 1;
nodes = (
(272,118,o),
(224,199,o),
(255,345,cs),
(286,492,o),
(368,572,o),
(472,572,cs),
(576,572,o),
(624,492,o),
(593,345,cs),
(562,199,o),
(480,118,o),
(376,118,cs)
);
},
{
closed = 1;
nodes = (
(412,724,cs),
(458,724,o),
(486,745,o),
(495,790,cs),
(504,835,o),
(470,880,o),
(422,880,cs),
(410,880,o),
(398,876,o),
(388,871,cs),
(360,857,o),
(339,830,o),
(339,797,cs),
(339,757,o),
(372,724,o)
);
},
{
closed = 1;
nodes = (
(613,724,cs),
(659,724,o),
(687,745,o),
(696,790,cs),
(705,835,o),
(671,880,o),
(623,880,cs),
(611,880,o),
(600,877,o),
(590,872,cs),
(561,857,o),
(540,830,o),
(540,798,cs),
(540,757,o),
(573,724,o)
);
}
);
width = 788;
}
);
note = Odieresis;
unicode = 214;
},
{
glyphname = Ograve;
kernLeft = C;
kernRight = D;
lastChange = "2022-11-29 13:10:53 +0000";
layers = (
{
hints = (
{
horizontal = 1;
place = (-70, 76);
place = (-70, 76);
type = Stem;
},
{
horizontal = 1;
place = (516, 76);
place = (516, 76);
type = Stem;
},
{
horizontal = 1;
place = (679, 69);
place = (679, 69);
type = Stem;
},
{
place = (-2, 128);
place = (-2, 128);
type = Stem;
},
{
place = (520, 128);
place = (520, 128);
type = Stem;
}
);
layerId = m01;
shapes = (
{
closed = 1;
nodes = (
(484,735,c),
(514,739,o),
(538,766,o),
(538,798,cs),
(538,829,o),
(514,856,o),
(484,860,c),
(450,860,o),
(422,832,o),
(422,797,cs),
(422,763,o),
(450,735,o)
);
},
{
closed = 1;
nodes = (
(285,704,o),
(118,567,o),
(71,345,cs),
(24,124,o),
(133,-14,o),
(348,-14,cs),
(563,-14,o),
(730,124,o),
(777,345,cs),
(824,567,o),
(715,704,o),
(500,704,cs)
);
},
{
closed = 1;
nodes = (
(272,118,o),
(224,199,o),
(255,345,cs),
(286,492,o),
(368,572,o),
(472,572,cs),
(576,572,o),
(624,492,o),
(593,345,cs),
(562,199,o),
(480,118,o),
(376,118,cs)
);
}
);
width = 788;
}
);
note = Ograve;
unicode = 210;
},
{
glyphname = Ohungarumlaut;
kernLeft = C;
kernRight = D;
lastChange = "2022-11-29 13:10:53 +0000";
layers = (
{
hints = (
{
horizontal = 1;
place = (-70, 76);
place = (-70, 76);
type = Stem;
},
{
horizontal = 1;
place = (516, 76);
place = (516, 76);
type = Stem;
},
{
horizontal = 1;
place = (680, 69);
place = (680, 69);
type = Stem;
},
{
place = (-2, 128);
place = (-2, 128);
type = Stem;
},
{
place = (520, 128);
place = (520, 128);
type = Stem;
}
);
layerId = m01;
shapes = (
{
closed = 1;
nodes = (
(403,728,cs),
(491,802,o),
(485,869,o),
(485,869,cs),
(447,863,o),
(413,842,o),
(391,814,cs),
(365,779,o),
(402,727,o),
(402,727,c),
(402,727,o),
(402,727,o)
);
},
{
closed = 1;
nodes = (
(601,754,o),
(711,794,o),
(718,807,o),
(718,823,cs),
(718,849,o),
(697,870,o),
(671,870,cs),
(665,870,o),
(660,869,o),
(655,867,cs),
(625,856,o),
(601,830,o),
(601,798,cs),
(601,798,o),
(601,798,o)
);
},
{
closed = 1;
nodes = (
(285,704,o),
(118,567,o),
(71,345,cs),
(24,124,o),
(133,-14,o),
(348,-14,cs),
(563,-14,o),
(730,124,o),
(777,345,cs),
(824,567,o),
(715,704,o),
(500,704,cs)
);
},
{
closed = 1;
nodes = (
(272,118,o),
(224,199,o),
(255,345,cs),
(286,492,o),
(368,572,o),
(472,572,cs),
(576,572,o),
(624,492,o),
(593,345,cs),
(562,199,o),
(480,118,o),
(376,118,cs)
);
}
);
width = 788;
}
);
note = Ohungarumlaut;
unicode = 336;
},
{
glyphname = Omacron;
kernLeft = C;
kernRight = D;
lastChange = "2022-11-29 13:10:53 +0000";
layers = (
{
hints = (
{
horizontal = 1;
place = (-70, 76);
place = (-70, 76);
type = Stem;
},
{
horizontal = 1;
place = (516, 76);
place = (516, 76);
type = Stem;
},
{
horizontal = 1;
place = (704, 40);
place = (704, 40);
type = Stem;
},
{
place = (-2, 128);
place = (-2, 128);
type = Stem;
},
{
place = (201, 244);
place = (201, 244);
type = Stem;
},
{
place = (520, 128);
place = (520, 128);
type = Stem;
}
);
layerId = m01;
shapes = (
{
closed = 1;
nodes = (
(633,760,ls),
(659,760,o),
(681,781,o),
(681,808,cs),
(681,835,o),
(659,856,o),
(633,856,cs),
(412,856,ls),
(386,856,o),
(364,835,o),
(364,808,cs),
(364,781,o),
(386,760,o),
(412,760,cs)
);
},
{
closed = 1;
nodes = (
(285,704,o),
(118,567,o),
(71,345,cs),
(24,124,o),
(133,-14,o),
(348,-14,cs),
(563,-14,o),
(730,124,o),
(777,345,cs),
(824,567,o),
(715,704,o),
(500,704,cs)
);
},
{
closed = 1;
nodes = (
(272,118,o),
(224,199,o),
(255,345,cs),
(286,492,o),
(368,572,o),
(472,572,cs),
(576,572,o),
(624,492,o),
(593,345,cs),
(562,199,o),
(480,118,o),
(376,118,cs)
);
}
);
width = 788;
}
);
note = Omacron;
unicode = 332;
},
{
glyphname = Oslash;
kernLeft = C;
kernRight = D;
lastChange = "2022-11-29 13:10:53 +0000";
layers = (
{
hints = (
{
horizontal = 1;
place = (-70, 76);
place = (-70, 76);
type = Stem;
},
{
horizontal = 1;
place = (516, 76);
place = (516, 76);
type = Stem;
},
{
place = (-1, 128);
place = (-1, 128);
type = Stem;
},
{
place = (521, 128);
place = (521, 128);
type = Stem;
}
);
layerId = m01;
shapes = (
{
closed = 1;
nodes = (
(817,611,ls),
(827,619,o),
(834,632,o),
(834,645,cs),
(834,670,o),
(814,690,o),
(789,690,cs),
(778,690,o),
(769,687,o),
(761,680,cs),
(710,638,l),
(660,681,o),
(590,704,o),
(501,704,cs),
(286,704,o),
(119,567,o),
(72,345,cs),
(53,257,o),
(59,182,o),
(87,124,c),
(33,79,ls),
(23,71,o),
(16,58,o),
(16,45,cs),
(16,20,o),
(36,0,o),
(61,0,cs),
(72,0,o),
(81,3,o),
(89,10,cs),
(141,53,l),
(190,9,o),
(260,-14,o),
(349,-14,cs),
(564,-14,o),
(731,124,o),
(778,345,cs),
(797,433,o),
(791,508,o),
(763,566,c)
);
},
{
closed = 1;
nodes = (
(287,492,o),
(369,572,o),
(473,572,cs),
(519,572,o),
(554,557,o),
(576,527,c),
(247,256,l),
(246,282,o),
(249,312,o),
(256,345,cs)
);
},
{
closed = 1;
nodes = (
(563,199,o),
(481,118,o),
(377,118,cs),
(331,118,o),
(296,133,o),
(274,163,c),
(603,434,l),
(604,408,o),
(601,378,o),
(594,345,cs)
);
}
);
width = 790;
}
);
note = Oslash;
unicode = 216;
},
{
glyphname = Otilde;
kernLeft = C;
kernRight = D;
lastChange = "2022-11-29 13:10:53 +0000";
layers = (
{
hints = (
{
horizontal = 1;
place = (-70, 76);
place = (-70, 76);
type = Stem;
},
{
horizontal = 1;
place = (516, 76);
place = (516, 76);
type = Stem;
},
{
horizontal = 1;
place = (686, 78);
place = (686, 78);
type = Stem;
},
{
place = (187, 40);
place = (187, 40);
type = Stem;
},
{
place = (520, 128);
place = (520, 128);
type = Stem;
},
{
horizontal = 1;
place = (683, 78);
place = (683, 78);
type = Stem;
},
{
place = (-2, 128);
place = (-2, 128);
type = Stem;
},
{
place = (419, 40);
place = (419, 40);
type = Stem;
}
);
layerId = m01;
shapes = (
{
closed = 1;
nodes = (
(470,773,o),
(482,768,o),
(504,758,cs),
(537,742,o),
(553,739,o),
(582,739,cs),
(630,739,o),
(662,763,o),
(683,821,cs),
(685,826,o),
(686,831,o),
(686,837,cs),
(686,862,o),
(666,882,o),
(641,882,cs),
(621,882,o),
(605,870,o),
(598,854,cs),
(594,845,o),
(589,842,o),
(583,842,cs),
(575,842,o),
(562,846,o),
(541,857,cs),
(508,873,o),
(492,876,o),
(463,876,cs),
(416,876,o),
(383,852,o),
(361,795,cs),
(359,790,o),
(358,785,o),
(358,779,cs),
(358,753,o),
(379,733,o),
(404,733,cs),
(423,733,o),
(440,745,o),
(447,761,cs),
(451,770,o),
(455,773,o),
(462,773,cs)
);
},
{
closed = 1;
nodes = (
(285,704,o),
(118,567,o),
(71,345,cs),
(24,124,o),
(133,-14,o),
(348,-14,cs),
(563,-14,o),
(730,124,o),
(777,345,cs),
(824,567,o),
(715,704,o),
(500,704,cs)
);
},
{
closed = 1;
nodes = (
(272,118,o),
(224,199,o),
(255,345,cs),
(286,492,o),
(368,572,o),
(472,572,cs),
(576,572,o),
(624,492,o),
(593,345,cs),
(562,199,o),
(480,118,o),
(376,118,cs)
);
}
);
width = 788;
}
);
note = Otilde;
unicode = 213;
},
{
glyphname = OE;
kernLeft = C;
lastChange = "2022-11-29 13:10:53 +0000";
layers = (
{
hints = (
{
horizontal = 1;
place = (-56, 84);
place = (-56, 84);
type = Stem;
},
{
horizontal = 1;
place = (220, 84);
place = (220, 84);
type = Stem;
},
{
horizontal = 1;
place = (494, 84);
place = (494, 84);
type = Stem;
},
{
place = (-2, 128);
place = (-2, 128);
type = Stem;
},
{
place = (520, 124);
place = (520, 124);
type = Stem;
},
{
horizontal = 1;
place = (-70, 76);
place = (-70, 76);
type = Stem;
},
{
horizontal = 1;
place = (516, 76);
place = (516, 76);
type = Stem;
}
);
layerId = m01;
shapes = (
{
closed = 1;
nodes = (
(1001,140,cs),
(729,140,l),
(758,276,l),
(1030,276,ls),
(1068,276,o),
(1100,307,o),
(1100,346,cs),
(1100,385,o),
(1068,416,o),
(1030,416,cs),
(788,416,l),
(817,550,l),
(1108,550,ls),
(1146,550,o),
(1178,581,o),
(1178,620,cs),
(1178,659,o),
(1146,690,o),
(1108,690,cs),
(752,690,ls),
(695,690,o),
(661,663,o),
(649,606,cs),
(645,588,l),
(636,622,ls),
(630,646,o),
(616,674,o),
(573,690,cs),
(545,701,o),
(511,704,o),
(460,704,cs),
(285,704,o),
(118,567,o),
(71,345,cs),
(24,124,o),
(133,-14,o),
(308,-14,cs),
(369,-14,o),
(406,-9,o),
(443,6,cs),
(483,24,o),
(505,49,o),
(530,85,cs),
(542,103,l),
(531,52,ls),
(524,19,o),
(560,0,o),
(626,0,cs),
(1001,0,ls),
(1039,0,o),
(1071,31,o),
(1071,70,cs),
(1071,109,o),
(1039,140,o)
);
},
{
closed = 1;
nodes = (
(272,118,o),
(224,199,o),
(255,345,cs),
(286,492,o),
(368,572,o),
(472,572,cs),
(576,572,o),
(624,492,o),
(593,345,cs),
(562,199,o),
(480,118,o),
(376,118,cs)
);
}
);
width = 1135;
}
);
note = OE;
unicode = 338;
},
{
glyphname = P;
kernRight = P;
lastChange = "2022-11-29 13:10:53 +0000";
layers = (
{
hints = (
{
horizontal = 1;
place = (-56, 21);
target = up;
type = BottomGhost;
},
{
horizontal = 1;
place = (186, 84);
place = (186, 84);
type = Stem;
},
{
horizontal = 1;
place = (494, 84);
place = (494, 84);
type = Stem;
},
{
place = (24, 124);
place = (24, 124);
type = Stem;
},
{
place = (395, 132);
place = (395, 132);
type = Stem;
}
);
layerId = m01;
shapes = (
{
closed = 1;
nodes = (
(501,689,o),
(473,690,o),
(430,690,cs),
(256,690,ls),
(199,690,o),
(164,663,o),
(152,606,cs),
(45,97,ls),
(44,92,o),
(43,85,o),
(43,79,cs),
(43,30,o),
(82,-9,o),
(131,-9,cs),
(173,-9,o),
(209,21,o),
(217,61,cs),
(255,242,l),
(335,242,ls),
(378,242,o),
(406,243,o),
(444,247,cs),
(547,259,o),
(653,330,o),
(682,466,cs),
(711,602,o),
(635,673,o),
(537,685,cs)
);
},
{
closed = 1;
nodes = (
(390,382,o),
(374,382,o),
(355,382,cs),
(285,382,l),
(321,550,l),
(391,550,ls),
(410,550,o),
(426,550,o),
(438,549,cs),
(484,545,o),
(505,518,o),
(494,466,cs),
(483,414,o),
(450,387,o),
(403,383,cs)
);
}
);
width = 644;
}
);
note = P;
unicode = 80;
},
{
glyphname = Thorn;
lastChange = "2022-11-29 13:10:53 +0000";
layers = (
{
hints = (
{
horizontal = 1;
place = (-56, 21);
target = up;
type = BottomGhost;
},
{
horizontal = 1;
place = (118, 84);
place = (118, 84);
type = Stem;
},
{
horizontal = 1;
place = (406, 84);
place = (406, 84);
type = Stem;
},
{
horizontal = 1;
place = (634, -20);
target = down;
type = TopGhost;
},
{
place = (24, 124);
place = (24, 124);
type = Stem;
},
{
place = (395, 132);
place = (395, 132);
type = Stem;
}
);
layerId = m01;
shapes = (
{
closed = 1;
nodes = (
(491,601,o),
(464,602,o),
(421,602,cs),
(332,602,l),
(337,652,o),
(299,699,o),
(244,699,cs),
(201,699,o),
(165,669,o),
(157,629,cs),
(45,97,ls),
(44,92,o),
(43,85,o),
(43,79,cs),
(43,30,o),
(82,-9,o),
(131,-9,cs),
(173,-9,o),
(209,21,o),
(217,61,cs),
(241,174,l),
(330,174,ls),
(373,174,o),
(401,175,o),
(439,179,cs),
(541,191,o),
(637,255,o),
(665,388,cs),
(693,521,o),
(625,585,o),
(528,597,cs)
);
},
{
closed = 1;
nodes = (
(375,314,o),
(359,314,o),
(340,314,cs),
(270,314,l),
(302,462,l),
(372,462,ls),
(391,462,o),
(407,462,o),
(420,461,cs),
(465,457,o),
(487,435,o),
(477,388,cs),
(467,341,o),
(435,319,o),
(389,315,cs)
);
}
);
width = 653;
}
);
note = Thorn;
unicode = 222;
},
{
glyphname = Q;
kernLeft = C;
lastChange = "2022-11-29 13:10:53 +0000";
layers = (
{
hints = (
{
horizontal = 1;
place = (-70, 76);
place = (-70, 76);
type = Stem;
},
{
horizontal = 1;
place = (517, 76);
place = (517, 76);
type = Stem;
},
{
place = (-2, 128);
place = (-2, 128);
type = Stem;
},
{
place = (520, 128);
place = (520, 128);
type = Stem;
},
{
horizontal = 1;
place = (-54, 60);
place = (-54, 60);
type = Stem;
}
);
layerId = m01;
shapes = (
{
closed = 1;
nodes = (
(713,182,o),
(759,261,o),
(777,345,cs),
(824,567,o),
(716,705,o),
(501,705,cs),
(286,705,o),
(118,567,o),
(71,345,cs),
(24,124,o),
(133,-14,o),
(348,-14,cs),
(374,-14,o),
(397,-12,o),
(420,-7,cs),
(449,-1,o),
(467,2,o),
(495,2,cs),
(527,2,o),
(551,-3,o),
(583,-21,cs),
(594,-27,o),
(607,-31,o),
(622,-31,cs),
(665,-31,o),
(701,4,o),
(701,48,cs),
(701,82,o),
(679,114,o),
(649,125,cs),
(647,126,o),
(645,126,o),
(643,127,c)
);
},
{
closed = 1;
nodes = (
(286,492,o),
(368,573,o),
(472,573,cs),
(576,573,o),
(624,492,o),
(593,345,cs),
(562,199,o),
(480,118,o),
(376,118,cs),
(272,118,o),
(224,199,o),
(255,345,cs)
);
}
);
width = 791;
}
);
note = Q;
unicode = 81;
},
{
glyphname = R;
lastChange = "2022-11-29 13:10:53 +0000";
layers = (
{
hints = (
{
horizontal = 1;
place = (-56, 21);
target = up;
type = BottomGhost;
},
{
horizontal = 1;
place = (206, 74);
place = (206, 74);
type = Stem;
},
{
horizontal = 1;
place = (494, 84);
place = (494, 84);
type = Stem;
},
{
place = (24, 124);
place = (24, 124);
type = Stem;
},
{
place = (405, 132);
place = (405, 132);
type = Stem;
}
);
layerId = m01;
shapes = (
{
closed = 1;
nodes = (
(605,251,o),
(590,304,o),
(524,330,c),
(622,357,o),
(681,415,o),
(699,502,cs),
(725,624,o),
(649,673,o),
(551,685,cs),
(515,689,o),
(487,690,o),
(444,690,cs),
(256,690,ls),
(199,690,o),
(164,663,o),
(152,606,cs),
(45,97,ls),
(44,92,o),
(43,85,o),
(43,79,cs),
(43,30,o),
(82,-9,o),
(131,-9,cs),
(173,-9,o),
(209,21,o),
(217,61,cs),
(259,262,l),
(299,262,ls),
(319,262,o),
(336,262,o),
(356,261,cs),
(402,258,o),
(422,214,o),
(415,138,cs),
(413,118,o),
(413,100,o),
(413,81,cs),
(413,31,o),
(453,-9,o),
(503,-9,cs),
(558,-9,o),
(597,37,o),
(595,86,cs),
(593,110,o),
(594,137,o),
(597,168,cs)
);
},
{
closed = 1;
nodes = (
(287,392,l),
(321,550,l),
(391,550,ls),
(410,550,o),
(426,550,o),
(438,549,cs),
(484,545,o),
(517,529,o),
(505,471,cs),
(492,413,o),
(447,397,o),
(400,393,cs),
(387,392,o),
(371,392,o),
(352,392,cs)
);
}
);
width = 682;
}
);
note = R;
unicode = 82;
},
{
glyphname = Racute;
lastChange = "2022-11-29 13:10:53 +0000";
layers = (
{
hints = (
{
horizontal = 1;
place = (-56, 21);
target = up;
type = BottomGhost;
},
{
horizontal = 1;
place = (206, 74);
place = (206, 74);
type = Stem;
},
{
horizontal = 1;
place = (494, 84);
place = (494, 84);
type = Stem;
},
{
horizontal = 1;
place = (679, 69);
place = (679, 69);
type = Stem;
},
{
place = (24, 124);
place = (24, 124);
type = Stem;
},
{
place = (405, 132);
place = (405, 132);
type = Stem;
}
);
layerId = m01;
shapes = (
{
closed = 1;
nodes = (
(479,727,cs),
(567,801,o),
(560,868,o),
(560,868,cs),
(523,861,o),
(489,842,o),
(467,813,cs),
(441,778,o),
(478,726,o),
(478,726,c),
(478,726,o),
(478,726,o)
);
},
{
closed = 1;
nodes = (
(605,251,o),
(590,304,o),
(524,330,c),
(622,357,o),
(681,415,o),
(699,502,cs),
(725,624,o),
(649,673,o),
(551,685,cs),
(515,689,o),
(487,690,o),
(444,690,cs),
(256,690,ls),
(199,690,o),
(164,663,o),
(152,606,cs),
(45,97,ls),
(44,92,o),
(43,85,o),
(43,79,cs),
(43,30,o),
(82,-9,o),
(131,-9,cs),
(173,-9,o),
(209,21,o),
(217,61,cs),
(259,262,l),
(299,262,ls),
(319,262,o),
(336,262,o),
(356,261,cs),
(402,258,o),
(422,214,o),
(415,138,cs),
(413,118,o),
(413,100,o),
(413,81,cs),
(413,31,o),
(453,-9,o),
(503,-9,cs),
(558,-9,o),
(597,37,o),
(595,86,cs),
(593,110,o),
(594,137,o),
(597,168,cs)
);
},
{
closed = 1;
nodes = (
(287,392,l),
(321,550,l),
(391,550,ls),
(410,550,o),
(426,550,o),
(438,549,cs),
(484,545,o),
(517,529,o),
(505,471,cs),
(492,413,o),
(447,397,o),
(400,393,cs),
(387,392,o),
(371,392,o),
(352,392,cs)
);
}
);
width = 682;
}
);
note = Racute;
unicode = 340;
},
{
glyphname = Rcaron;
lastChange = "2022-11-29 13:10:53 +0000";
layers = (
{
hints = (
{
horizontal = 1;
place = (-56, 21);
target = up;
type = BottomGhost;
},
{
horizontal = 1;
place = (206, 74);
place = (206, 74);
type = Stem;
},
{
horizontal = 1;
place = (494, 84);
place = (494, 84);
type = Stem;
},
{
horizontal = 1;
place = (679, 69);
place = (679, 69);
type = Stem;
},
{
place = (24, 124);
place = (24, 124);
type = Stem;
},
{
place = (405, 132);
place = (405, 132);
type = Stem;
}
);
layerId = m01;
shapes = (
{
closed = 1;
nodes = (
(424,735,cs),
(499,735,ls),
(545,735,o),
(585,769,o),
(590,815,cs),
(590,819,o),
(591,823,o),
(591,827,cs),
(591,850,o),
(572,869,o),
(549,869,cs),
(534,869,o),
(520,862,o),
(513,850,cs),
(472,784,l),
(463,822,ls),
(457,847,o),
(444,860,o),
(424,860,cs),
(390,860,o),
(361,832,o),
(361,797,cs),
(361,763,o),
(390,735,o)
);
},
{
closed = 1;
nodes = (
(605,251,o),
(590,304,o),
(524,330,c),
(622,357,o),
(681,415,o),
(699,502,cs),
(725,624,o),
(649,673,o),
(551,685,cs),
(515,689,o),
(487,690,o),
(444,690,cs),
(256,690,ls),
(199,690,o),
(164,663,o),
(152,606,cs),
(45,97,ls),
(44,92,o),
(43,85,o),
(43,79,cs),
(43,30,o),
(82,-9,o),
(131,-9,cs),
(173,-9,o),
(209,21,o),
(217,61,cs),
(259,262,l),
(299,262,ls),
(319,262,o),
(336,262,o),
(356,261,cs),
(402,258,o),
(422,214,o),
(415,138,cs),
(413,118,o),
(413,100,o),
(413,81,cs),
(413,31,o),
(453,-9,o),
(503,-9,cs),
(558,-9,o),
(597,37,o),
(595,86,cs),
(593,110,o),
(594,137,o),
(597,168,cs)
);
},
{
closed = 1;
nodes = (
(287,392,l),
(321,550,l),
(391,550,ls),
(410,550,o),
(426,550,o),
(438,549,cs),
(484,545,o),
(517,529,o),
(505,471,cs),
(492,413,o),
(447,397,o),
(400,393,cs),
(387,392,o),
(371,392,o),
(352,392,cs)
);
}
);
width = 682;
}
);
note = Rcaron;
unicode = 344;
},
{
glyphname = Rcommaaccent;
lastChange = "2022-11-29 13:10:53 +0000";
layers = (
{
hints = (
{
horizontal = 1;
place = (-272, 123);
place = (-272, 123);
type = Stem;
},
{
horizontal = 1;
place = (-56, 21);
target = up;
type = BottomGhost;
},
{
horizontal = 1;
place = (206, 74);
place = (206, 74);
type = Stem;
},
{
horizontal = 1;
place = (494, 84);
place = (494, 84);
type = Stem;
},
{
place = (24, 124);
place = (24, 124);
type = Stem;
},
{
place = (405, 132);
place = (405, 132);
type = Stem;
}
);
layerId = m01;
shapes = (
{
closed = 1;
nodes = (
(605,251,o),
(590,304,o),
(524,330,c),
(622,357,o),
(681,415,o),
(699,502,cs),
(725,624,o),
(649,673,o),
(551,685,cs),
(515,689,o),
(487,690,o),
(444,690,cs),
(256,690,ls),
(199,690,o),
(164,663,o),
(152,606,cs),
(45,97,ls),
(44,92,o),
(43,85,o),
(43,79,cs),
(43,30,o),
(82,-9,o),
(131,-9,cs),
(173,-9,o),
(209,21,o),
(217,61,cs),
(259,262,l),
(299,262,ls),
(319,262,o),
(336,262,o),
(356,261,cs),
(402,258,o),
(422,214,o),
(415,138,cs),
(413,118,o),
(413,100,o),
(413,81,cs),
(413,31,o),
(453,-9,o),
(503,-9,cs),
(558,-9,o),
(597,37,o),
(595,86,cs),
(593,110,o),
(594,137,o),
(597,168,cs)
);
},
{
closed = 1;
nodes = (
(287,392,l),
(321,550,l),
(391,550,ls),
(410,550,o),
(426,550,o),
(438,549,cs),
(484,545,o),
(517,529,o),
(505,471,cs),
(492,413,o),
(447,397,o),
(400,393,cs),
(387,392,o),
(371,392,o),
(352,392,cs)
);
},
{
closed = 1;
nodes = (
(236,-55,cs),
(164,-162,ls),
(160,-168,o),
(157,-176,o),
(157,-184,cs),
(157,-207,o),
(175,-225,o),
(197,-225,cs),
(210,-225,o),
(222,-219,o),
(229,-210,cs),
(300,-123,ls),
(339,-74,o),
(288,-6,o),
(288,-6,cs),
(259,-6,o),
(251,-33,o)
);
}
);
width = 682;
}
);
note = Rcommaaccent;
unicode = 342;
},
{
glyphname = S;
kernLeft = S;
kernRight = S;
lastChange = "2022-11-29 13:10:53 +0000";
layers = (
{
hints = (
{
horizontal = 1;
place = (-70, 76);
place = (-70, 76);
type = Stem;
},
{
horizontal = 1;
place = (516, 76);
place = (516, 76);
type = Stem;
},
{
place = (5, 132);
place = (5, 132);
type = Stem;
},
{
place = (365, 132);
place = (365, 132);
type = Stem;
}
);
layerId = m01;
shapes = (
{
closed = 1;
nodes = (
(278,704,o),
(138,629,o),
(110,496,cs),
(81,358,o),
(162,309,o),
(311,270,cs),
(392,249,o),
(411,218,o),
(403,182,cs),
(395,144,o),
(352,118,o),
(302,118,cs),
(263,118,o),
(228,132,o),
(212,168,cs),
(198,200,o),
(165,223,o),
(127,223,cs),
(76,223,o),
(35,181,o),
(35,130,cs),
(35,113,o),
(36,94,o),
(44,81,cs),
(82,15,o),
(165,-14,o),
(279,-14,cs),
(418,-14,o),
(565,56,o),
(594,194,cs),
(616,300,o),
(571,376,o),
(426,412,cs),
(318,439,o),
(292,466,o),
(301,510,cs),
(310,552,o),
(342,572,o),
(383,572,cs),
(421,572,o),
(444,556,o),
(454,527,cs),
(466,492,o),
(501,465,o),
(541,465,cs),
(592,465,o),
(633,507,o),
(633,557,cs),
(633,569,o),
(632,580,o),
(628,590,cs),
(601,660,o),
(536,704,o),
(415,704,cs)
);
}
);
width = 626;
}
);
note = S;
unicode = 83;
},
{
glyphname = Sacute;
kernLeft = S;
kernRight = S;
lastChange = "2022-11-29 13:10:53 +0000";
layers = (
{
hints = (
{
horizontal = 1;
place = (-70, 76);
place = (-70, 76);
type = Stem;
},
{
horizontal = 1;
place = (516, 76);
place = (516, 76);
type = Stem;
},
{
horizontal = 1;
place = (679, 69);
place = (679, 69);
type = Stem;
},
{
place = (5, 132);
place = (5, 132);
type = Stem;
},
{
place = (365, 132);
place = (365, 132);
type = Stem;
}
);
layerId = m01;
shapes = (
{
closed = 1;
nodes = (
(445,727,cs),
(533,801,o),
(526,868,o),
(526,868,cs),
(489,861,o),
(455,842,o),
(433,813,cs),
(407,778,o),
(444,726,o),
(444,726,c),
(444,726,o),
(444,726,o)
);
},
{
closed = 1;
nodes = (
(278,704,o),
(138,629,o),
(110,496,cs),
(81,358,o),
(162,309,o),
(311,270,cs),
(392,249,o),
(411,218,o),
(403,182,cs),
(395,144,o),
(352,118,o),
(302,118,cs),
(263,118,o),
(228,132,o),
(212,168,cs),
(198,200,o),
(165,223,o),
(127,223,cs),
(76,223,o),
(35,181,o),
(35,130,cs),
(35,113,o),
(36,94,o),
(44,81,cs),
(82,15,o),
(165,-14,o),
(279,-14,cs),
(418,-14,o),
(565,56,o),
(594,194,cs),
(616,300,o),
(571,376,o),
(426,412,cs),
(318,439,o),
(292,466,o),
(301,510,cs),
(310,552,o),
(342,572,o),
(383,572,cs),
(421,572,o),
(444,556,o),
(454,527,cs),
(466,492,o),
(501,465,o),
(541,465,cs),
(592,465,o),
(633,507,o),
(633,557,cs),
(633,569,o),
(632,580,o),
(628,590,cs),
(601,660,o),
(536,704,o),
(415,704,cs)
);
}
);
width = 626;
}
);
note = Sacute;
unicode = 346;
},
{
glyphname = Scaron;
kernLeft = S;
kernRight = S;
lastChange = "2022-11-29 13:10:53 +0000";
layers = (
{
hints = (
{
horizontal = 1;
place = (-70, 76);
place = (-70, 76);
type = Stem;
},
{
horizontal = 1;
place = (516, 76);
place = (516, 76);
type = Stem;
},
{
horizontal = 1;
place = (679, 69);
place = (679, 69);
type = Stem;
},
{
place = (5, 132);
place = (5, 132);
type = Stem;
},
{
place = (365, 132);
place = (365, 132);
type = Stem;
}
);
layerId = m01;
shapes = (
{
closed = 1;
nodes = (
(390,735,cs),
(465,735,ls),
(511,735,o),
(551,769,o),
(556,815,cs),
(556,819,o),
(557,823,o),
(557,827,cs),
(557,850,o),
(538,869,o),
(515,869,cs),
(500,869,o),
(486,862,o),
(479,850,cs),
(438,784,l),
(429,822,ls),
(423,847,o),
(410,860,o),
(390,860,cs),
(356,860,o),
(327,832,o),
(327,797,cs),
(327,763,o),
(356,735,o)
);
},
{
closed = 1;
nodes = (
(318,439,o),
(292,466,o),
(301,510,cs),
(310,552,o),
(342,572,o),
(383,572,cs),
(421,572,o),
(444,556,o),
(454,527,cs),
(466,492,o),
(501,465,o),
(541,465,cs),
(592,465,o),
(633,507,o),
(633,557,cs),
(633,569,o),
(632,580,o),
(628,590,cs),
(601,660,o),
(536,704,o),
(415,704,cs),
(278,704,o),
(138,629,o),
(110,496,cs),
(81,358,o),
(162,309,o),
(311,270,cs),
(392,249,o),
(411,218,o),
(403,182,cs),
(395,144,o),
(352,118,o),
(302,118,cs),
(263,118,o),
(228,132,o),
(212,168,cs),
(198,200,o),
(165,223,o),
(127,223,cs),
(76,223,o),
(35,181,o),
(35,130,cs),
(35,113,o),
(36,94,o),
(44,81,cs),
(82,15,o),
(165,-14,o),
(279,-14,cs),
(418,-14,o),
(565,56,o),
(594,194,cs),
(616,300,o),
(571,376,o),
(426,412,cs)
);
}
);
width = 626;
}
);
note = Scaron;
unicode = 352;
},
{
glyphname = Scedilla;
kernLeft = S;
kernRight = S;
lastChange = "2022-11-29 13:10:53 +0000";
layers = (
{
hints = (
{
horizontal = 1;
place = (-266, 13);
place = (-266, 13);
type = Stem;
},
{
horizontal = 1;
place = (-65, 21);
target = up;
type = BottomGhost;
},
{
horizontal = 1;
place = (516, 76);
place = (516, 76);
type = Stem;
},
{
place = (5, 132);
place = (5, 132);
type = Stem;
},
{
place = (365, 132);
place = (365, 132);
type = Stem;
},
{
place = (262, 52);
place = (262, 52);
type = Stem;
}
);
layerId = m01;
shapes = (
{
closed = 1;
nodes = (
(616,300,o),
(571,376,o),
(426,412,cs),
(318,439,o),
(292,466,o),
(301,510,cs),
(310,552,o),
(342,572,o),
(383,572,cs),
(421,572,o),
(444,556,o),
(454,527,cs),
(466,492,o),
(501,465,o),
(541,465,cs),
(592,465,o),
(633,507,o),
(633,557,cs),
(633,569,o),
(632,580,o),
(628,590,cs),
(601,660,o),
(536,704,o),
(415,704,cs),
(278,704,o),
(138,629,o),
(110,496,cs),
(81,358,o),
(162,309,o),
(311,270,cs),
(392,249,o),
(411,218,o),
(403,182,cs),
(395,144,o),
(352,118,o),
(302,118,cs),
(263,118,o),
(228,132,o),
(212,168,cs),
(198,200,o),
(165,223,o),
(127,223,cs),
(76,223,o),
(34,181,o),
(34,130,cs),
(34,113,o),
(35,94,o),
(43,81,cs),
(72,31,o),
(127,2,o),
(201,-9,c),
(174,-49,ls),
(157,-73,o),
(237,-114,o),
(237,-114,cs),
(234,-132,o),
(215,-141,o),
(172,-141,cs),
(165,-141,o),
(155,-141,o),
(144,-139,cs),
(125,-137,o),
(113,-146,o),
(108,-169,cs),
(103,-192,o),
(156,-210,o),
(156,-210,cs),
(248,-210,o),
(330,-188,o),
(344,-119,cs),
(354,-74,o),
(327,-49,o),
(266,-42,c),
(286,-14,l),
(422,-12,o),
(565,58,o),
(594,194,cs)
);
}
);
width = 626;
}
);
note = Scedilla;
unicode = 350;
},
{
glyphname = Scommaaccent;
kernLeft = S;
kernRight = S;
lastChange = "2022-11-29 13:10:53 +0000";
layers = (
{
hints = (
{
horizontal = 1;
place = (-70, 76);
place = (-70, 76);
type = Stem;
},
{
horizontal = 1;
place = (516, 76);
place = (516, 76);
type = Stem;
},
{
place = (5, 132);
place = (5, 132);
type = Stem;
},
{
place = (365, 132);
place = (365, 132);
type = Stem;
},
{
horizontal = 1;
place = (-272, 123);
place = (-272, 123);
type = Stem;
}
);
layerId = m01;
shapes = (
{
closed = 1;
nodes = (
(278,704,o),
(138,629,o),
(110,496,cs),
(81,358,o),
(162,309,o),
(311,270,cs),
(392,249,o),
(411,218,o),
(403,182,cs),
(395,144,o),
(352,118,o),
(302,118,cs),
(263,118,o),
(228,132,o),
(212,168,cs),
(198,200,o),
(165,223,o),
(127,223,cs),
(76,223,o),
(35,181,o),
(35,130,cs),
(35,113,o),
(36,94,o),
(44,81,cs),
(82,15,o),
(165,-14,o),
(279,-14,cs),
(418,-14,o),
(565,56,o),
(594,194,cs),
(616,300,o),
(571,376,o),
(426,412,cs),
(318,439,o),
(292,466,o),
(301,510,cs),
(310,552,o),
(342,572,o),
(383,572,cs),
(421,572,o),
(444,556,o),
(454,527,cs),
(466,492,o),
(501,465,o),
(541,465,cs),
(592,465,o),
(633,507,o),
(633,557,cs),
(633,569,o),
(632,580,o),
(628,590,cs),
(601,660,o),
(536,704,o),
(415,704,cs)
);
},
{
closed = 1;
nodes = (
(259,-123,ls),
(298,-74,o),
(247,-6,o),
(247,-6,cs),
(218,-6,o),
(210,-32,o),
(195,-55,cs),
(123,-162,ls),
(119,-168,o),
(116,-176,o),
(116,-185,cs),
(116,-207,o),
(134,-225,o),
(156,-225,cs),
(169,-225,o),
(181,-219,o),
(188,-210,cs)
);
}
);
width = 626;
}
);
note = Scommaaccent;
unicode = 536;
},
{
glyphname = T;
kernLeft = T;
kernRight = T;
lastChange = "2022-11-29 13:10:53 +0000";
layers = (
{
hints = (
{
horizontal = 1;
place = (-56, 21);
target = up;
type = BottomGhost;
},
{
horizontal = 1;
place = (494, 84);
place = (494, 84);
type = Stem;
},
{
place = (182, 124);
place = (182, 124);
type = Stem;
}
);
layerId = m01;
shapes = (
{
closed = 1;
nodes = (
(655,550,ls),
(693,550,o),
(725,581,o),
(725,620,cs),
(725,659,o),
(693,690,o),
(655,690,cs),
(152,690,ls),
(114,690,o),
(82,659,o),
(82,620,cs),
(82,581,o),
(114,550,o),
(152,550,cs),
(299,550,l),
(203,97,ls),
(202,91,o),
(201,85,o),
(201,79,cs),
(201,30,o),
(240,-9,o),
(289,-9,cs),
(331,-9,o),
(367,21,o),
(375,61,cs),
(479,550,l)
);
}
);
width = 632;
}
);
note = T;
unicode = 84;
},
{
glyphname = Tbar;
kernLeft = T;
kernRight = T;
lastChange = "2022-11-29 13:10:53 +0000";
layers = (
{
hints = (
{
horizontal = 1;
place = (-56, 21);
target = up;
type = BottomGhost;
},
{
horizontal = 1;
place = (237, 40);
place = (237, 40);
type = Stem;
},
{
horizontal = 1;
place = (494, 84);
place = (494, 84);
type = Stem;
},
{
place = (182, 124);
place = (182, 124);
type = Stem;
}
);
layerId = m01;
shapes = (
{
closed = 1;
nodes = (
(479,550,l),
(655,550,ls),
(693,550,o),
(725,581,o),
(725,620,cs),
(725,659,o),
(693,690,o),
(655,690,cs),
(152,690,ls),
(114,690,o),
(82,659,o),
(82,620,cs),
(82,581,o),
(114,550,o),
(152,550,cs),
(299,550,l),
(264,389,l),
(204,389,ls),
(178,389,o),
(156,368,o),
(156,341,cs),
(156,314,o),
(178,293,o),
(204,293,cs),
(244,293,l),
(203,97,ls),
(202,92,o),
(201,85,o),
(201,79,cs),
(201,30,o),
(240,-9,o),
(289,-9,cs),
(331,-9,o),
(367,22,o),
(375,61,cs),
(424,293,l),
(484,293,ls),
(510,293,o),
(532,314,o),
(532,341,cs),
(532,368,o),
(510,389,o),
(484,389,cs),
(444,389,l)
);
}
);
width = 632;
}
);
note = Tbar;
unicode = 358;
},
{
glyphname = Tcaron;
kernLeft = T;
kernRight = T;
lastChange = "2022-11-29 13:10:53 +0000";
layers = (
{
hints = (
{
horizontal = 1;
place = (-56, 21);
target = up;
type = BottomGhost;
},
{
horizontal = 1;
place = (494, 84);
place = (494, 84);
type = Stem;
},
{
horizontal = 1;
place = (679, 69);
place = (679, 69);
type = Stem;
},
{
place = (182, 124);
place = (182, 124);
type = Stem;
}
);
layerId = m01;
shapes = (
{
closed = 1;
nodes = (
(392,735,cs),
(467,735,ls),
(513,735,o),
(553,769,o),
(558,815,cs),
(558,819,o),
(559,823,o),
(559,827,cs),
(559,850,o),
(540,869,o),
(517,869,cs),
(502,869,o),
(488,862,o),
(481,850,cs),
(440,784,l),
(431,822,ls),
(425,847,o),
(412,860,o),
(392,860,cs),
(358,860,o),
(329,832,o),
(329,797,cs),
(329,763,o),
(358,735,o)
);
},
{
closed = 1;
nodes = (
(655,550,ls),
(693,550,o),
(725,581,o),
(725,620,cs),
(725,659,o),
(693,690,o),
(655,690,cs),
(152,690,ls),
(114,690,o),
(82,659,o),
(82,620,cs),
(82,581,o),
(114,550,o),
(152,550,cs),
(299,550,l),
(203,97,ls),
(202,91,o),
(201,85,o),
(201,79,cs),
(201,30,o),
(240,-9,o),
(289,-9,cs),
(331,-9,o),
(367,21,o),
(375,61,cs),
(479,550,l)
);
}
);
width = 632;
}
);
note = Tcaron;
unicode = 356;
},
{
glyphname = Tcedilla;
kernLeft = T;
kernRight = T;
lastChange = "2022-11-29 13:10:53 +0000";
layers = (
{
hints = (
{
horizontal = 1;
place = (-266, 13);
place = (-266, 13);
type = Stem;
},
{
horizontal = 1;
place = (-56, 21);
target = up;
type = BottomGhost;
},
{
horizontal = 1;
place = (494, 84);
place = (494, 84);
type = Stem;
},
{
place = (182, 124);
place = (182, 124);
type = Stem;
},
{
place = (278, 52);
place = (278, 52);
type = Stem;
}
);
layerId = m01;
shapes = (
{
closed = 1;
nodes = (
(311,0,l),
(337,0,ls),
(354,0,o),
(368,27,o),
(380,84,cs),
(479,550,l),
(655,550,ls),
(693,550,o),
(725,581,o),
(725,620,cs),
(725,659,o),
(693,690,o),
(655,690,cs),
(152,690,ls),
(114,690,o),
(82,659,o),
(82,620,cs),
(82,581,o),
(114,550,o),
(152,550,cs),
(299,550,l),
(204,104,ls),
(190,39,o),
(198,0,o),
(224,0,c),
(193,-44,ls),
(174,-70,o),
(253,-114,o),
(253,-114,cs),
(250,-132,o),
(231,-141,o),
(188,-141,cs),
(181,-141,o),
(171,-141,o),
(160,-139,cs),
(141,-137,o),
(129,-146,o),
(124,-169,cs),
(119,-192,o),
(172,-210,o),
(172,-210,cs),
(264,-210,o),
(346,-188,o),
(360,-119,cs),
(370,-74,o),
(343,-49,o),
(282,-42,c)
);
}
);
width = 632;
}
);
note = Tcedilla;
unicode = 354;
},
{
glyphname = uni021A;
kernLeft = T;
kernRight = T;
lastChange = "2022-11-29 13:10:53 +0000";
layers = (
{
hints = (
{
horizontal = 1;
place = (-272, 123);
place = (-272, 123);
type = Stem;
},
{
horizontal = 1;
place = (-56, 21);
target = up;
type = BottomGhost;
},
{
horizontal = 1;
place = (494, 84);
place = (494, 84);
type = Stem;
},
{
place = (182, 124);
place = (182, 124);
type = Stem;
}
);
layerId = m01;
shapes = (
{
closed = 1;
nodes = (
(655,550,ls),
(693,550,o),
(725,581,o),
(725,620,cs),
(725,659,o),
(693,690,o),
(655,690,cs),
(152,690,ls),
(114,690,o),
(82,659,o),
(82,620,cs),
(82,581,o),
(114,550,o),
(152,550,cs),
(299,550,l),
(203,97,ls),
(202,91,o),
(201,85,o),
(201,79,cs),
(201,30,o),
(240,-9,o),
(289,-9,cs),
(331,-9,o),
(367,21,o),
(375,61,cs),
(479,550,l)
);
},
{
closed = 1;
nodes = (
(211,-55,cs),
(139,-162,ls),
(135,-168,o),
(132,-176,o),
(132,-184,cs),
(132,-207,o),
(150,-225,o),
(172,-225,cs),
(185,-225,o),
(197,-219,o),
(204,-210,cs),
(275,-123,ls),
(314,-74,o),
(263,-6,o),
(263,-6,cs),
(234,-6,o),
(226,-33,o)
);
}
);
width = 632;
}
);
note = uni021A;
unicode = 538;
},
{
glyphname = U;
kernLeft = U;
kernRight = U;
lastChange = "2022-11-29 13:10:53 +0000";
layers = (
{
hints = (
{
horizontal = 1;
place = (-70, 76);
place = (-70, 76);
type = Stem;
},
{
horizontal = 1;
place = (634, -20);
target = down;
type = TopGhost;
},
{
place = (12, 124);
place = (12, 124);
type = Stem;
},
{
place = (444, 124);
place = (444, 124);
type = Stem;
}
);
layerId = m01;
shapes = (
{
closed = 1;
nodes = (
(749,593,ls),
(750,598,o),
(751,605,o),
(751,611,cs),
(751,660,o),
(712,699,o),
(663,699,cs),
(621,699,o),
(585,668,o),
(577,629,cs),
(501,270,ls),
(497,251,o),
(495,241,o),
(491,229,cs),
(471,157,o),
(422,118,o),
(343,118,cs),
(264,118,o),
(231,157,o),
(241,229,cs),
(243,241,o),
(245,251,o),
(249,270,cs),
(317,593,ls),
(318,598,o),
(319,605,o),
(319,611,cs),
(319,660,o),
(280,699,o),
(231,699,cs),
(189,699,o),
(153,668,o),
(145,629,cs),
(76,303,ls),
(69,268,o),
(64,247,o),
(58,206,cs),
(42,90,o),
(102,-14,o),
(315,-14,cs),
(528,-14,o),
(632,90,o),
(664,206,cs),
(676,247,o),
(681,268,o),
(688,303,cs)
);
}
);
width = 718;
}
);
note = U;
unicode = 85;
},
{
glyphname = Uacute;
kernLeft = U;
kernRight = U;
lastChange = "2022-11-29 13:10:53 +0000";
layers = (
{
hints = (
{
horizontal = 1;
place = (-70, 76);
place = (-70, 76);
type = Stem;
},
{
horizontal = 1;
place = (634, -20);
target = down;
type = TopGhost;
},
{
horizontal = 1;
place = (679, 69);
place = (679, 69);
type = Stem;
},
{
place = (12, 124);
place = (12, 124);
type = Stem;
},
{
place = (444, 124);
place = (444, 124);
type = Stem;
}
);
layerId = m01;
shapes = (
{
closed = 1;
nodes = (
(493,727,cs),
(581,801,o),
(574,868,o),
(574,868,cs),
(537,861,o),
(503,842,o),
(481,813,cs),
(455,778,o),
(492,726,o),
(492,726,c),
(492,726,o),
(492,726,o)
);
},
{
closed = 1;
nodes = (
(749,593,ls),
(750,598,o),
(751,605,o),
(751,611,cs),
(751,660,o),
(712,699,o),
(663,699,cs),
(621,699,o),
(585,668,o),
(577,629,cs),
(501,270,ls),
(497,251,o),
(495,241,o),
(491,229,cs),
(471,157,o),
(422,118,o),
(343,118,cs),
(264,118,o),
(231,157,o),
(241,229,cs),
(243,241,o),
(245,251,o),
(249,270,cs),
(317,593,ls),
(318,598,o),
(319,605,o),
(319,611,cs),
(319,660,o),
(280,699,o),
(231,699,cs),
(189,699,o),
(153,668,o),
(145,629,cs),
(76,303,ls),
(69,268,o),
(64,247,o),
(58,206,cs),
(42,90,o),
(102,-14,o),
(315,-14,cs),
(528,-14,o),
(632,90,o),
(664,206,cs),
(676,247,o),
(681,268,o),
(688,303,cs)
);
}
);
width = 718;
}
);
note = Uacute;
unicode = 218;
},
{
glyphname = Ucircumflex;
kernLeft = U;
kernRight = U;
lastChange = "2022-11-29 13:10:53 +0000";
layers = (
{
hints = (
{
horizontal = 1;
place = (-70, 76);
place = (-70, 76);
type = Stem;
},
{
horizontal = 1;
place = (634, -20);
target = down;
type = TopGhost;
},
{
horizontal = 1;
place = (679, 69);
place = (679, 69);
type = Stem;
},
{
place = (12, 124);
place = (12, 124);
type = Stem;
},
{
place = (444, 124);
place = (444, 124);
type = Stem;
}
);
layerId = m01;
shapes = (
{
closed = 1;
nodes = (
(448,745,cs),
(489,811,l),
(498,773,ls),
(504,748,o),
(517,735,o),
(537,735,cs),
(571,735,o),
(600,763,o),
(600,798,cs),
(600,832,o),
(571,860,o),
(537,860,cs),
(462,860,ls),
(416,860,o),
(376,826,o),
(371,780,cs),
(371,776,o),
(370,772,o),
(370,768,cs),
(370,745,o),
(389,726,o),
(412,726,cs),
(427,726,o),
(441,733,o)
);
},
{
closed = 1;
nodes = (
(749,593,ls),
(750,598,o),
(751,605,o),
(751,611,cs),
(751,660,o),
(712,699,o),
(663,699,cs),
(621,699,o),
(585,668,o),
(577,629,cs),
(501,270,ls),
(497,251,o),
(495,241,o),
(491,229,cs),
(471,157,o),
(422,118,o),
(343,118,cs),
(264,118,o),
(231,157,o),
(241,229,cs),
(243,241,o),
(245,251,o),
(249,270,cs),
(317,593,ls),
(318,598,o),
(319,605,o),
(319,611,cs),
(319,660,o),
(280,699,o),
(231,699,cs),
(189,699,o),
(153,668,o),
(145,629,cs),
(76,303,ls),
(69,268,o),
(64,247,o),
(58,206,cs),
(42,90,o),
(102,-14,o),
(315,-14,cs),
(528,-14,o),
(632,90,o),
(664,206,cs),
(676,247,o),
(681,268,o),
(688,303,cs)
);
}
);
width = 718;
}
);
note = Ucircumflex;
unicode = 219;
},
{
glyphname = Udieresis;
kernLeft = U;
kernRight = U;
lastChange = "2022-11-29 13:10:53 +0000";
layers = (
{
hints = (
{
horizontal = 1;
place = (-70, 76);
place = (-70, 76);
type = Stem;
},
{
horizontal = 1;
place = (634, -20);
target = down;
type = TopGhost;
},
{
horizontal = 1;
place = (666, 90);
place = (666, 90);
type = Stem;
},
{
place = (12, 124);
place = (12, 124);
type = Stem;
},
{
place = (444, 124);
place = (444, 124);
type = Stem;
},
{
place = (143, 94);
place = (143, 94);
type = Stem;
},
{
place = (343, 94);
place = (343, 94);
type = Stem;
}
);
layerId = m01;
shapes = (
{
closed = 1;
nodes = (
(749,593,ls),
(750,598,o),
(751,605,o),
(751,611,cs),
(751,660,o),
(712,699,o),
(663,699,cs),
(621,699,o),
(585,668,o),
(577,629,cs),
(501,270,ls),
(497,251,o),
(495,241,o),
(491,229,cs),
(471,157,o),
(422,118,o),
(343,118,cs),
(264,118,o),
(231,157,o),
(241,229,cs),
(243,241,o),
(245,251,o),
(249,270,cs),
(317,593,ls),
(318,598,o),
(319,605,o),
(319,611,cs),
(319,660,o),
(280,699,o),
(231,699,cs),
(189,699,o),
(153,668,o),
(145,629,cs),
(76,303,ls),
(69,268,o),
(64,247,o),
(58,206,cs),
(42,90,o),
(102,-14,o),
(315,-14,cs),
(528,-14,o),
(632,90,o),
(664,206,cs),
(676,247,o),
(681,268,o),
(688,303,cs)
);
},
{
closed = 1;
nodes = (
(376,723,cs),
(422,723,o),
(450,744,o),
(459,789,cs),
(468,834,o),
(434,879,o),
(386,879,cs),
(374,879,o),
(363,876,o),
(353,871,cs),
(324,856,o),
(303,829,o),
(303,797,cs),
(303,756,o),
(336,723,o)
);
},
{
closed = 1;
nodes = (
(577,723,cs),
(623,723,o),
(651,744,o),
(660,789,cs),
(669,834,o),
(635,879,o),
(587,879,cs),
(575,879,o),
(563,875,o),
(553,870,cs),
(525,856,o),
(504,829,o),
(504,796,cs),
(504,756,o),
(537,723,o)
);
}
);
width = 718;
}
);
note = Udieresis;
unicode = 220;
},
{
glyphname = Ugrave;
kernLeft = U;
kernRight = U;
lastChange = "2022-11-29 13:10:53 +0000";
layers = (
{
hints = (
{
horizontal = 1;
place = (-70, 76);
place = (-70, 76);
type = Stem;
},
{
horizontal = 1;
place = (634, -20);
target = down;
type = TopGhost;
},
{
horizontal = 1;
place = (679, 69);
place = (679, 69);
type = Stem;
},
{
place = (12, 124);
place = (12, 124);
type = Stem;
},
{
place = (444, 124);
place = (444, 124);
type = Stem;
}
);
layerId = m01;
shapes = (
{
closed = 1;
nodes = (
(511,779,o),
(478,860,o),
(432,869,o),
(406,833,cs),
(399,822,o),
(394,809,o),
(394,794,cs),
(394,763,o),
(416,737,o),
(444,730,cs),
(451,728,o),
(459,726,o),
(466,726,cs),
(491,726,o),
(511,746,o),
(511,771,cs),
(511,771,o),
(511,771,o)
);
},
{
closed = 1;
nodes = (
(749,593,ls),
(750,598,o),
(751,605,o),
(751,611,cs),
(751,660,o),
(712,699,o),
(663,699,cs),
(621,699,o),
(585,668,o),
(577,629,cs),
(501,270,ls),
(497,251,o),
(495,241,o),
(491,229,cs),
(471,157,o),
(422,118,o),
(343,118,cs),
(264,118,o),
(231,157,o),
(241,229,cs),
(243,241,o),
(245,251,o),
(249,270,cs),
(317,593,ls),
(318,598,o),
(319,605,o),
(319,611,cs),
(319,660,o),
(280,699,o),
(231,699,cs),
(189,699,o),
(153,668,o),
(145,629,cs),
(76,303,ls),
(69,268,o),
(64,247,o),
(58,206,cs),
(42,90,o),
(102,-14,o),
(315,-14,cs),
(528,-14,o),
(632,90,o),
(664,206,cs),
(676,247,o),
(681,268,o),
(688,303,cs)
);
}
);
width = 718;
}
);
note = Ugrave;
unicode = 217;
},
{
glyphname = Uhungarumlaut;
kernLeft = U;
kernRight = U;
lastChange = "2022-11-29 13:10:53 +0000";
layers = (
{
hints = (
{
horizontal = 1;
place = (-70, 76);
place = (-70, 76);
type = Stem;
},
{
horizontal = 1;
place = (634, -20);
target = down;
type = TopGhost;
},
{
horizontal = 1;
place = (680, 69);
place = (680, 69);
type = Stem;
},
{
place = (12, 124);
place = (12, 124);
type = Stem;
},
{
place = (444, 124);
place = (444, 124);
type = Stem;
}
);
layerId = m01;
shapes = (
{
closed = 1;
nodes = (
(370,728,cs),
(458,802,o),
(452,869,o),
(452,869,cs),
(414,863,o),
(380,842,o),
(358,814,cs),
(332,779,o),
(369,727,o),
(369,727,c),
(369,727,o),
(369,727,o)
);
},
{
closed = 1;
nodes = (
(571,728,cs),
(659,802,o),
(653,869,o),
(653,869,cs),
(615,863,o),
(581,842,o),
(559,814,cs),
(533,779,o),
(570,727,o),
(570,727,c),
(570,727,o),
(570,727,o)
);
},
{
closed = 1;
nodes = (
(749,593,ls),
(750,598,o),
(751,605,o),
(751,611,cs),
(751,660,o),
(712,699,o),
(663,699,cs),
(621,699,o),
(585,668,o),
(577,629,cs),
(501,270,ls),
(497,251,o),
(495,241,o),
(491,229,cs),
(471,157,o),
(422,118,o),
(343,118,cs),
(264,118,o),
(231,157,o),
(241,229,cs),
(243,241,o),
(245,251,o),
(249,270,cs),
(317,593,ls),
(318,598,o),
(319,605,o),
(319,611,cs),
(319,660,o),
(280,699,o),
(231,699,cs),
(189,699,o),
(153,668,o),
(145,629,cs),
(76,303,ls),
(69,268,o),
(64,247,o),
(58,206,cs),
(42,90,o),
(102,-14,o),
(315,-14,cs),
(528,-14,o),
(632,90,o),
(664,206,cs),
(676,247,o),
(681,268,o),
(688,303,cs)
);
}
);
width = 718;
}
);
note = Uhungarumlaut;
unicode = 368;
},
{
glyphname = Umacron;
kernLeft = U;
kernRight = U;
lastChange = "2022-11-29 13:10:53 +0000";
layers = (
{
hints = (
{
horizontal = 1;
place = (-70, 76);
place = (-70, 76);
type = Stem;
},
{
horizontal = 1;
place = (634, -20);
target = down;
type = TopGhost;
},
{
horizontal = 1;
place = (704, 40);
place = (704, 40);
type = Stem;
},
{
place = (12, 124);
place = (12, 124);
type = Stem;
},
{
place = (444, 124);
place = (444, 124);
type = Stem;
}
);
layerId = m01;
shapes = (
{
closed = 1;
nodes = (
(600,760,ls),
(626,760,o),
(648,781,o),
(648,808,cs),
(648,835,o),
(626,856,o),
(600,856,cs),
(379,856,ls),
(353,856,o),
(331,835,o),
(331,808,cs),
(331,781,o),
(353,760,o),
(379,760,cs)
);
},
{
closed = 1;
nodes = (
(749,593,ls),
(750,598,o),
(751,605,o),
(751,611,cs),
(751,660,o),
(712,699,o),
(663,699,cs),
(621,699,o),
(585,668,o),
(577,629,cs),
(501,270,ls),
(497,251,o),
(495,241,o),
(491,229,cs),
(471,157,o),
(422,118,o),
(343,118,cs),
(264,118,o),
(231,157,o),
(241,229,cs),
(243,241,o),
(245,251,o),
(249,270,cs),
(317,593,ls),
(318,598,o),
(319,605,o),
(319,611,cs),
(319,660,o),
(280,699,o),
(231,699,cs),
(189,699,o),
(153,668,o),
(145,629,cs),
(76,303,ls),
(69,268,o),
(64,247,o),
(58,206,cs),
(42,90,o),
(102,-14,o),
(315,-14,cs),
(528,-14,o),
(632,90,o),
(664,206,cs),
(676,247,o),
(681,268,o),
(688,303,cs)
);
}
);
width = 718;
}
);
note = Umacron;
unicode = 362;
},
{
glyphname = Uogonek;
kernLeft = U;
kernRight = U;
lastChange = "2022-11-29 13:10:53 +0000";
layers = (
{
hints = (
{
horizontal = 1;
place = (-59, 21);
target = up;
type = BottomGhost;
},
{
horizontal = 1;
place = (634, -20);
target = down;
type = TopGhost;
},
{
place = (12, 124);
place = (12, 124);
type = Stem;
},
{
place = (444, 124);
place = (444, 124);
type = Stem;
},
{
horizontal = 1;
place = (-69, 75);
place = (-69, 75);
type = Stem;
},
{
horizontal = 1;
place = (-279, 46);
place = (-279, 46);
type = Stem;
},
{
place = (231, 193);
place = (231, 193);
type = Stem;
}
);
layerId = m01;
shapes = (
{
closed = 1;
nodes = (
(749,593,ls),
(750,598,o),
(751,605,o),
(751,611,cs),
(751,660,o),
(712,699,o),
(663,699,cs),
(621,699,o),
(585,668,o),
(577,629,cs),
(501,270,ls),
(497,251,o),
(495,241,o),
(491,229,cs),
(471,157,o),
(422,118,o),
(343,118,cs),
(264,118,o),
(231,157,o),
(241,229,cs),
(243,241,o),
(245,251,o),
(249,270,cs),
(317,593,ls),
(318,598,o),
(319,605,o),
(319,611,cs),
(319,660,o),
(280,699,o),
(231,699,cs),
(189,699,o),
(153,668,o),
(145,629,cs),
(76,303,ls),
(69,268,o),
(64,247,o),
(58,206,cs),
(43,95,o),
(97,-5,o),
(288,-13,c),
(248,-43,o),
(212,-89,o),
(202,-137,cs),
(188,-201,o),
(231,-223,o),
(297,-223,cs),
(355,-223,o),
(399,-206,o),
(439,-183,cs),
(449,-177,o),
(455,-166,o),
(455,-154,cs),
(455,-134,o),
(436,-117,o),
(417,-120,c),
(415,-121,o),
(412,-121,o),
(410,-121,cs),
(390,-121,o),
(372,-108,o),
(380,-70,cs),
(386,-39,o),
(405,-12,o),
(426,-3,c),
(440,0,ls),
(569,32,o),
(639,115,o),
(664,206,cs),
(676,247,o),
(681,268,o),
(688,303,cs)
);
}
);
width = 718;
}
);
note = Uogonek;
unicode = 370;
},
{
glyphname = Uring;
kernLeft = U;
kernRight = U;
lastChange = "2022-11-29 13:10:53 +0000";
layers = (
{
hints = (
{
horizontal = 1;
place = (-70, 76);
place = (-70, 76);
type = Stem;
},
{
horizontal = 1;
place = (634, -20);
target = down;
type = TopGhost;
},
{
horizontal = 1;
place = (666, 10);
place = (666, 10);
type = Stem;
},
{
horizontal = 1;
place = (810, 10);
place = (810, 10);
type = Stem;
},
{
place = (199, 27);
place = (199, 27);
type = Stem;
},
{
place = (354, 27);
place = (354, 27);
type = Stem;
},
{
place = (12, 124);
place = (12, 124);
type = Stem;
},
{
place = (444, 124);
place = (444, 124);
type = Stem;
}
);
layerId = m01;
shapes = (
{
closed = 1;
nodes = (
(446,932,o),
(388,889,o),
(374,827,cs),
(361,765,o),
(401,722,o),
(471,722,cs),
(541,722,o),
(599,765,o),
(612,827,cs),
(626,889,o),
(586,932,o),
(516,932,cs)
);
},
{
closed = 1;
nodes = (
(523,866,o),
(534,850,o),
(529,827,cs),
(525,804,o),
(506,788,o),
(485,788,cs),
(464,788,o),
(453,804,o),
(457,827,cs),
(462,850,o),
(481,866,o),
(502,866,cs)
);
},
{
closed = 1;
nodes = (
(749,593,ls),
(750,598,o),
(751,605,o),
(751,611,cs),
(751,660,o),
(712,699,o),
(663,699,cs),
(621,699,o),
(585,668,o),
(577,629,cs),
(501,270,ls),
(497,251,o),
(495,241,o),
(491,229,cs),
(471,157,o),
(422,118,o),
(343,118,cs),
(264,118,o),
(231,157,o),
(241,229,cs),
(243,241,o),
(245,251,o),
(249,270,cs),
(317,593,ls),
(318,598,o),
(319,605,o),
(319,611,cs),
(319,660,o),
(280,699,o),
(231,699,cs),
(189,699,o),
(153,668,o),
(145,629,cs),
(76,303,ls),
(69,268,o),
(64,247,o),
(58,206,cs),
(42,90,o),
(102,-14,o),
(315,-14,cs),
(528,-14,o),
(632,90,o),
(664,206,cs),
(676,247,o),
(681,268,o),
(688,303,cs)
);
}
);
width = 718;
}
);
note = Uring;
unicode = 366;
},
{
glyphname = V;
kernLeft = V;
kernRight = V;
lastChange = "2022-11-29 13:10:53 +0000";
layers = (
{
hints = (
{
horizontal = 1;
place = (-56, 21);
target = up;
type = BottomGhost;
},
{
horizontal = 1;
place = (634, -20);
target = down;
type = TopGhost;
},
{
place = (-24, 662);
place = (-24, 662);
type = Stem;
},
{
horizontal = 1;
place = (-56, 83);
place = (-56, 83);
type = Stem;
}
);
layerId = m01;
shapes = (
{
closed = 1;
nodes = (
(370,0,ls),
(422,0,o),
(456,19,o),
(482,65,cs),
(775,576,ls),
(782,588,o),
(786,602,o),
(786,617,cs),
(786,662,o),
(749,699,o),
(704,699,cs),
(672,699,o),
(644,680,o),
(631,654,cs),
(366,139,l),
(325,613,ls),
(321,662,o),
(280,699,o),
(230,699,cs),
(172,699,o),
(129,647,o),
(137,590,cs),
(212,87,ls),
(221,29,o),
(255,0,o),
(313,0,cs)
);
}
);
width = 742;
}
);
note = V;
unicode = 86;
},
{
glyphname = W;
kernLeft = W;
kernRight = W;
lastChange = "2022-11-29 13:10:53 +0000";
layers = (
{
hints = (
{
horizontal = 1;
place = (-56, 21);
target = up;
type = BottomGhost;
},
{
horizontal = 1;
place = (634, -20);
target = down;
type = TopGhost;
},
{
place = (-30, 947);
place = (-30, 947);
type = Stem;
},
{
horizontal = 1;
place = (-56, 82);
place = (-56, 82);
type = Stem;
}
);
layerId = m01;
shapes = (
{
closed = 1;
nodes = (
(1069,582,ls),
(1074,592,o),
(1076,605,o),
(1076,617,cs),
(1076,662,o),
(1040,699,o),
(994,699,cs),
(960,699,o),
(930,678,o),
(918,647,cs),
(718,138,l),
(741,583,ls),
(744,645,o),
(711,680,o),
(649,680,cs),
(568,680,ls),
(514,680,o),
(478,656,o),
(459,605,cs),
(282,140,l),
(303,602,ls),
(305,652,o),
(267,699,o),
(211,699,cs),
(155,699,o),
(117,652,o),
(118,604,cs),
(133,93,ls),
(135,32,o),
(168,0,o),
(229,0,cs),
(297,0,ls),
(351,0,o),
(386,24,o),
(406,75,cs),
(584,537,l),
(562,97,ls),
(559,35,o),
(592,0,o),
(654,0,cs),
(719,0,ls),
(772,0,o),
(807,23,o),
(830,71,cs)
);
}
);
width = 1016;
}
);
note = W;
unicode = 87;
},
{
glyphname = Wacute;
kernLeft = W;
kernRight = W;
lastChange = "2022-11-29 13:10:53 +0000";
layers = (
{
hints = (
{
horizontal = 1;
place = (-56, 21);
target = up;
type = BottomGhost;
},
{
horizontal = 1;
place = (634, -20);
target = down;
type = TopGhost;
},
{
horizontal = 1;
place = (679, 69);
place = (679, 69);
type = Stem;
},
{
place = (-30, 947);
place = (-30, 947);
type = Stem;
},
{
horizontal = 1;
place = (-56, 82);
place = (-56, 82);
type = Stem;
}
);
layerId = m01;
shapes = (
{
closed = 1;
nodes = (
(647,727,cs),
(735,801,o),
(728,868,o),
(728,868,cs),
(691,861,o),
(657,842,o),
(635,813,cs),
(609,778,o),
(646,726,o),
(646,726,c),
(646,726,o),
(646,726,o)
);
},
{
closed = 1;
nodes = (
(1069,582,ls),
(1074,592,o),
(1076,605,o),
(1076,617,cs),
(1076,662,o),
(1040,699,o),
(994,699,cs),
(960,699,o),
(930,678,o),
(918,647,cs),
(718,138,l),
(741,583,ls),
(744,645,o),
(711,680,o),
(649,680,cs),
(568,680,ls),
(514,680,o),
(478,656,o),
(459,605,cs),
(282,140,l),
(303,602,ls),
(305,652,o),
(267,699,o),
(211,699,cs),
(155,699,o),
(117,652,o),
(118,604,cs),
(133,93,ls),
(135,32,o),
(168,0,o),
(229,0,cs),
(297,0,ls),
(351,0,o),
(386,24,o),
(406,75,cs),
(584,537,l),
(562,97,ls),
(559,35,o),
(592,0,o),
(654,0,cs),
(719,0,ls),
(772,0,o),
(807,23,o),
(830,71,cs)
);
}
);
width = 1016;
}
);
note = Wacute;
unicode = 7810;
},
{
glyphname = Wcircumflex;
kernLeft = W;
kernRight = W;
lastChange = "2022-11-29 13:10:53 +0000";
layers = (
{
hints = (
{
horizontal = 1;
place = (-56, 21);
target = up;
type = BottomGhost;
},
{
horizontal = 1;
place = (634, -20);
target = down;
type = TopGhost;
},
{
horizontal = 1;
place = (679, 69);
place = (679, 69);
type = Stem;
},
{
place = (-30, 947);
place = (-30, 947);
type = Stem;
},
{
horizontal = 1;
place = (-56, 82);
place = (-56, 82);
type = Stem;
}
);
layerId = m01;
shapes = (
{
closed = 1;
nodes = (
(602,745,cs),
(643,811,l),
(652,773,ls),
(658,748,o),
(671,735,o),
(691,735,cs),
(725,735,o),
(754,763,o),
(754,798,cs),
(754,832,o),
(725,860,o),
(691,860,cs),
(616,860,ls),
(570,860,o),
(530,826,o),
(525,780,cs),
(525,776,o),
(524,772,o),
(524,768,cs),
(524,745,o),
(543,726,o),
(566,726,cs),
(581,726,o),
(595,733,o)
);
},
{
closed = 1;
nodes = (
(1069,582,ls),
(1074,592,o),
(1076,605,o),
(1076,617,cs),
(1076,662,o),
(1040,699,o),
(994,699,cs),
(960,699,o),
(930,678,o),
(918,647,cs),
(718,138,l),
(741,583,ls),
(744,645,o),
(711,680,o),
(649,680,cs),
(568,680,ls),
(514,680,o),
(478,656,o),
(459,605,cs),
(282,140,l),
(303,602,ls),
(305,652,o),
(267,699,o),
(211,699,cs),
(155,699,o),
(117,652,o),
(118,604,cs),
(133,93,ls),
(135,32,o),
(168,0,o),
(229,0,cs),
(297,0,ls),
(351,0,o),
(386,24,o),
(406,75,cs),
(584,537,l),
(562,97,ls),
(559,35,o),
(592,0,o),
(654,0,cs),
(719,0,ls),
(772,0,o),
(807,23,o),
(830,71,cs)
);
}
);
width = 1016;
}
);
note = Wcircumflex;
unicode = 372;
},
{
glyphname = Wdieresis;
kernLeft = W;
kernRight = W;
lastChange = "2022-11-29 13:10:53 +0000";
layers = (
{
hints = (
{
horizontal = 1;
place = (-56, 21);
target = up;
type = BottomGhost;
},
{
horizontal = 1;
place = (634, -20);
target = down;
type = TopGhost;
},
{
horizontal = 1;
place = (666, 90);
place = (666, 90);
type = Stem;
},
{
place = (297, 94);
place = (297, 94);
type = Stem;
},
{
place = (497, 94);
place = (497, 94);
type = Stem;
},
{
horizontal = 1;
place = (-56, 82);
place = (-56, 82);
type = Stem;
}
);
layerId = m01;
shapes = (
{
closed = 1;
nodes = (
(1069,582,ls),
(1074,592,o),
(1076,605,o),
(1076,617,cs),
(1076,662,o),
(1040,699,o),
(994,699,cs),
(960,699,o),
(930,678,o),
(918,647,cs),
(718,138,l),
(741,583,ls),
(744,645,o),
(711,680,o),
(649,680,cs),
(568,680,ls),
(514,680,o),
(478,656,o),
(459,605,cs),
(282,140,l),
(303,602,ls),
(305,652,o),
(267,699,o),
(211,699,cs),
(155,699,o),
(117,652,o),
(118,604,cs),
(133,93,ls),
(135,32,o),
(168,0,o),
(229,0,cs),
(297,0,ls),
(351,0,o),
(386,24,o),
(406,75,cs),
(584,537,l),
(562,97,ls),
(559,35,o),
(592,0,o),
(654,0,cs),
(719,0,ls),
(772,0,o),
(807,23,o),
(830,71,cs)
);
},
{
closed = 1;
nodes = (
(531,719,cs),
(577,719,o),
(605,740,o),
(614,785,cs),
(623,830,o),
(589,875,o),
(541,875,cs),
(529,875,o),
(518,872,o),
(508,867,cs),
(479,852,o),
(458,825,o),
(458,793,cs),
(458,752,o),
(491,719,o)
);
},
{
closed = 1;
nodes = (
(732,719,cs),
(778,719,o),
(806,740,o),
(815,785,cs),
(824,830,o),
(790,875,o),
(742,875,cs),
(730,875,o),
(718,871,o),
(708,866,cs),
(680,852,o),
(659,825,o),
(659,792,cs),
(659,752,o),
(692,719,o)
);
}
);
width = 1016;
}
);
note = Wdieresis;
unicode = 7812;
},
{
glyphname = Wgrave;
kernLeft = W;
kernRight = W;
lastChange = "2022-11-29 13:10:53 +0000";
layers = (
{
hints = (
{
horizontal = 1;
place = (-56, 21);
target = up;
type = BottomGhost;
},
{
horizontal = 1;
place = (634, -20);
target = down;
type = TopGhost;
},
{
horizontal = 1;
place = (679, 69);
place = (679, 69);
type = Stem;
},
{
place = (-30, 947);
place = (-30, 947);
type = Stem;
},
{
horizontal = 1;
place = (-56, 82);
place = (-56, 82);
type = Stem;
}
);
layerId = m01;
shapes = (
{
closed = 1;
nodes = (
(605,735,c),
(635,739,o),
(659,766,o),
(659,798,cs),
(659,829,o),
(635,856,o),
(605,860,c),
(571,860,o),
(543,832,o),
(543,797,cs),
(543,763,o),
(571,735,o)
);
},
{
closed = 1;
nodes = (
(1069,582,ls),
(1074,592,o),
(1076,605,o),
(1076,617,cs),
(1076,662,o),
(1040,699,o),
(994,699,cs),
(960,699,o),
(930,678,o),
(918,647,cs),
(718,138,l),
(741,583,ls),
(744,645,o),
(711,680,o),
(649,680,cs),
(568,680,ls),
(514,680,o),
(478,656,o),
(459,605,cs),
(282,140,l),
(303,602,ls),
(305,652,o),
(267,699,o),
(211,699,cs),
(155,699,o),
(117,652,o),
(118,604,cs),
(133,93,ls),
(135,32,o),
(168,0,o),
(229,0,cs),
(297,0,ls),
(351,0,o),
(386,24,o),
(406,75,cs),
(584,537,l),
(562,97,ls),
(559,35,o),
(592,0,o),
(654,0,cs),
(719,0,ls),
(772,0,o),
(807,23,o),
(830,71,cs)
);
}
);
width = 1016;
}
);
note = Wgrave;
unicode = 7808;
},
{
glyphname = X;
lastChange = "2022-11-29 13:10:53 +0000";
layers = (
{
hints = (
{
horizontal = 1;
place = (-56, 21);
target = up;
type = BottomGhost;
},
{
horizontal = 1;
place = (634, -20);
target = down;
type = TopGhost;
},
{
place = (-42, 650);
place = (-42, 650);
type = Stem;
}
);
layerId = m01;
shapes = (
{
closed = 1;
nodes = (
(434,49,ls),
(448,16,o),
(481,-9,o),
(520,-9,cs),
(572,-9,o),
(613,33,o),
(613,84,cs),
(613,99,o),
(610,112,o),
(604,125,cs),
(495,351,l),
(700,574,ls),
(756,635,o),
(743,690,o),
(672,690,cs),
(622,690,o),
(587,673,o),
(556,635,cs),
(412,460,l),
(350,637,ls),
(337,674,o),
(303,699,o),
(262,699,cs),
(211,699,o),
(169,657,o),
(169,606,cs),
(169,592,o),
(173,579,o),
(178,567,cs),
(279,348,l),
(65,116,ls),
(9,55,o),
(28,0,o),
(104,0,cs),
(154,0,o),
(188,17,o),
(219,56,cs),
(358,233,l)
);
}
);
width = 717;
}
);
note = X;
unicode = 88;
},
{
glyphname = Y;
kernLeft = Y;
kernRight = Y;
lastChange = "2022-11-29 13:10:53 +0000";
layers = (
{
hints = (
{
horizontal = 1;
place = (-56, 21);
target = up;
type = BottomGhost;
},
{
horizontal = 1;
place = (634, -20);
target = down;
type = TopGhost;
},
{
place = (201, 124);
place = (201, 124);
type = Stem;
}
);
layerId = m01;
shapes = (
{
closed = 1;
nodes = (
(437,264,l),
(680,575,ls),
(690,588,o),
(696,604,o),
(696,622,cs),
(696,665,o),
(662,699,o),
(619,699,cs),
(593,699,o),
(570,686,o),
(556,666,cs),
(384,417,l),
(323,631,ls),
(312,670,o),
(276,699,o),
(233,699,cs),
(182,699,o),
(140,657,o),
(140,606,cs),
(140,595,o),
(143,583,o),
(146,574,cs),
(257,264,l),
(222,97,ls),
(221,91,o),
(220,85,o),
(220,79,cs),
(220,30,o),
(259,-9,o),
(308,-9,cs),
(350,-9,o),
(386,22,o),
(394,61,cs)
);
}
);
width = 663;
}
);
note = Y;
unicode = 89;
},
{
glyphname = Yacute;
kernLeft = Y;
kernRight = Y;
lastChange = "2022-11-29 13:10:53 +0000";
layers = (
{
hints = (
{
horizontal = 1;
place = (-56, 21);
target = up;
type = BottomGhost;
},
{
horizontal = 1;
place = (634, -20);
target = down;
type = TopGhost;
},
{
horizontal = 1;
place = (679, 69);
place = (679, 69);
type = Stem;
},
{
place = (201, 124);
place = (201, 124);
type = Stem;
}
);
layerId = m01;
shapes = (
{
closed = 1;
nodes = (
(466,727,cs),
(554,801,o),
(547,868,o),
(547,868,cs),
(510,861,o),
(476,842,o),
(454,813,cs),
(428,778,o),
(465,726,o),
(465,726,c),
(465,726,o),
(465,726,o)
);
},
{
closed = 1;
nodes = (
(437,264,l),
(680,575,ls),
(690,588,o),
(696,604,o),
(696,622,cs),
(696,665,o),
(662,699,o),
(619,699,cs),
(593,699,o),
(570,686,o),
(556,666,cs),
(384,417,l),
(323,631,ls),
(312,670,o),
(276,699,o),
(233,699,cs),
(182,699,o),
(140,657,o),
(140,606,cs),
(140,595,o),
(143,583,o),
(146,574,cs),
(257,264,l),
(222,97,ls),
(221,91,o),
(220,85,o),
(220,79,cs),
(220,30,o),
(259,-9,o),
(308,-9,cs),
(350,-9,o),
(386,22,o),
(394,61,cs)
);
}
);
width = 663;
}
);
note = Yacute;
unicode = 221;
},
{
glyphname = Ycircumflex;
kernLeft = Y;
kernRight = Y;
lastChange = "2022-11-29 13:10:53 +0000";
layers = (
{
hints = (
{
horizontal = 1;
place = (-56, 21);
target = up;
type = BottomGhost;
},
{
horizontal = 1;
place = (634, -20);
target = down;
type = TopGhost;
},
{
horizontal = 1;
place = (679, 69);
place = (679, 69);
type = Stem;
},
{
place = (201, 124);
place = (201, 124);
type = Stem;
}
);
layerId = m01;
shapes = (
{
closed = 1;
nodes = (
(421,745,cs),
(462,811,l),
(471,773,ls),
(477,748,o),
(490,735,o),
(510,735,cs),
(544,735,o),
(573,763,o),
(573,798,cs),
(573,832,o),
(544,860,o),
(510,860,cs),
(435,860,ls),
(389,860,o),
(349,826,o),
(344,780,cs),
(344,776,o),
(343,772,o),
(343,768,cs),
(343,745,o),
(362,726,o),
(385,726,cs),
(400,726,o),
(414,733,o)
);
},
{
closed = 1;
nodes = (
(437,264,l),
(680,575,ls),
(690,588,o),
(696,604,o),
(696,622,cs),
(696,665,o),
(662,699,o),
(619,699,cs),
(593,699,o),
(570,686,o),
(556,666,cs),
(384,417,l),
(323,631,ls),
(312,670,o),
(276,699,o),
(233,699,cs),
(182,699,o),
(140,657,o),
(140,606,cs),
(140,595,o),
(143,583,o),
(146,574,cs),
(257,264,l),
(222,97,ls),
(221,91,o),
(220,85,o),
(220,79,cs),
(220,30,o),
(259,-9,o),
(308,-9,cs),
(350,-9,o),
(386,22,o),
(394,61,cs)
);
}
);
width = 663;
}
);
note = Ycircumflex;
unicode = 374;
},
{
glyphname = Ydieresis;
kernLeft = Y;
kernRight = Y;
lastChange = "2022-11-29 13:10:53 +0000";
layers = (
{
hints = (
{
horizontal = 1;
place = (-56, 21);
target = up;
type = BottomGhost;
},
{
horizontal = 1;
place = (634, -20);
target = down;
type = TopGhost;
},
{
horizontal = 1;
place = (666, 90);
place = (666, 90);
type = Stem;
},
{
place = (116, 94);
place = (116, 94);
type = Stem;
},
{
place = (316, 94);
place = (316, 94);
type = Stem;
},
{
place = (201, 124);
place = (201, 124);
type = Stem;
}
);
layerId = m01;
shapes = (
{
closed = 1;
nodes = (
(437,264,l),
(680,575,ls),
(690,588,o),
(696,604,o),
(696,622,cs),
(696,665,o),
(662,699,o),
(619,699,cs),
(593,699,o),
(570,686,o),
(556,666,cs),
(384,417,l),
(323,631,ls),
(312,670,o),
(276,699,o),
(233,699,cs),
(182,699,o),
(140,657,o),
(140,606,cs),
(140,595,o),
(143,583,o),
(146,574,cs),
(257,264,l),
(222,97,ls),
(221,91,o),
(220,85,o),
(220,79,cs),
(220,30,o),
(259,-9,o),
(308,-9,cs),
(350,-9,o),
(386,22,o),
(394,61,cs)
);
},
{
closed = 1;
nodes = (
(350,717,cs),
(396,717,o),
(424,738,o),
(433,783,cs),
(442,828,o),
(408,873,o),
(360,873,cs),
(348,873,o),
(337,870,o),
(327,865,cs),
(298,850,o),
(277,823,o),
(277,791,cs),
(277,750,o),
(310,717,o)
);
},
{
closed = 1;
nodes = (
(551,717,cs),
(597,717,o),
(625,738,o),
(634,783,cs),
(643,828,o),
(609,873,o),
(561,873,cs),
(549,873,o),
(538,870,o),
(528,865,cs),
(499,850,o),
(478,823,o),
(478,791,cs),
(478,750,o),
(511,717,o)
);
}
);
width = 663;
}
);
note = Ydieresis;
unicode = 376;
},
{
glyphname = Ygrave;
kernLeft = Y;
kernRight = Y;
lastChange = "2022-11-29 13:10:53 +0000";
layers = (
{
hints = (
{
horizontal = 1;
place = (-56, 21);
target = up;
type = BottomGhost;
},
{
horizontal = 1;
place = (634, -20);
target = down;
type = TopGhost;
},
{
horizontal = 1;
place = (679, 69);
place = (679, 69);
type = Stem;
},
{
place = (201, 124);
place = (201, 124);
type = Stem;
}
);
layerId = m01;
shapes = (
{
closed = 1;
nodes = (
(424,735,c),
(454,739,o),
(478,766,o),
(478,798,cs),
(478,829,o),
(454,856,o),
(424,860,c),
(390,860,o),
(362,832,o),
(362,797,cs),
(362,763,o),
(390,735,o)
);
},
{
closed = 1;
nodes = (
(437,264,l),
(680,575,ls),
(690,588,o),
(696,604,o),
(696,622,cs),
(696,665,o),
(662,699,o),
(619,699,cs),
(593,699,o),
(570,686,o),
(556,666,cs),
(384,417,l),
(323,631,ls),
(312,670,o),
(276,699,o),
(233,699,cs),
(182,699,o),
(140,657,o),
(140,606,cs),
(140,595,o),
(143,583,o),
(146,574,cs),
(257,264,l),
(222,97,ls),
(221,91,o),
(220,85,o),
(220,79,cs),
(220,30,o),
(259,-9,o),
(308,-9,cs),
(350,-9,o),
(386,22,o),
(394,61,cs)
);
}
);
width = 663;
}
);
note = Ygrave;
unicode = 7922;
},
{
glyphname = Z;
kernLeft = Z;
kernRight = Z;
lastChange = "2022-11-29 13:10:53 +0000";
layers = (
{
hints = (
{
horizontal = 1;
place = (-56, 84);
place = (-56, 84);
type = Stem;
},
{
horizontal = 1;
place = (494, 84);
place = (494, 84);
type = Stem;
},
{
place = (-3, 509);
place = (-3, 509);
type = Stem;
}
);
layerId = m01;
shapes = (
{
closed = 1;
nodes = (
(514,140,cs),
(249,140,l),
(668,544,ls),
(684,560,o),
(694,581,o),
(694,605,cs),
(694,652,o),
(656,690,o),
(609,690,cs),
(219,690,ls),
(181,690,o),
(149,659,o),
(149,620,cs),
(149,581,o),
(181,550,o),
(219,550,cs),
(455,550,l),
(33,142,ls),
(18,127,o),
(7,106,o),
(7,83,cs),
(7,37,o),
(45,0,o),
(90,0,cs),
(514,0,ls),
(552,0,o),
(584,31,o),
(584,70,cs),
(584,109,o),
(552,140,o)
);
}
);
width = 648;
}
);
note = Z;
unicode = 90;
},
{
glyphname = Zacute;
kernLeft = Z;
kernRight = Z;
lastChange = "2022-11-29 13:10:53 +0000";
layers = (
{
hints = (
{
horizontal = 1;
place = (-56, 84);
place = (-56, 84);
type = Stem;
},
{
horizontal = 1;
place = (494, 84);
place = (494, 84);
type = Stem;
},
{
horizontal = 1;
place = (679, 69);
place = (679, 69);
type = Stem;
},
{
place = (-3, 509);
place = (-3, 509);
type = Stem;
}
);
layerId = m01;
shapes = (
{
closed = 1;
nodes = (
(460,727,cs),
(548,801,o),
(541,868,o),
(541,868,cs),
(504,861,o),
(470,842,o),
(448,813,cs),
(422,778,o),
(459,726,o),
(459,726,c),
(459,726,o),
(459,726,o)
);
},
{
closed = 1;
nodes = (
(514,140,cs),
(249,140,l),
(668,544,ls),
(684,560,o),
(694,581,o),
(694,605,cs),
(694,652,o),
(656,690,o),
(609,690,cs),
(219,690,ls),
(181,690,o),
(149,659,o),
(149,620,cs),
(149,581,o),
(181,550,o),
(219,550,cs),
(455,550,l),
(33,142,ls),
(18,127,o),
(7,106,o),
(7,83,cs),
(7,37,o),
(45,0,o),
(90,0,cs),
(514,0,ls),
(552,0,o),
(584,31,o),
(584,70,cs),
(584,109,o),
(552,140,o)
);
}
);
width = 648;
}
);
note = Zacute;
unicode = 377;
},
{
glyphname = Zcaron;
kernLeft = Z;
kernRight = Z;
lastChange = "2022-11-29 13:10:53 +0000";
layers = (
{
hints = (
{
horizontal = 1;
place = (-56, 84);
place = (-56, 84);
type = Stem;
},
{
horizontal = 1;
place = (494, 84);
place = (494, 84);
type = Stem;
},
{
horizontal = 1;
place = (679, 69);
place = (679, 69);
type = Stem;
},
{
place = (-3, 509);
place = (-3, 509);
type = Stem;
}
);
layerId = m01;
shapes = (
{
closed = 1;
nodes = (
(405,735,cs),
(480,735,ls),
(526,735,o),
(566,769,o),
(571,815,cs),
(571,819,o),
(572,823,o),
(572,827,cs),
(572,850,o),
(553,869,o),
(530,869,cs),
(515,869,o),
(501,862,o),
(494,850,cs),
(453,784,l),
(444,822,ls),
(438,847,o),
(425,860,o),
(405,860,cs),
(371,860,o),
(342,832,o),
(342,797,cs),
(342,763,o),
(371,735,o)
);
},
{
closed = 1;
nodes = (
(514,140,cs),
(249,140,l),
(668,544,ls),
(684,560,o),
(694,581,o),
(694,605,cs),
(694,652,o),
(656,690,o),
(609,690,cs),
(219,690,ls),
(181,690,o),
(149,659,o),
(149,620,cs),
(149,581,o),
(181,550,o),
(219,550,cs),
(455,550,l),
(33,142,ls),
(18,127,o),
(7,106,o),
(7,83,cs),
(7,37,o),
(45,0,o),
(90,0,cs),
(514,0,ls),
(552,0,o),
(584,31,o),
(584,70,cs),
(584,109,o),
(552,140,o)
);
}
);
width = 648;
}
);
note = Zcaron;
unicode = 381;
},
{
glyphname = Zdotaccent;
kernLeft = Z;
kernRight = Z;
lastChange = "2022-11-29 13:10:53 +0000";
layers = (
{
hints = (
{
horizontal = 1;
place = (-56, 84);
place = (-56, 84);
type = Stem;
},
{
horizontal = 1;
place = (494, 84);
place = (494, 84);
type = Stem;
},
{
horizontal = 1;
place = (669, 120);
place = (669, 120);
type = Stem;
},
{
place = (192, 130);
place = (192, 130);
type = Stem;
}
);
layerId = m01;
shapes = (
{
closed = 1;
nodes = (
(495,725,o),
(539,759,o),
(550,813,cs),
(562,867,o),
(532,901,o),
(476,901,cs),
(420,901,o),
(376,867,o),
(364,813,cs),
(353,759,o),
(383,725,o),
(439,725,cs)
);
},
{
closed = 1;
nodes = (
(514,140,cs),
(249,140,l),
(668,544,ls),
(684,560,o),
(694,581,o),
(694,605,cs),
(694,652,o),
(656,690,o),
(609,690,cs),
(219,690,ls),
(181,690,o),
(149,659,o),
(149,620,cs),
(149,581,o),
(181,550,o),
(219,550,cs),
(455,550,l),
(33,142,ls),
(18,127,o),
(7,106,o),
(7,83,cs),
(7,37,o),
(45,0,o),
(90,0,cs),
(514,0,ls),
(552,0,o),
(584,31,o),
(584,70,cs),
(584,109,o),
(552,140,o)
);
}
);
width = 648;
}
);
note = Zdotaccent;
unicode = 379;
},
{
glyphname = a;
kernLeft = a;
lastChange = "2022-11-29 13:10:53 +0000";
layers = (
{
hints = (
{
horizontal = 1;
place = (-56, 52);
place = (-56, 52);
type = Stem;
},
{
horizontal = 1;
place = (170, 46);
place = (170, 46);
type = Stem;
},
{
horizontal = 1;
place = (370, 66);
place = (370, 66);
type = Stem;
},
{
place = (-8, 114);
place = (-8, 114);
type = Stem;
},
{
place = (297, 124);
place = (297, 124);
type = Stem;
},
{
horizontal = 1;
place = (-70, 21);
target = up;
type = BottomGhost;
},
{
place = (-26, 128);
place = (-26, 128);
type = Stem;
}
);
layerId = m01;
shapes = (
{
closed = 1;
nodes = (
(316,29,o),
(356,-9,o),
(405,-9,cs),
(451,-9,o),
(488,24,o),
(494,69,cs),
(497,94,o),
(501,114,o),
(505,135,cs),
(537,285,ls),
(544,318,o),
(550,349,o),
(554,376,cs),
(566,473,o),
(524,548,o),
(355,548,cs),
(271,548,o),
(191,521,o),
(136,468,cs),
(122,454,o),
(113,436,o),
(113,414,cs),
(113,373,o),
(146,340,o),
(187,340,cs),
(215,340,o),
(238,357,o),
(250,381,cs),
(266,411,o),
(290,426,o),
(321,426,cs),
(360,426,o),
(377,402,o),
(374,375,cs),
(373,358,o),
(370,347,o),
(368,336,cs),
(366,328,l),
(332,328,ls),
(151,328,o),
(29,258,o),
(4,144,cs),
(-18,41,o),
(54,-14,o),
(142,-14,cs),
(170,-14,o),
(196,-10,o),
(222,-3,cs),
(267,11,o),
(290,36,o),
(314,76,cs),
(315,78,l)
);
},
{
closed = 1;
nodes = (
(206,108,o),
(184,126,o),
(191,158,cs),
(203,211,o),
(265,232,o),
(345,226,c),
(337,191,ls),
(325,135,o),
(278,108,o),
(242,108,cs)
);
}
);
width = 587;
}
);
note = a;
unicode = 97;
},
{
glyphname = aacute;
kernLeft = a;
lastChange = "2022-11-29 13:10:53 +0000";
layers = (
{
hints = (
{
horizontal = 1;
place = (-70, 21);
target = up;
type = BottomGhost;
},
{
horizontal = 1;
place = (170, 46);
place = (170, 46);
type = Stem;
},
{
horizontal = 1;
place = (515, 69);
place = (515, 69);
type = Stem;
},
{
place = (-26, 128);
place = (-26, 128);
type = Stem;
},
{
place = (297, 124);
place = (297, 124);
type = Stem;
},
{
horizontal = 1;
place = (-56, 52);
place = (-56, 52);
type = Stem;
},
{
horizontal = 1;
place = (370, 66);
place = (370, 66);
type = Stem;
},
{
place = (-8, 114);
place = (-8, 114);
type = Stem;
}
);
layerId = m01;
shapes = (
{
closed = 1;
nodes = (
(377,563,cs),
(465,637,o),
(459,704,o),
(459,704,cs),
(421,698,o),
(387,677,o),
(365,649,cs),
(339,614,o),
(376,562,o),
(376,562,c),
(376,562,o),
(376,562,o)
);
},
{
closed = 1;
nodes = (
(316,29,o),
(356,-9,o),
(405,-9,cs),
(451,-9,o),
(488,24,o),
(494,69,cs),
(497,94,o),
(501,114,o),
(505,135,cs),
(537,285,ls),
(544,318,o),
(550,349,o),
(554,376,cs),
(566,473,o),
(524,548,o),
(355,548,cs),
(271,548,o),
(191,521,o),
(136,468,cs),
(122,454,o),
(113,436,o),
(113,414,cs),
(113,373,o),
(146,340,o),
(187,340,cs),
(215,340,o),
(238,357,o),
(250,381,cs),
(266,411,o),
(290,426,o),
(321,426,cs),
(360,426,o),
(377,402,o),
(374,375,cs),
(373,358,o),
(370,347,o),
(368,336,cs),
(366,328,l),
(332,328,ls),
(151,328,o),
(29,258,o),
(4,144,cs),
(-18,41,o),
(54,-14,o),
(142,-14,cs),
(170,-14,o),
(196,-10,o),
(222,-3,cs),
(267,11,o),
(290,36,o),
(314,76,cs),
(315,78,l)
);
},
{
closed = 1;
nodes = (
(206,108,o),
(184,126,o),
(191,158,cs),
(203,211,o),
(265,232,o),
(345,226,c),
(337,191,ls),
(325,135,o),
(278,108,o),
(242,108,cs)
);
}
);
width = 587;
}
);
note = aacute;
unicode = 225;
},
{
glyphname = abreve;
kernLeft = a;
lastChange = "2022-11-29 13:10:53 +0000";
layers = (
{
hints = (
{
horizontal = 1;
place = (-70, 21);
target = up;
type = BottomGhost;
},
{
horizontal = 1;
place = (170, 46);
place = (170, 46);
type = Stem;
},
{
horizontal = 1;
place = (512, 72);
place = (512, 72);
type = Stem;
},
{
place = (-26, 128);
place = (-26, 128);
type = Stem;
},
{
place = (297, 124);
place = (297, 124);
type = Stem;
},
{
horizontal = 1;
place = (512, 29);
place = (512, 29);
type = Stem;
},
{
horizontal = 1;
place = (-56, 52);
place = (-56, 52);
type = Stem;
},
{
horizontal = 1;
place = (370, 66);
place = (370, 66);
type = Stem;
},
{
place = (-8, 114);
place = (-8, 114);
type = Stem;
}
);
layerId = m01;
shapes = (
{
closed = 1;
nodes = (
(411,568,o),
(466,585,o),
(498,642,cs),
(501,648,o),
(503,655,o),
(503,663,cs),
(503,686,o),
(484,706,o),
(460,706,cs),
(443,706,o),
(429,696,o),
(422,682,cs),
(412,662,o),
(397,653,o),
(375,653,cs),
(357,653,o),
(346,659,o),
(342,673,cs),
(336,692,o),
(316,707,o),
(294,707,cs),
(265,707,o),
(244,681,o),
(246,654,cs),
(250,587,o),
(298,568,o),
(357,568,cs)
);
},
{
closed = 1;
nodes = (
(316,29,o),
(356,-9,o),
(405,-9,cs),
(451,-9,o),
(488,24,o),
(494,69,cs),
(497,94,o),
(501,114,o),
(505,135,cs),
(537,285,ls),
(544,318,o),
(550,349,o),
(554,376,cs),
(566,473,o),
(524,548,o),
(355,548,cs),
(271,548,o),
(191,521,o),
(136,468,cs),
(122,454,o),
(113,436,o),
(113,414,cs),
(113,373,o),
(146,340,o),
(187,340,cs),
(215,340,o),
(238,357,o),
(250,381,cs),
(266,411,o),
(290,426,o),
(321,426,cs),
(360,426,o),
(377,402,o),
(374,375,cs),
(373,358,o),
(370,347,o),
(368,336,cs),
(366,328,l),
(332,328,ls),
(151,328,o),
(29,258,o),
(4,144,cs),
(-18,41,o),
(54,-14,o),
(142,-14,cs),
(170,-14,o),
(196,-10,o),
(222,-3,cs),
(267,11,o),
(290,36,o),
(314,76,cs),
(315,78,l)
);
},
{
closed = 1;
nodes = (
(206,108,o),
(184,126,o),
(191,158,cs),
(203,211,o),
(265,232,o),
(345,226,c),
(337,191,ls),
(325,135,o),
(278,108,o),
(242,108,cs)
);
}
);
width = 587;
}
);
note = abreve;
unicode = 259;
},
{
glyphname = acircumflex;
kernLeft = a;
lastChange = "2022-11-29 13:10:53 +0000";
layers = (
{
hints = (
{
horizontal = 1;
place = (-70, 21);
target = up;
type = BottomGhost;
},
{
horizontal = 1;
place = (170, 46);
place = (170, 46);
type = Stem;
},
{
horizontal = 1;
place = (515, 69);
place = (515, 69);
type = Stem;
},
{
place = (-26, 128);
place = (-26, 128);
type = Stem;
},
{
place = (297, 124);
place = (297, 124);
type = Stem;
},
{
horizontal = 1;
place = (591, -7);
place = (591, -7);
type = Stem;
},
{
horizontal = 1;
place = (-56, 52);
place = (-56, 52);
type = Stem;
},
{
horizontal = 1;
place = (370, 66);
place = (370, 66);
type = Stem;
},
{
place = (-8, 114);
place = (-8, 114);
type = Stem;
}
);
layerId = m01;
shapes = (
{
closed = 1;
nodes = (
(332,581,cs),
(373,647,l),
(382,609,ls),
(388,584,o),
(402,571,o),
(422,571,cs),
(456,571,o),
(484,599,o),
(484,634,cs),
(484,668,o),
(456,696,o),
(422,696,cs),
(346,696,ls),
(299,696,o),
(258,659,o),
(255,612,cs),
(255,604,ls),
(255,581,o),
(273,562,o),
(296,562,cs),
(311,562,o),
(325,569,o)
);
},
{
closed = 1;
nodes = (
(316,29,o),
(356,-9,o),
(405,-9,cs),
(451,-9,o),
(488,24,o),
(494,69,cs),
(497,94,o),
(501,114,o),
(505,135,cs),
(537,285,ls),
(544,318,o),
(550,349,o),
(554,376,cs),
(566,473,o),
(524,548,o),
(355,548,cs),
(271,548,o),
(191,521,o),
(136,468,cs),
(122,454,o),
(113,436,o),
(113,414,cs),
(113,373,o),
(146,340,o),
(187,340,cs),
(215,340,o),
(238,357,o),
(250,381,cs),
(266,411,o),
(290,426,o),
(321,426,cs),
(360,426,o),
(377,402,o),
(374,375,cs),
(373,358,o),
(370,347,o),
(368,336,cs),
(366,328,l),
(332,328,ls),
(151,328,o),
(29,258,o),
(4,144,cs),
(-18,41,o),
(54,-14,o),
(142,-14,cs),
(170,-14,o),
(196,-10,o),
(222,-3,cs),
(267,11,o),
(290,36,o),
(314,76,cs),
(315,78,l)
);
},
{
closed = 1;
nodes = (
(206,108,o),
(184,126,o),
(191,158,cs),
(203,211,o),
(265,232,o),
(345,226,c),
(337,191,ls),
(325,135,o),
(278,108,o),
(242,108,cs)
);
}
);
width = 587;
}
);
note = acircumflex;
unicode = 226;
},
{
glyphname = adieresis;
kernLeft = a;
lastChange = "2022-11-29 13:10:53 +0000";
layers = (
{
hints = (
{
horizontal = 1;
place = (-56, 52);
place = (-56, 52);
type = Stem;
},
{
horizontal = 1;
place = (170, 46);
place = (170, 46);
type = Stem;
},
{
horizontal = 1;
place = (370, 66);
place = (370, 66);
type = Stem;
},
{
horizontal = 1;
place = (513, 90);
place = (513, 90);
type = Stem;
},
{
place = (62, 94);
place = (62, 94);
type = Stem;
},
{
place = (262, 94);
place = (262, 94);
type = Stem;
},
{
place = (-8, 114);
place = (-8, 114);
type = Stem;
},
{
place = (297, 124);
place = (297, 124);
type = Stem;
},
{
horizontal = 1;
place = (-70, 21);
target = up;
type = BottomGhost;
},
{
place = (-26, 128);
place = (-26, 128);
type = Stem;
}
);
layerId = m01;
shapes = (
{
closed = 1;
nodes = (
(316,29,o),
(356,-9,o),
(405,-9,cs),
(451,-9,o),
(488,24,o),
(494,69,cs),
(497,94,o),
(501,114,o),
(505,135,cs),
(537,285,ls),
(544,318,o),
(550,349,o),
(554,376,cs),
(566,473,o),
(524,548,o),
(355,548,cs),
(271,548,o),
(191,521,o),
(136,468,cs),
(122,454,o),
(113,436,o),
(113,414,cs),
(113,373,o),
(146,340,o),
(187,340,cs),
(215,340,o),
(238,357,o),
(250,381,cs),
(266,411,o),
(290,426,o),
(321,426,cs),
(360,426,o),
(377,402,o),
(374,375,cs),
(373,358,o),
(370,347,o),
(368,336,cs),
(366,328,l),
(332,328,ls),
(151,328,o),
(29,258,o),
(4,144,cs),
(-18,41,o),
(54,-14,o),
(142,-14,cs),
(170,-14,o),
(196,-10,o),
(222,-3,cs),
(267,11,o),
(290,36,o),
(314,76,cs),
(315,78,l)
);
},
{
closed = 1;
nodes = (
(206,108,o),
(184,126,o),
(191,158,cs),
(203,211,o),
(265,232,o),
(345,226,c),
(337,191,ls),
(325,135,o),
(278,108,o),
(242,108,cs)
);
},
{
closed = 1;
nodes = (
(266,572,cs),
(312,572,o),
(340,593,o),
(349,638,cs),
(358,683,o),
(324,728,o),
(276,728,cs),
(264,728,o),
(253,725,o),
(243,720,cs),
(214,705,o),
(193,678,o),
(193,646,cs),
(193,605,o),
(226,572,o)
);
},
{
closed = 1;
nodes = (
(467,572,cs),
(513,572,o),
(541,593,o),
(550,638,cs),
(559,683,o),
(525,728,o),
(477,728,cs),
(465,728,o),
(454,725,o),
(444,720,cs),
(415,705,o),
(394,678,o),
(394,646,cs),
(394,605,o),
(427,572,o)
);
}
);
width = 587;
}
);
note = adieresis;
unicode = 228;
},
{
glyphname = agrave;
kernLeft = a;
lastChange = "2022-11-29 13:10:53 +0000";
layers = (
{
hints = (
{
horizontal = 1;
place = (-70, 21);
target = up;
type = BottomGhost;
},
{
horizontal = 1;
place = (170, 46);
place = (170, 46);
type = Stem;
},
{
horizontal = 1;
place = (515, 69);
place = (515, 69);
type = Stem;
},
{
place = (-26, 128);
place = (-26, 128);
type = Stem;
},
{
place = (297, 124);
place = (297, 124);
type = Stem;
},
{
horizontal = 1;
place = (-56, 52);
place = (-56, 52);
type = Stem;
},
{
horizontal = 1;
place = (370, 66);
place = (370, 66);
type = Stem;
},
{
place = (-8, 114);
place = (-8, 114);
type = Stem;
}
);
layerId = m01;
shapes = (
{
closed = 1;
nodes = (
(344,571,c),
(374,575,o),
(398,602,o),
(398,634,cs),
(398,665,o),
(374,692,o),
(344,696,c),
(310,696,o),
(281,668,o),
(281,633,cs),
(281,599,o),
(310,571,o)
);
},
{
closed = 1;
nodes = (
(316,29,o),
(356,-9,o),
(405,-9,cs),
(451,-9,o),
(488,24,o),
(494,69,cs),
(497,94,o),
(501,114,o),
(505,135,cs),
(537,285,ls),
(544,318,o),
(550,349,o),
(554,376,cs),
(566,473,o),
(524,548,o),
(355,548,cs),
(271,548,o),
(191,521,o),
(136,468,cs),
(122,454,o),
(113,436,o),
(113,414,cs),
(113,373,o),
(146,340,o),
(187,340,cs),
(215,340,o),
(238,357,o),
(250,381,cs),
(266,411,o),
(290,426,o),
(321,426,cs),
(360,426,o),
(377,402,o),
(374,375,cs),
(373,358,o),
(370,347,o),
(368,336,cs),
(366,328,l),
(332,328,ls),
(151,328,o),
(29,258,o),
(4,144,cs),
(-18,41,o),
(54,-14,o),
(142,-14,cs),
(170,-14,o),
(196,-10,o),
(222,-3,cs),
(267,11,o),
(290,36,o),
(314,76,cs),
(315,78,l)
);
},
{
closed = 1;
nodes = (
(206,108,o),
(184,126,o),
(191,158,cs),
(203,211,o),
(265,232,o),
(345,226,c),
(337,191,ls),
(325,135,o),
(278,108,o),
(242,108,cs)
);
}
);
width = 587;
}
);
note = agrave;
unicode = 224;
},
{
glyphname = amacron;
kernLeft = a;
lastChange = "2022-11-29 13:10:53 +0000";
layers = (
{
hints = (
{
horizontal = 1;
place = (-56, 52);
place = (-56, 52);
type = Stem;
},
{
horizontal = 1;
place = (170, 46);
place = (170, 46);
type = Stem;
},
{
horizontal = 1;
place = (370, 66);
place = (370, 66);
type = Stem;
},
{
horizontal = 1;
place = (530, 40);
place = (530, 40);
type = Stem;
},
{
place = (87, 244);
place = (87, 244);
type = Stem;
},
{
place = (-8, 114);
place = (-8, 114);
type = Stem;
},
{
place = (297, 124);
place = (297, 124);
type = Stem;
},
{
horizontal = 1;
place = (-70, 21);
target = up;
type = BottomGhost;
},
{
place = (-26, 128);
place = (-26, 128);
type = Stem;
}
);
layerId = m01;
shapes = (
{
closed = 1;
nodes = (
(482,586,ls),
(508,586,o),
(530,607,o),
(530,634,cs),
(530,661,o),
(508,682,o),
(482,682,cs),
(261,682,ls),
(235,682,o),
(213,661,o),
(213,634,cs),
(213,607,o),
(235,586,o),
(261,586,cs)
);
},
{
closed = 1;
nodes = (
(316,29,o),
(356,-9,o),
(405,-9,cs),
(451,-9,o),
(488,24,o),
(494,69,cs),
(497,94,o),
(501,114,o),
(505,135,cs),
(537,285,ls),
(544,318,o),
(550,349,o),
(554,376,cs),
(566,473,o),
(524,548,o),
(355,548,cs),
(271,548,o),
(191,521,o),
(136,468,cs),
(122,454,o),
(113,436,o),
(113,414,cs),
(113,373,o),
(146,340,o),
(187,340,cs),
(215,340,o),
(238,357,o),
(250,381,cs),
(266,411,o),
(290,426,o),
(321,426,cs),
(360,426,o),
(377,402,o),
(374,375,cs),
(373,358,o),
(370,347,o),
(368,336,cs),
(366,328,l),
(332,328,ls),
(151,328,o),
(29,258,o),
(4,144,cs),
(-18,41,o),
(54,-14,o),
(142,-14,cs),
(170,-14,o),
(196,-10,o),
(222,-3,cs),
(267,11,o),
(290,36,o),
(314,76,cs),
(315,78,l)
);
},
{
closed = 1;
nodes = (
(206,108,o),
(184,126,o),
(191,158,cs),
(203,211,o),
(265,232,o),
(345,226,c),
(337,191,ls),
(325,135,o),
(278,108,o),
(242,108,cs)
);
}
);
width = 587;
}
);
note = amacron;
unicode = 257;
},
{
glyphname = aogonek;
kernLeft = a;
lastChange = "2022-11-29 13:10:53 +0000";
layers = (
{
hints = (
{
horizontal = 1;
place = (-279, 46);
place = (-279, 46);
type = Stem;
},
{
horizontal = 1;
place = (-56, 21);
target = up;
type = BottomGhost;
},
{
horizontal = 1;
place = (170, 46);
place = (170, 46);
type = Stem;
},
{
horizontal = 1;
place = (370, 66);
place = (370, 66);
type = Stem;
},
{
place = (-26, 128);
place = (-26, 128);
type = Stem;
},
{
place = (225, 193);
place = (225, 193);
type = Stem;
},
{
place = (-8, 114);
place = (-8, 114);
type = Stem;
},
{
place = (297, 124);
place = (297, 124);
type = Stem;
},
{
horizontal = 1;
place = (-70, 21);
target = up;
type = BottomGhost;
},
{
horizontal = 1;
place = (-70, 66);
place = (-70, 66);
type = Stem;
}
);
layerId = m01;
shapes = (
{
closed = 1;
nodes = (
(382,-32,o),
(409,0,o),
(434,0,cs),
(469,0,o),
(487,31,o),
(497,90,cs),
(499,105,o),
(502,120,o),
(505,135,cs),
(537,285,ls),
(544,318,o),
(550,349,o),
(554,376,cs),
(566,473,o),
(524,548,o),
(355,548,cs),
(271,548,o),
(191,521,o),
(136,468,cs),
(122,454,o),
(113,436,o),
(113,414,cs),
(113,373,o),
(146,340,o),
(187,340,cs),
(215,340,o),
(238,357,o),
(250,381,cs),
(266,411,o),
(290,426,o),
(321,426,cs),
(360,426,o),
(377,402,o),
(374,375,cs),
(373,358,o),
(370,347,o),
(368,336,cs),
(366,328,l),
(332,328,ls),
(151,328,o),
(29,258,o),
(4,144,cs),
(-18,41,o),
(54,-14,o),
(142,-14,cs),
(170,-14,o),
(196,-10,o),
(222,-3,cs),
(267,11,o),
(290,36,o),
(314,76,cs),
(315,78,l),
(311,5,l),
(261,-21,o),
(208,-77,o),
(196,-137,cs),
(182,-201,o),
(225,-223,o),
(291,-223,cs),
(349,-223,o),
(393,-206,o),
(433,-183,cs),
(443,-177,o),
(449,-166,o),
(449,-154,cs),
(449,-134,o),
(430,-117,o),
(411,-120,c),
(409,-121,o),
(406,-121,o),
(404,-121,cs),
(384,-121,o),
(366,-108,o),
(374,-70,cs)
);
},
{
closed = 1;
nodes = (
(206,108,o),
(184,126,o),
(191,158,cs),
(203,211,o),
(265,232,o),
(345,226,c),
(337,191,ls),
(325,135,o),
(278,108,o),
(242,108,cs)
);
}
);
width = 587;
}
);
note = aogonek;
unicode = 261;
},
{
glyphname = aring;
kernLeft = a;
lastChange = "2022-11-29 13:10:53 +0000";
layers = (
{
hints = (
{
horizontal = 1;
place = (-56, 52);
place = (-56, 52);
type = Stem;
},
{
horizontal = 1;
place = (170, 46);
place = (170, 46);
type = Stem;
},
{
horizontal = 1;
place = (370, 66);
place = (370, 66);
type = Stem;
},
{
horizontal = 1;
place = (511, 10);
place = (511, 10);
type = Stem;
},
{
horizontal = 1;
place = (659, 10);
place = (659, 10);
type = Stem;
},
{
place = (118, 27);
place = (118, 27);
type = Stem;
},
{
place = (273, 27);
place = (273, 27);
type = Stem;
},
{
place = (-8, 114);
place = (-8, 114);
type = Stem;
},
{
place = (297, 124);
place = (297, 124);
type = Stem;
},
{
horizontal = 1;
place = (-70, 21);
target = up;
type = BottomGhost;
},
{
place = (-26, 128);
place = (-26, 128);
type = Stem;
}
);
layerId = m01;
shapes = (
{
closed = 1;
nodes = (
(427,567,o),
(485,610,o),
(499,674,cs),
(513,738,o),
(473,781,o),
(403,781,cs),
(333,781,o),
(275,738,o),
(261,674,cs),
(247,610,o),
(287,567,o),
(357,567,cs)
);
},
{
closed = 1;
nodes = (
(410,715,o),
(421,700,o),
(416,674,cs),
(410,648,o),
(392,633,o),
(371,633,cs),
(350,633,o),
(338,648,o),
(344,674,cs),
(349,700,o),
(368,715,o),
(389,715,cs)
);
},
{
closed = 1;
nodes = (
(316,29,o),
(356,-9,o),
(405,-9,cs),
(451,-9,o),
(488,24,o),
(494,69,cs),
(497,94,o),
(501,114,o),
(505,135,cs),
(537,285,ls),
(544,318,o),
(550,349,o),
(554,376,cs),
(566,473,o),
(524,548,o),
(355,548,cs),
(271,548,o),
(191,521,o),
(136,468,cs),
(122,454,o),
(113,436,o),
(113,414,cs),
(113,373,o),
(146,340,o),
(187,340,cs),
(215,340,o),
(238,357,o),
(250,381,cs),
(266,411,o),
(290,426,o),
(321,426,cs),
(360,426,o),
(377,402,o),
(374,375,cs),
(373,358,o),
(370,347,o),
(368,336,cs),
(366,328,l),
(332,328,ls),
(151,328,o),
(29,258,o),
(4,144,cs),
(-18,41,o),
(54,-14,o),
(142,-14,cs),
(170,-14,o),
(196,-10,o),
(222,-3,cs),
(267,11,o),
(290,36,o),
(314,76,cs),
(315,78,l)
);
},
{
closed = 1;
nodes = (
(206,108,o),
(184,126,o),
(191,158,cs),
(203,211,o),
(265,232,o),
(345,226,c),
(337,191,ls),
(325,135,o),
(278,108,o),
(242,108,cs)
);
}
);
width = 587;
}
);
note = aring;
unicode = 229;
},
{
glyphname = atilde;
kernLeft = a;
lastChange = "2022-11-29 13:10:53 +0000";
layers = (
{
hints = (
{
horizontal = 1;
place = (-70, 21);
target = up;
type = BottomGhost;
},
{
horizontal = 1;
place = (170, 46);
place = (170, 46);
type = Stem;
},
{
horizontal = 1;
place = (370, 66);
place = (370, 66);
type = Stem;
},
{
horizontal = 1;
place = (518, 78);
place = (518, 78);
type = Stem;
},
{
place = (73, 40);
place = (73, 40);
type = Stem;
},
{
place = (297, 124);
place = (297, 124);
type = Stem;
},
{
horizontal = 1;
place = (515, 78);
place = (515, 78);
type = Stem;
},
{
place = (-26, 128);
place = (-26, 128);
type = Stem;
},
{
place = (305, 40);
place = (305, 40);
type = Stem;
},
{
horizontal = 1;
place = (515, 47);
place = (515, 47);
type = Stem;
},
{
horizontal = 1;
place = (-56, 52);
place = (-56, 52);
type = Stem;
},
{
place = (-8, 114);
place = (-8, 114);
type = Stem;
}
);
layerId = m01;
shapes = (
{
closed = 1;
nodes = (
(320,605,o),
(332,600,o),
(354,590,cs),
(388,574,o),
(403,571,o),
(432,571,cs),
(479,571,o),
(512,595,o),
(534,652,cs),
(536,657,o),
(537,662,o),
(537,668,cs),
(537,694,o),
(516,714,o),
(491,714,cs),
(472,714,o),
(455,702,o),
(448,686,cs),
(444,677,o),
(440,674,o),
(433,674,cs),
(425,674,o),
(413,678,o),
(391,689,cs),
(359,705,o),
(342,708,o),
(313,708,cs),
(265,708,o),
(233,684,o),
(211,627,cs),
(209,622,o),
(208,616,o),
(208,611,cs),
(208,585,o),
(229,565,o),
(254,565,cs),
(273,565,o),
(290,577,o),
(297,593,cs),
(301,602,o),
(306,605,o),
(312,605,cs)
);
},
{
closed = 1;
nodes = (
(316,29,o),
(356,-9,o),
(405,-9,cs),
(451,-9,o),
(488,24,o),
(494,69,cs),
(497,94,o),
(501,114,o),
(505,135,cs),
(537,285,ls),
(544,318,o),
(550,349,o),
(554,376,cs),
(566,473,o),
(524,548,o),
(355,548,cs),
(271,548,o),
(191,521,o),
(136,468,cs),
(122,454,o),
(113,436,o),
(113,414,cs),
(113,373,o),
(146,340,o),
(187,340,cs),
(215,340,o),
(238,357,o),
(250,381,cs),
(266,411,o),
(290,426,o),
(321,426,cs),
(360,426,o),
(377,402,o),
(374,375,cs),
(373,358,o),
(370,347,o),
(368,336,cs),
(366,328,l),
(332,328,ls),
(151,328,o),
(29,258,o),
(4,144,cs),
(-18,41,o),
(54,-14,o),
(142,-14,cs),
(170,-14,o),
(196,-10,o),
(222,-3,cs),
(267,11,o),
(290,36,o),
(314,76,cs),
(315,78,l)
);
},
{
closed = 1;
nodes = (
(206,108,o),
(184,126,o),
(191,158,cs),
(203,211,o),
(265,232,o),
(345,226,c),
(337,191,ls),
(325,135,o),
(278,108,o),
(242,108,cs)
);
}
);
width = 587;
}
);
note = atilde;
unicode = 227;
},
{
glyphname = ae;
kernLeft = a;
kernRight = ae;
lastChange = "2022-11-29 13:10:53 +0000";
layers = (
{
hints = (
{
horizontal = 1;
place = (-70, 66);
place = (-70, 66);
type = Stem;
},
{
horizontal = 1;
place = (166, 54);
place = (166, 54);
type = Stem;
},
{
horizontal = 1;
place = (370, 66);
place = (370, 66);
type = Stem;
},
{
place = (-26, 128);
place = (-26, 128);
type = Stem;
}
);
layerId = m01;
shapes = (
{
closed = 1;
nodes = (
(981,412,o),
(920,548,o),
(752,548,cs),
(665,548,o),
(584,517,o),
(526,455,c),
(509,514,o),
(452,548,o),
(355,548,cs),
(272,548,o),
(192,521,o),
(136,469,cs),
(122,455,o),
(113,436,o),
(113,414,cs),
(113,373,o),
(146,339,o),
(187,339,cs),
(215,339,o),
(237,355,o),
(250,378,cs),
(268,410,o),
(299,426,o),
(331,426,cs),
(385,426,o),
(405,397,o),
(393,338,c),
(391,332,l),
(333,332,ls),
(162,332,o),
(31,271,o),
(5,149,cs),
(-18,41,o),
(54,-14,o),
(182,-14,cs),
(212,-14,o),
(246,-9,o),
(277,0,cs),
(318,12,o),
(342,32,o),
(374,62,cs),
(414,100,l),
(445,23,o),
(515,-14,o),
(613,-14,cs),
(698,-14,o),
(774,12,o),
(833,63,cs),
(848,76,o),
(857,95,o),
(857,116,cs),
(857,155,o),
(826,186,o),
(787,186,cs),
(763,186,o),
(742,172,o),
(730,153,cs),
(711,123,o),
(680,108,o),
(641,108,cs),
(590,108,o),
(556,133,o),
(566,222,c),
(854,222,ls),
(910,222,o),
(952,274,o),
(952,274,cs)
);
},
{
closed = 1;
nodes = (
(595,332,l),
(622,397,o),
(661,426,o),
(707,426,cs),
(756,426,o),
(780,394,o),
(776,332,c)
);
},
{
closed = 1;
nodes = (
(367,214,ls),
(353,146,o),
(308,108,o),
(253,108,cs),
(206,108,o),
(184,126,o),
(192,163,cs),
(202,210,o),
(256,228,o),
(369,222,c)
);
}
);
width = 974;
}
);
note = ae;
unicode = 230;
},
{
glyphname = b;
kernRight = b;
lastChange = "2022-11-29 13:10:53 +0000";
layers = (
{
hints = (
{
horizontal = 1;
place = (-70, 66);
place = (-70, 66);
type = Stem;
},
{
horizontal = 1;
place = (370, 66);
place = (370, 66);
type = Stem;
},
{
horizontal = 1;
place = (679, -20);
target = down;
type = TopGhost;
},
{
place = (-2, 124);
place = (-2, 124);
type = Stem;
},
{
place = (405, 128);
place = (405, 128);
type = Stem;
},
{
horizontal = 1;
place = (-56, 52);
place = (-56, 52);
type = Stem;
}
);
layerId = m01;
shapes = (
{
closed = 1;
nodes = (
(436,548,o),
(402,544,o),
(373,535,cs),
(338,524,o),
(317,502,o),
(288,470,cs),
(275,456,l),
(313,638,ls),
(314,643,o),
(315,650,o),
(315,656,cs),
(315,705,o),
(276,744,o),
(227,744,cs),
(185,744,o),
(149,713,o),
(141,674,cs),
(19,97,ls),
(18,92,o),
(17,85,o),
(17,79,cs),
(17,30,o),
(56,-9,o),
(104,-9,cs),
(147,-9,o),
(182,21,o),
(190,61,cs),
(192,69,l),
(204,41,ls),
(212,20,o),
(231,-1,o),
(279,-9,cs),
(296,-12,o),
(315,-14,o),
(333,-14,cs),
(470,-14,o),
(608,89,o),
(648,279,cs),
(682,437,o),
(615,548,o),
(470,548,cs)
);
},
{
closed = 1;
nodes = (
(256,108,o),
(208,144,o),
(231,251,cs),
(236,274,ls),
(260,386,o),
(316,426,o),
(382,426,cs),
(445,426,o),
(483,370,o),
(462,270,cs),
(439,161,o),
(380,108,o),
(310,108,cs)
);
}
);
width = 669;
}
);
note = b;
unicode = 98;
},
{
glyphname = c;
kernLeft = c;
lastChange = "2022-11-29 13:10:53 +0000";
layers = (
{
hints = (
{
horizontal = 1;
place = (-70, 66);
place = (-70, 66);
type = Stem;
},
{
horizontal = 1;
place = (370, 66);
place = (370, 66);
type = Stem;
},
{
place = (-32, 128);
place = (-32, 128);
type = Stem;
},
{
place = (333, 118);
place = (333, 118);
type = Stem;
}
);
layerId = m01;
shapes = (
{
closed = 1;
nodes = (
(208,548,o),
(62,445,o),
(23,261,cs),
(-14,85,o),
(81,-14,o),
(234,-14,cs),
(329,-14,o),
(414,17,o),
(475,79,cs),
(488,93,o),
(496,111,o),
(496,132,cs),
(496,173,o),
(463,207,o),
(421,207,cs),
(393,207,o),
(370,191,o),
(357,168,cs),
(334,127,o),
(302,108,o),
(270,108,cs),
(209,108,o),
(185,158,o),
(209,272,cs),
(231,375,o),
(275,426,o),
(335,426,cs),
(366,426,o),
(389,414,o),
(399,381,cs),
(409,345,o),
(443,319,o),
(482,319,cs),
(530,319,o),
(569,358,o),
(569,406,cs),
(569,418,o),
(568,432,o),
(563,443,cs),
(534,507,o),
(467,548,o),
(365,548,cs)
);
}
);
width = 587;
}
);
note = c;
unicode = 99;
},
{
glyphname = cacute;
kernLeft = c;
lastChange = "2022-11-29 13:10:53 +0000";
layers = (
{
hints = (
{
horizontal = 1;
place = (-70, 66);
place = (-70, 66);
type = Stem;
},
{
horizontal = 1;
place = (515, 69);
place = (515, 69);
type = Stem;
},
{
place = (-32, 128);
place = (-32, 128);
type = Stem;
},
{
horizontal = 1;
place = (370, 66);
place = (370, 66);
type = Stem;
},
{
place = (333, 118);
place = (333, 118);
type = Stem;
}
);
layerId = m01;
shapes = (
{
closed = 1;
nodes = (
(377,563,cs),
(465,637,o),
(459,704,o),
(459,704,cs),
(421,698,o),
(387,677,o),
(365,649,cs),
(339,614,o),
(376,562,o),
(376,562,c),
(376,562,o),
(376,562,o)
);
},
{
closed = 1;
nodes = (
(208,548,o),
(62,445,o),
(23,261,cs),
(-14,85,o),
(81,-14,o),
(234,-14,cs),
(329,-14,o),
(414,17,o),
(475,79,cs),
(488,93,o),
(496,111,o),
(496,132,cs),
(496,173,o),
(463,207,o),
(421,207,cs),
(393,207,o),
(370,191,o),
(357,168,cs),
(334,127,o),
(302,108,o),
(270,108,cs),
(209,108,o),
(185,158,o),
(209,272,cs),
(231,375,o),
(275,426,o),
(335,426,cs),
(366,426,o),
(389,414,o),
(399,381,cs),
(409,345,o),
(443,319,o),
(482,319,cs),
(530,319,o),
(569,358,o),
(569,406,cs),
(569,418,o),
(568,432,o),
(563,443,cs),
(534,507,o),
(467,548,o),
(365,548,cs)
);
}
);
width = 587;
}
);
note = cacute;
unicode = 263;
},
{
glyphname = ccaron;
kernLeft = c;
lastChange = "2022-11-29 13:10:53 +0000";
layers = (
{
hints = (
{
horizontal = 1;
place = (-70, 66);
place = (-70, 66);
type = Stem;
},
{
horizontal = 1;
place = (515, 69);
place = (515, 69);
type = Stem;
},
{
place = (-32, 128);
place = (-32, 128);
type = Stem;
},
{
horizontal = 1;
place = (370, 66);
place = (370, 66);
type = Stem;
},
{
place = (333, 118);
place = (333, 118);
type = Stem;
}
);
layerId = m01;
shapes = (
{
closed = 1;
nodes = (
(322,571,cs),
(397,571,ls),
(443,571,o),
(483,605,o),
(488,651,cs),
(488,655,o),
(489,659,o),
(489,663,cs),
(489,686,o),
(471,705,o),
(448,705,cs),
(433,705,o),
(419,697,o),
(412,686,cs),
(370,620,l),
(362,658,ls),
(356,684,o),
(342,696,o),
(322,696,cs),
(288,696,o),
(260,668,o),
(260,633,cs),
(260,599,o),
(288,571,o)
);
},
{
closed = 1;
nodes = (
(357,168,cs),
(334,127,o),
(302,108,o),
(270,108,cs),
(209,108,o),
(185,158,o),
(209,272,cs),
(231,375,o),
(275,426,o),
(335,426,cs),
(366,426,o),
(389,414,o),
(399,381,cs),
(409,345,o),
(443,319,o),
(482,319,cs),
(530,319,o),
(569,358,o),
(569,406,cs),
(569,418,o),
(568,432,o),
(563,443,cs),
(534,507,o),
(467,548,o),
(365,548,cs),
(208,548,o),
(62,445,o),
(23,261,cs),
(-14,85,o),
(81,-14,o),
(234,-14,cs),
(329,-14,o),
(414,17,o),
(475,79,cs),
(488,93,o),
(496,111,o),
(496,132,cs),
(496,173,o),
(463,207,o),
(421,207,cs),
(393,207,o),
(370,191,o)
);
}
);
width = 587;
}
);
note = ccaron;
unicode = 269;
},
{
glyphname = ccedilla;
kernLeft = c;
lastChange = "2022-11-29 13:10:53 +0000";
layers = (
{
hints = (
{
horizontal = 1;
place = (-266, 13);
place = (-266, 13);
type = Stem;
},
{
horizontal = 1;
place = (-66, 21);
target = up;
type = BottomGhost;
},
{
horizontal = 1;
place = (370, 66);
place = (370, 66);
type = Stem;
},
{
place = (-32, 128);
place = (-32, 128);
type = Stem;
},
{
place = (243, 52);
place = (243, 52);
type = Stem;
},
{
place = (333, 118);
place = (333, 118);
type = Stem;
}
);
layerId = m01;
shapes = (
{
closed = 1;
nodes = (
(357,168,cs),
(334,127,o),
(302,108,o),
(270,108,cs),
(209,108,o),
(185,158,o),
(209,272,cs),
(231,375,o),
(275,426,o),
(335,426,cs),
(366,426,o),
(389,414,o),
(399,381,cs),
(409,345,o),
(443,319,o),
(482,319,cs),
(530,319,o),
(569,358,o),
(569,406,cs),
(569,418,o),
(568,432,o),
(563,443,cs),
(534,507,o),
(467,548,o),
(365,548,cs),
(208,548,o),
(62,445,o),
(23,261,cs),
(-10,106,o),
(60,11,o),
(182,-10,c),
(155,-49,ls),
(139,-72,o),
(218,-114,o),
(218,-114,cs),
(215,-132,o),
(196,-141,o),
(153,-141,cs),
(146,-141,o),
(136,-141,o),
(125,-139,cs),
(106,-137,o),
(94,-146,o),
(89,-169,cs),
(84,-192,o),
(137,-210,o),
(137,-210,cs),
(229,-210,o),
(311,-188,o),
(325,-119,cs),
(335,-74,o),
(308,-49,o),
(247,-42,c),
(267,-13,l),
(348,-6,o),
(421,24,o),
(475,79,cs),
(488,93,o),
(496,111,o),
(496,132,cs),
(496,173,o),
(463,207,o),
(421,207,cs),
(393,207,o),
(370,191,o)
);
}
);
width = 587;
}
);
note = ccedilla;
unicode = 231;
},
{
glyphname = cdotaccent;
kernLeft = c;
lastChange = "2022-11-29 13:10:53 +0000";
layers = (
{
hints = (
{
horizontal = 1;
place = (-70, 66);
place = (-70, 66);
type = Stem;
},
{
horizontal = 1;
place = (370, 66);
place = (370, 66);
type = Stem;
},
{
horizontal = 1;
place = (519, 120);
place = (519, 120);
type = Stem;
},
{
place = (144, 130);
place = (144, 130);
type = Stem;
},
{
place = (-32, 128);
place = (-32, 128);
type = Stem;
},
{
place = (333, 118);
place = (333, 118);
type = Stem;
}
);
layerId = m01;
shapes = (
{
closed = 1;
nodes = (
(340,751,o),
(296,717,o),
(285,663,cs),
(273,609,o),
(303,575,o),
(359,575,cs),
(415,575,o),
(459,609,o),
(471,663,cs),
(482,717,o),
(452,751,o),
(396,751,cs)
);
},
{
closed = 1;
nodes = (
(208,548,o),
(62,445,o),
(23,261,cs),
(-14,85,o),
(81,-14,o),
(234,-14,cs),
(329,-14,o),
(414,17,o),
(475,79,cs),
(488,93,o),
(496,111,o),
(496,132,cs),
(496,173,o),
(463,207,o),
(421,207,cs),
(393,207,o),
(370,191,o),
(357,168,cs),
(334,127,o),
(302,108,o),
(270,108,cs),
(209,108,o),
(185,158,o),
(209,272,cs),
(231,375,o),
(275,426,o),
(335,426,cs),
(366,426,o),
(389,414,o),
(399,381,cs),
(409,345,o),
(443,319,o),
(482,319,cs),
(530,319,o),
(569,358,o),
(569,406,cs),
(569,418,o),
(568,432,o),
(563,443,cs),
(534,507,o),
(467,548,o),
(365,548,cs)
);
}
);
width = 587;
}
);
note = cdotaccent;
unicode = 267;
},
{
glyphname = d;
kernLeft = c;
lastChange = "2022-11-29 13:10:53 +0000";
layers = (
{
hints = (
{
horizontal = 1;
place = (-70, 66);
place = (-70, 66);
type = Stem;
},
{
horizontal = 1;
place = (370, 66);
place = (370, 66);
type = Stem;
},
{
horizontal = 1;
place = (679, -20);
target = down;
type = TopGhost;
},
{
place = (-32, 128);
place = (-32, 128);
type = Stem;
},
{
place = (379, 124);
place = (379, 124);
type = Stem;
},
{
horizontal = 1;
place = (-56, 52);
place = (-56, 52);
type = Stem;
}
);
layerId = m01;
shapes = (
{
closed = 1;
nodes = (
(694,638,ls),
(695,644,o),
(696,650,o),
(696,656,cs),
(696,705,o),
(657,744,o),
(608,744,cs),
(566,744,o),
(530,713,o),
(522,674,cs),
(478,465,l),
(467,494,ls),
(459,515,o),
(439,535,o),
(391,543,cs),
(374,546,o),
(355,548,o),
(337,548,cs),
(200,548,o),
(62,445,o),
(22,255,cs),
(-12,97,o),
(55,-14,o),
(200,-14,cs),
(231,-14,o),
(261,-10,o),
(288,-3,cs),
(330,8,o),
(353,32,o),
(382,64,cs),
(395,78,l),
(396,28,o),
(436,-11,o),
(486,-11,cs),
(529,-11,o),
(563,20,o),
(572,61,cs)
);
},
{
closed = 1;
nodes = (
(225,108,o),
(187,164,o),
(208,264,cs),
(231,373,o),
(290,426,o),
(360,426,cs),
(414,426,o),
(462,390,o),
(439,283,cs),
(434,260,ls),
(410,148,o),
(354,108,o),
(288,108,cs)
);
}
);
width = 669;
}
);
note = d;
unicode = 100;
},
{
glyphname = eth;
kernLeft = c;
lastChange = "2022-11-29 13:10:53 +0000";
layers = (
{
hints = (
{
horizontal = 1;
place = (-70, 76);
place = (-70, 76);
type = Stem;
},
{
horizontal = 1;
place = (360, 76);
place = (360, 76);
type = Stem;
},
{
horizontal = 1;
place = (640, -20);
target = down;
type = TopGhost;
},
{
horizontal = 1;
place = (689, -20);
target = down;
type = TopGhost;
},
{
place = (-32, 132);
place = (-32, 132);
type = Stem;
},
{
place = (379, 128);
place = (379, 128);
type = Stem;
}
);
layerId = m01;
shapes = (
{
closed = 1;
nodes = (
(650,620,ls),
(666,623,o),
(680,637,o),
(680,655,cs),
(680,677,o),
(659,694,o),
(638,690,cs),
(583,680,l),
(567,697,o),
(547,713,o),
(524,730,cs),
(512,739,o),
(496,744,o),
(480,744,cs),
(438,744,o),
(404,710,o),
(404,668,cs),
(404,662,o),
(382,650,o),
(383,644,c),
(334,635,ls),
(318,632,o),
(304,618,o),
(304,600,cs),
(304,578,o),
(325,561,o),
(346,565,cs),
(440,582,l),
(462,546,o),
(469,506,o),
(466,465,c),
(450,492,ls),
(439,511,o),
(422,535,o),
(378,545,cs),
(368,547,o),
(358,548,o),
(348,548,cs),
(201,548,o),
(63,450,o),
(24,267,cs),
(-11,102,o),
(64,-14,o),
(268,-14,cs),
(405,-14,o),
(577,67,o),
(628,307,cs),
(658,447,o),
(656,544,o),
(625,615,c)
);
},
{
closed = 1;
nodes = (
(434,260,ls),
(417,178,o),
(372,118,o),
(296,118,cs),
(225,118,o),
(190,163,o),
(212,267,cs),
(232,359,o),
(282,416,o),
(360,416,cs),
(426,416,o),
(456,364,o),
(440,289,cs)
);
}
);
width = 662;
}
);
note = eth;
unicode = 240;
},
{
glyphname = dcaron;
kernLeft = c;
lastChange = "2022-11-29 13:10:53 +0000";
layers = (
{
hints = (
{
horizontal = 1;
place = (-70, 66);
place = (-70, 66);
type = Stem;
},
{
horizontal = 1;
place = (500, 123);
place = (500, 123);
type = Stem;
},
{
place = (-32, 128);
place = (-32, 128);
type = Stem;
},
{
place = (379, 124);
place = (379, 124);
type = Stem;
},
{
horizontal = 1;
place = (370, 66);
place = (370, 66);
type = Stem;
},
{
horizontal = 1;
place = (-56, 52);
place = (-56, 52);
type = Stem;
}
);
layerId = m01;
shapes = (
{
closed = 1;
nodes = (
(522,674,cs),
(478,465,l),
(467,494,ls),
(459,515,o),
(439,535,o),
(391,543,cs),
(374,546,o),
(355,548,o),
(337,548,cs),
(200,548,o),
(62,445,o),
(22,255,cs),
(-12,97,o),
(55,-14,o),
(200,-14,cs),
(231,-14,o),
(261,-10,o),
(288,-3,cs),
(330,8,o),
(353,32,o),
(382,64,cs),
(395,78,l),
(396,28,o),
(436,-11,o),
(485,-11,cs),
(529,-11,o),
(563,20,o),
(572,61,cs),
(694,638,ls),
(695,644,o),
(696,650,o),
(696,656,cs),
(696,705,o),
(657,744,o),
(608,744,cs),
(566,744,o),
(530,713,o)
);
},
{
closed = 1;
nodes = (
(890,762,o),
(876,766,o),
(861,766,cs),
(832,766,o),
(824,740,o),
(809,717,cs),
(737,610,ls),
(733,604,o),
(730,596,o),
(730,587,cs),
(730,565,o),
(748,547,o),
(770,547,cs),
(783,547,o),
(795,553,o),
(802,562,cs),
(873,649,ls),
(912,698,o),
(927,741,o),
(903,755,cs)
);
},
{
closed = 1;
nodes = (
(225,108,o),
(187,164,o),
(208,264,cs),
(231,373,o),
(290,426,o),
(360,426,cs),
(414,426,o),
(462,390,o),
(439,283,cs),
(434,260,ls),
(410,148,o),
(354,108,o),
(288,108,cs)
);
}
);
width = 661;
}
);
note = dcaron;
unicode = 271;
},
{
glyphname = dcroat;
kernLeft = c;
lastChange = "2022-11-29 13:10:53 +0000";
layers = (
{
hints = (
{
horizontal = 1;
place = (-70, 66);
place = (-70, 66);
type = Stem;
},
{
horizontal = 1;
place = (519, 104);
place = (519, 104);
type = Stem;
},
{
place = (-32, 128);
place = (-32, 128);
type = Stem;
},
{
place = (379, 124);
place = (379, 124);
type = Stem;
},
{
horizontal = 1;
place = (519, 40);
place = (519, 40);
type = Stem;
},
{
horizontal = 1;
place = (370, 66);
place = (370, 66);
type = Stem;
},
{
horizontal = 1;
place = (-56, 52);
place = (-56, 52);
type = Stem;
}
);
layerId = m01;
shapes = (
{
closed = 1;
nodes = (
(691,575,ls),
(717,575,o),
(739,596,o),
(739,623,cs),
(739,646,o),
(723,666,o),
(701,671,c),
(694,716,o),
(655,751,o),
(608,751,cs),
(562,751,o),
(531,718,o),
(522,675,cs),
(521,671,l),
(431,671,ls),
(405,671,o),
(383,650,o),
(383,623,cs),
(383,596,o),
(405,575,o),
(431,575,cs),
(501,575,l),
(478,465,l),
(467,494,ls),
(459,515,o),
(439,535,o),
(391,543,cs),
(374,546,o),
(355,548,o),
(337,548,cs),
(200,548,o),
(62,445,o),
(22,255,cs),
(-12,97,o),
(55,-14,o),
(200,-14,cs),
(231,-14,o),
(261,-10,o),
(288,-3,cs),
(330,8,o),
(353,32,o),
(382,64,cs),
(395,78,l),
(396,28,o),
(436,-11,o),
(485,-11,cs),
(529,-11,o),
(563,20,o),
(572,61,cs),
(681,575,l)
);
},
{
closed = 1;
nodes = (
(225,108,o),
(187,164,o),
(208,264,cs),
(231,373,o),
(290,426,o),
(360,426,cs),
(414,426,o),
(462,390,o),
(439,283,cs),
(434,260,ls),
(410,148,o),
(354,108,o),
(288,108,cs)
);
}
);
width = 669;
}
);
note = dcroat;
unicode = 273;
},
{
glyphname = e;
kernLeft = c;
kernRight = ae;
lastChange = "2022-11-29 13:10:53 +0000";
layers = (
{
hints = (
{
horizontal = 1;
place = (-70, 66);
place = (-70, 66);
type = Stem;
},
{
horizontal = 1;
place = (166, 54);
place = (166, 54);
type = Stem;
},
{
horizontal = 1;
place = (370, 66);
place = (370, 66);
type = Stem;
},
{
place = (-32, 122);
place = (-32, 122);
type = Stem;
}
);
layerId = m01;
shapes = (
{
closed = 1;
nodes = (
(608,412,o),
(547,548,o),
(369,548,cs),
(191,548,o),
(57,421,o),
(24,265,cs),
(-16,77,o),
(87,-14,o),
(240,-14,cs),
(325,-14,o),
(401,12,o),
(460,63,cs),
(475,76,o),
(484,95,o),
(484,116,cs),
(484,155,o),
(453,186,o),
(414,186,cs),
(390,186,o),
(369,172,o),
(357,153,cs),
(338,123,o),
(307,108,o),
(268,108,cs),
(217,108,o),
(183,133,o),
(193,222,c),
(481,222,ls),
(537,222,o),
(579,274,o),
(579,274,cs)
);
},
{
closed = 1;
nodes = (
(382,426,o),
(407,395,o),
(403,332,c),
(222,332,l),
(248,398,o),
(287,426,o),
(334,426,cs)
);
}
);
width = 601;
}
);
note = e;
unicode = 101;
},
{
glyphname = eacute;
kernLeft = c;
kernRight = ae;
lastChange = "2022-11-29 13:10:53 +0000";
layers = (
{
hints = (
{
horizontal = 1;
place = (-70, 66);
place = (-70, 66);
type = Stem;
},
{
horizontal = 1;
place = (166, 54);
place = (166, 54);
type = Stem;
},
{
horizontal = 1;
place = (515, 69);
place = (515, 69);
type = Stem;
},
{
place = (-32, 122);
place = (-32, 122);
type = Stem;
},
{
horizontal = 1;
place = (370, 66);
place = (370, 66);
type = Stem;
}
);
layerId = m01;
shapes = (
{
closed = 1;
nodes = (
(386,563,cs),
(474,637,o),
(468,704,o),
(468,704,cs),
(430,698,o),
(396,677,o),
(374,649,cs),
(348,614,o),
(385,562,o),
(385,562,c),
(385,562,o),
(385,562,o)
);
},
{
closed = 1;
nodes = (
(608,412,o),
(547,548,o),
(369,548,cs),
(191,548,o),
(57,421,o),
(24,265,cs),
(-16,77,o),
(87,-14,o),
(240,-14,cs),
(325,-14,o),
(401,12,o),
(460,63,cs),
(475,76,o),
(484,95,o),
(484,116,cs),
(484,155,o),
(453,186,o),
(414,186,cs),
(390,186,o),
(369,172,o),
(357,153,cs),
(338,123,o),
(307,108,o),
(268,108,cs),
(217,108,o),
(183,133,o),
(193,222,c),
(481,222,ls),
(537,222,o),
(579,274,o),
(579,274,cs)
);
},
{
closed = 1;
nodes = (
(382,426,o),
(407,395,o),
(403,332,c),
(222,332,l),
(248,398,o),
(287,426,o),
(334,426,cs)
);
}
);
width = 601;
}
);
note = eacute;
unicode = 233;
},
{
glyphname = ecaron;
kernLeft = c;
kernRight = ae;
lastChange = "2022-11-29 13:10:53 +0000";
layers = (
{
hints = (
{
horizontal = 1;
place = (-70, 66);
place = (-70, 66);
type = Stem;
},
{
horizontal = 1;
place = (166, 54);
place = (166, 54);
type = Stem;
},
{
horizontal = 1;
place = (515, 69);
place = (515, 69);
type = Stem;
},
{
place = (-32, 122);
place = (-32, 122);
type = Stem;
},
{
horizontal = 1;
place = (370, 66);
place = (370, 66);
type = Stem;
}
);
layerId = m01;
shapes = (
{
closed = 1;
nodes = (
(331,571,cs),
(406,571,ls),
(452,571,o),
(492,605,o),
(497,651,cs),
(497,655,o),
(498,659,o),
(498,663,cs),
(498,686,o),
(480,705,o),
(457,705,cs),
(442,705,o),
(428,697,o),
(421,686,cs),
(379,620,l),
(371,658,ls),
(365,684,o),
(351,696,o),
(331,696,cs),
(297,696,o),
(269,668,o),
(269,633,cs),
(269,599,o),
(297,571,o)
);
},
{
closed = 1;
nodes = (
(608,412,o),
(547,548,o),
(369,548,cs),
(191,548,o),
(57,421,o),
(24,265,cs),
(-16,77,o),
(87,-14,o),
(240,-14,cs),
(325,-14,o),
(401,12,o),
(460,63,cs),
(475,76,o),
(484,95,o),
(484,116,cs),
(484,155,o),
(453,186,o),
(414,186,cs),
(390,186,o),
(369,172,o),
(357,153,cs),
(338,123,o),
(307,108,o),
(268,108,cs),
(217,108,o),
(183,133,o),
(193,222,c),
(481,222,ls),
(537,222,o),
(579,274,o),
(579,274,cs)
);
},
{
closed = 1;
nodes = (
(382,426,o),
(407,395,o),
(403,332,c),
(222,332,l),
(248,398,o),
(287,426,o),
(334,426,cs)
);
}
);
width = 601;
}
);
note = ecaron;
unicode = 283;
},
{
glyphname = ecircumflex;
kernLeft = c;
kernRight = ae;
lastChange = "2022-11-29 13:10:53 +0000";
layers = (
{
hints = (
{
horizontal = 1;
place = (-70, 66);
place = (-70, 66);
type = Stem;
},
{
horizontal = 1;
place = (166, 54);
place = (166, 54);
type = Stem;
},
{
horizontal = 1;
place = (515, 69);
place = (515, 69);
type = Stem;
},
{
place = (-32, 122);
place = (-32, 122);
type = Stem;
},
{
horizontal = 1;
place = (591, -7);
place = (591, -7);
type = Stem;
},
{
horizontal = 1;
place = (370, 66);
place = (370, 66);
type = Stem;
}
);
layerId = m01;
shapes = (
{
closed = 1;
nodes = (
(341,581,cs),
(382,647,l),
(391,609,ls),
(397,584,o),
(411,571,o),
(431,571,cs),
(465,571,o),
(493,599,o),
(493,634,cs),
(493,668,o),
(465,696,o),
(431,696,cs),
(355,696,ls),
(308,696,o),
(267,659,o),
(264,612,cs),
(264,604,ls),
(264,581,o),
(282,562,o),
(305,562,cs),
(320,562,o),
(334,569,o)
);
},
{
closed = 1;
nodes = (
(608,412,o),
(547,548,o),
(369,548,cs),
(191,548,o),
(57,421,o),
(24,265,cs),
(-16,77,o),
(87,-14,o),
(240,-14,cs),
(325,-14,o),
(401,12,o),
(460,63,cs),
(475,76,o),
(484,95,o),
(484,116,cs),
(484,155,o),
(453,186,o),
(414,186,cs),
(390,186,o),
(369,172,o),
(357,153,cs),
(338,123,o),
(307,108,o),
(268,108,cs),
(217,108,o),
(183,133,o),
(193,222,c),
(481,222,ls),
(537,222,o),
(579,274,o),
(579,274,cs)
);
},
{
closed = 1;
nodes = (
(382,426,o),
(407,395,o),
(403,332,c),
(222,332,l),
(248,398,o),
(287,426,o),
(334,426,cs)
);
}
);
width = 601;
}
);
note = ecircumflex;
unicode = 234;
},
{
glyphname = edieresis;
kernLeft = c;
kernRight = ae;
lastChange = "2022-11-29 13:10:53 +0000";
layers = (
{
hints = (
{
horizontal = 1;
place = (-70, 66);
place = (-70, 66);
type = Stem;
},
{
horizontal = 1;
place = (166, 54);
place = (166, 54);
type = Stem;
},
{
horizontal = 1;
place = (370, 66);
place = (370, 66);
type = Stem;
},
{
horizontal = 1;
place = (513, 90);
place = (513, 90);
type = Stem;
},
{
place = (71, 94);
place = (71, 94);
type = Stem;
},
{
place = (271, 94);
place = (271, 94);
type = Stem;
},
{
place = (-32, 122);
place = (-32, 122);
type = Stem;
}
);
layerId = m01;
shapes = (
{
closed = 1;
nodes = (
(608,412,o),
(547,548,o),
(369,548,cs),
(191,548,o),
(57,421,o),
(24,265,cs),
(-16,77,o),
(87,-14,o),
(240,-14,cs),
(325,-14,o),
(401,12,o),
(460,63,cs),
(475,76,o),
(484,95,o),
(484,116,cs),
(484,155,o),
(453,186,o),
(414,186,cs),
(390,186,o),
(369,172,o),
(357,153,cs),
(338,123,o),
(307,108,o),
(268,108,cs),
(217,108,o),
(183,133,o),
(193,222,c),
(481,222,ls),
(537,222,o),
(579,274,o),
(579,274,cs)
);
},
{
closed = 1;
nodes = (
(382,426,o),
(407,395,o),
(403,332,c),
(222,332,l),
(248,398,o),
(287,426,o),
(334,426,cs)
);
},
{
closed = 1;
nodes = (
(273,567,cs),
(319,567,o),
(347,588,o),
(356,633,cs),
(365,678,o),
(331,723,o),
(283,723,cs),
(271,723,o),
(260,720,o),
(250,715,cs),
(221,700,o),
(200,673,o),
(200,641,cs),
(200,600,o),
(233,567,o)
);
},
{
closed = 1;
nodes = (
(474,567,cs),
(520,567,o),
(548,588,o),
(557,633,cs),
(566,678,o),
(532,723,o),
(484,723,cs),
(472,723,o),
(460,719,o),
(450,714,cs),
(422,700,o),
(401,673,o),
(401,640,cs),
(401,600,o),
(434,567,o)
);
}
);
width = 601;
}
);
note = edieresis;
unicode = 235;
},
{
glyphname = edotaccent;
kernLeft = c;
kernRight = ae;
lastChange = "2022-11-29 13:10:53 +0000";
layers = (
{
hints = (
{
horizontal = 1;
place = (-70, 66);
place = (-70, 66);
type = Stem;
},
{
horizontal = 1;
place = (166, 54);
place = (166, 54);
type = Stem;
},
{
horizontal = 1;
place = (370, 66);
place = (370, 66);
type = Stem;
},
{
horizontal = 1;
place = (519, 120);
place = (519, 120);
type = Stem;
},
{
place = (153, 130);
place = (153, 130);
type = Stem;
},
{
place = (-32, 122);
place = (-32, 122);
type = Stem;
}
);
layerId = m01;
shapes = (
{
closed = 1;
nodes = (
(424,575,o),
(468,609,o),
(480,663,cs),
(491,717,o),
(461,751,o),
(405,751,cs),
(349,751,o),
(305,717,o),
(294,663,cs),
(282,609,o),
(312,575,o),
(368,575,cs)
);
},
{
closed = 1;
nodes = (
(608,412,o),
(547,548,o),
(369,548,cs),
(191,548,o),
(57,421,o),
(24,265,cs),
(-16,77,o),
(87,-14,o),
(240,-14,cs),
(325,-14,o),
(401,12,o),
(460,63,cs),
(475,76,o),
(484,95,o),
(484,116,cs),
(484,155,o),
(453,186,o),
(414,186,cs),
(390,186,o),
(369,172,o),
(357,153,cs),
(338,123,o),
(307,108,o),
(268,108,cs),
(217,108,o),
(183,133,o),
(193,222,c),
(481,222,ls),
(537,222,o),
(579,274,o),
(579,274,cs)
);
},
{
closed = 1;
nodes = (
(382,426,o),
(407,395,o),
(403,332,c),
(222,332,l),
(248,398,o),
(287,426,o),
(334,426,cs)
);
}
);
width = 601;
}
);
note = edotaccent;
unicode = 279;
},
{
glyphname = egrave;
kernLeft = c;
kernRight = ae;
lastChange = "2022-11-29 13:10:53 +0000";
layers = (
{
hints = (
{
horizontal = 1;
place = (-70, 66);
place = (-70, 66);
type = Stem;
},
{
horizontal = 1;
place = (166, 54);
place = (166, 54);
type = Stem;
},
{
horizontal = 1;
place = (515, 69);
place = (515, 69);
type = Stem;
},
{
place = (-32, 122);
place = (-32, 122);
type = Stem;
},
{
horizontal = 1;
place = (370, 66);
place = (370, 66);
type = Stem;
}
);
layerId = m01;
shapes = (
{
closed = 1;
nodes = (
(353,571,c),
(383,575,o),
(407,602,o),
(407,634,cs),
(407,665,o),
(383,692,o),
(353,696,c),
(319,696,o),
(290,668,o),
(290,633,cs),
(290,599,o),
(319,571,o)
);
},
{
closed = 1;
nodes = (
(608,412,o),
(547,548,o),
(369,548,cs),
(191,548,o),
(57,421,o),
(24,265,cs),
(-16,77,o),
(87,-14,o),
(240,-14,cs),
(325,-14,o),
(401,12,o),
(460,63,cs),
(475,76,o),
(484,95,o),
(484,116,cs),
(484,155,o),
(453,186,o),
(414,186,cs),
(390,186,o),
(369,172,o),
(357,153,cs),
(338,123,o),
(307,108,o),
(268,108,cs),
(217,108,o),
(183,133,o),
(193,222,c),
(481,222,ls),
(537,222,o),
(579,274,o),
(579,274,cs)
);
},
{
closed = 1;
nodes = (
(382,426,o),
(407,395,o),
(403,332,c),
(222,332,l),
(248,398,o),
(287,426,o),
(334,426,cs)
);
}
);
width = 601;
}
);
note = egrave;
unicode = 232;
},
{
glyphname = emacron;
kernLeft = c;
kernRight = ae;
lastChange = "2022-11-29 13:10:53 +0000";
layers = (
{
hints = (
{
horizontal = 1;
place = (-70, 66);
place = (-70, 66);
type = Stem;
},
{
horizontal = 1;
place = (166, 54);
place = (166, 54);
type = Stem;
},
{
horizontal = 1;
place = (370, 66);
place = (370, 66);
type = Stem;
},
{
horizontal = 1;
place = (530, 40);
place = (530, 40);
type = Stem;
},
{
place = (96, 244);
place = (96, 244);
type = Stem;
},
{
place = (-32, 122);
place = (-32, 122);
type = Stem;
}
);
layerId = m01;
shapes = (
{
closed = 1;
nodes = (
(491,586,ls),
(517,586,o),
(539,607,o),
(539,634,cs),
(539,661,o),
(517,682,o),
(491,682,cs),
(270,682,ls),
(244,682,o),
(222,661,o),
(222,634,cs),
(222,607,o),
(244,586,o),
(270,586,cs)
);
},
{
closed = 1;
nodes = (
(608,412,o),
(547,548,o),
(369,548,cs),
(191,548,o),
(57,421,o),
(24,265,cs),
(-16,77,o),
(87,-14,o),
(240,-14,cs),
(325,-14,o),
(401,12,o),
(460,63,cs),
(475,76,o),
(484,95,o),
(484,116,cs),
(484,155,o),
(453,186,o),
(414,186,cs),
(390,186,o),
(369,172,o),
(357,153,cs),
(338,123,o),
(307,108,o),
(268,108,cs),
(217,108,o),
(183,133,o),
(193,222,c),
(481,222,ls),
(537,222,o),
(579,274,o),
(579,274,cs)
);
},
{
closed = 1;
nodes = (
(382,426,o),
(407,395,o),
(403,332,c),
(222,332,l),
(248,398,o),
(287,426,o),
(334,426,cs)
);
}
);
width = 601;
}
);
note = emacron;
unicode = 275;
},
{
glyphname = eogonek;
kernLeft = c;
kernRight = ae;
lastChange = "2022-11-29 13:10:53 +0000";
layers = (
{
hints = (
{
horizontal = 1;
place = (-60, 21);
target = up;
type = BottomGhost;
},
{
horizontal = 1;
place = (166, 54);
place = (166, 54);
type = Stem;
},
{
horizontal = 1;
place = (370, 66);
place = (370, 66);
type = Stem;
},
{
place = (-32, 122);
place = (-32, 122);
type = Stem;
},
{
horizontal = 1;
place = (-67, 21);
target = up;
type = BottomGhost;
},
{
horizontal = 1;
place = (-279, 46);
place = (-279, 46);
type = Stem;
},
{
place = (135, 193);
place = (135, 193);
type = Stem;
}
);
layerId = m01;
shapes = (
{
closed = 1;
nodes = (
(608,412,o),
(547,548,o),
(369,548,cs),
(191,548,o),
(57,421,o),
(24,265,cs),
(-12,96,o),
(68,5,o),
(195,-11,c),
(154,-40,o),
(116,-88,o),
(106,-137,cs),
(92,-201,o),
(135,-223,o),
(201,-223,cs),
(259,-223,o),
(303,-206,o),
(343,-183,cs),
(353,-177,o),
(359,-166,o),
(359,-154,cs),
(359,-134,o),
(340,-117,o),
(321,-120,c),
(319,-121,o),
(316,-121,o),
(314,-121,cs),
(294,-121,o),
(276,-108,o),
(284,-70,cs),
(290,-40,o),
(309,-14,o),
(328,-4,c),
(333,-3,o),
(338,-1,o),
(343,0,cs),
(387,13,o),
(426,33,o),
(460,62,cs),
(475,75,o),
(485,94,o),
(485,116,cs),
(485,155,o),
(453,186,o),
(415,186,cs),
(390,186,o),
(369,172,o),
(357,153,cs),
(337,123,o),
(307,108,o),
(268,108,cs),
(217,108,o),
(183,133,o),
(193,222,c),
(481,222,ls),
(537,222,o),
(579,274,o),
(579,274,cs)
);
},
{
closed = 1;
nodes = (
(382,426,o),
(407,395,o),
(403,332,c),
(222,332,l),
(248,398,o),
(287,426,o),
(334,426,cs)
);
}
);
width = 601;
}
);
note = eogonek;
unicode = 281;
},
{
glyphname = f;
lastChange = "2022-11-29 13:10:53 +0000";
layers = (
{
hints = (
{
horizontal = 1;
place = (-56, 21);
target = up;
type = BottomGhost;
},
{
horizontal = 1;
place = (362, 56);
place = (362, 56);
type = Stem;
},
{
horizontal = 1;
place = (575, 66);
place = (575, 66);
type = Stem;
},
{
place = (20, 124);
place = (20, 124);
type = Stem;
},
{
horizontal = 1;
place = (690, -20);
target = down;
type = TopGhost;
}
);
layerId = m01;
shapes = (
{
closed = 1;
nodes = (
(334,610,o),
(367,629,o),
(413,631,cs),
(446,632,o),
(473,659,o),
(473,693,cs),
(473,725,o),
(448,751,o),
(418,754,c),
(253,754,o),
(176,692,o),
(147,592,cs),
(142,574,o),
(137,550,o),
(133,534,cs),
(132,530,l),
(111,530,ls),
(80,530,o),
(55,505,o),
(55,474,cs),
(55,444,o),
(80,419,o),
(109,418,c),
(41,97,ls),
(40,91,o),
(39,85,o),
(39,79,cs),
(39,30,o),
(78,-9,o),
(127,-9,cs),
(169,-9,o),
(205,21,o),
(213,61,cs),
(289,418,l),
(344,418,ls),
(380,418,o),
(402,437,o),
(410,474,cs),
(417,508,o),
(391,539,o),
(356,539,cs),
(343,539,o),
(323,543,o),
(313,534,c),
(316,547,o),
(319,560,o),
(323,574,cs)
);
}
);
width = 378;
}
);
note = f;
unicode = 102;
},
{
glyphname = g;
kernLeft = c;
lastChange = "2022-11-29 13:10:53 +0000";
layers = (
{
hints = (
{
horizontal = 1;
place = (-276, 76);
place = (-276, 76);
type = Stem;
},
{
horizontal = 1;
place = (-50, 66);
place = (-50, 66);
type = Stem;
},
{
horizontal = 1;
place = (370, 52);
place = (370, 52);
type = Stem;
},
{
place = (-32, 128);
place = (-32, 128);
type = Stem;
},
{
place = (379, 124);
place = (379, 124);
type = Stem;
},
{
horizontal = 1;
place = (370, 66);
place = (370, 66);
type = Stem;
},
{
place = (-19, 118);
place = (-19, 118);
type = Stem;
}
);
layerId = m01;
shapes = (
{
closed = 1;
nodes = (
(652,437,ls),
(653,442,o),
(653,449,o),
(653,455,cs),
(653,504,o),
(614,543,o),
(566,543,cs),
(523,543,o),
(488,514,o),
(480,473,cs),
(478,465,l),
(467,494,ls),
(459,515,o),
(439,535,o),
(391,543,cs),
(374,546,o),
(355,548,o),
(337,548,cs),
(200,548,o),
(64,453,o),
(24,263,cs),
(-10,105,o),
(69,6,o),
(214,6,cs),
(253,6,o),
(287,12,o),
(318,21,cs),
(351,31,o),
(381,52,o),
(396,83,c),
(390,54,o),
(384,29,o),
(379,13,cs),
(359,-59,o),
(304,-88,o),
(237,-88,cs),
(214,-88,o),
(194,-85,o),
(179,-78,cs),
(139,-59,o),
(142,-15,o),
(102,4,cs),
(88,11,o),
(71,15,o),
(54,15,cs),
(36,15,o),
(22,9,o),
(9,0,cs),
(-20,-20,o),
(-34,-52,o),
(-23,-98,cs),
(-3,-178,o),
(75,-220,o),
(204,-220,cs),
(385,-220,o),
(521,-142,o),
(565,33,cs),
(572,62,o),
(581,103,o),
(588,136,cs)
);
},
{
closed = 1;
nodes = (
(229,128,o),
(189,176,o),
(210,276,cs),
(234,385,o),
(290,426,o),
(360,426,cs),
(414,426,o),
(462,390,o),
(439,283,cs),
(438,280,ls),
(414,168,o),
(358,128,o),
(292,128,cs)
);
}
);
width = 669;
}
);
note = g;
unicode = 103;
},
